<svg width="204" height="98" viewBox="0 0 204 98" fill="none" xmlns="http://www.w3.org/2000/svg">
<g clip-path="url(#clip0_293_5261)">
<path d="M179.153 48.5983C178.59 48.5983 178.04 48.4314 177.572 48.1186C177.103 47.8059 176.739 47.3614 176.523 46.8413C176.308 46.3213 176.251 45.749 176.361 45.1969C176.471 44.6448 176.742 44.1377 177.14 43.7396C177.538 43.3416 178.046 43.0705 178.598 42.9607C179.15 42.8509 179.722 42.9072 180.243 43.1226C180.763 43.3381 181.207 43.7029 181.52 44.1709C181.833 44.639 182 45.1892 182 45.7522C182 46.507 181.7 47.2309 181.166 47.7647C180.632 48.2985 179.908 48.5983 179.153 48.5983ZM179.153 43.2005C178.648 43.1944 178.152 43.3386 177.729 43.6149C177.305 43.8912 176.974 44.287 176.776 44.7521C176.578 45.2172 176.524 45.7306 176.618 46.227C176.713 46.7234 176.953 47.1804 177.309 47.5399C177.664 47.8994 178.118 48.1452 178.613 48.2461C179.109 48.347 179.623 48.2983 180.09 48.1064C180.558 47.9145 180.958 47.5879 181.239 47.1681C181.521 46.7484 181.671 46.2544 181.671 45.7491C181.67 45.079 181.405 44.4363 180.934 43.9596C180.463 43.4829 179.823 43.2103 179.153 43.2005ZM179.91 47.2465L179.131 45.9661H178.623V47.2465H178.269V44.171H179.277C179.401 44.1647 179.525 44.1833 179.642 44.2257C179.758 44.2681 179.865 44.3334 179.956 44.4178C180.048 44.5021 180.121 44.6039 180.172 44.7169C180.223 44.83 180.251 44.9522 180.254 45.0763C180.253 45.2804 180.181 45.4778 180.05 45.6345C179.92 45.7913 179.738 45.8976 179.538 45.9351L180.332 47.2465H179.91ZM179.225 44.5089H178.604V45.6343H179.225C179.305 45.6464 179.388 45.6409 179.466 45.6182C179.544 45.5955 179.617 45.5562 179.679 45.5029C179.741 45.4497 179.79 45.3837 179.824 45.3095C179.858 45.2354 179.876 45.1547 179.876 45.0732C179.876 44.9916 179.858 44.911 179.824 44.8368C179.79 44.7626 179.741 44.6967 179.679 44.6434C179.617 44.5902 179.544 44.5508 179.466 44.5282C179.388 44.5055 179.305 44.5 179.225 44.512V44.5089ZM138.368 42.9773C138.271 42.9773 138.24 43.0083 137.381 43.0424C136.522 43.0765 134.826 43.1106 131.443 43.1106H127.334C123.951 43.1106 122.279 43.0796 121.395 43.0424C120.512 43.0052 120.505 42.9773 120.409 42.9773C120.015 42.9773 120.015 43.2408 120.015 43.9942V47.014C120.015 47.1783 120.015 47.5721 120.344 47.5721C120.673 47.5721 120.769 47.4388 121.361 46.2265C121.746 45.3863 122.521 44.171 126.984 44.1307C127.446 44.1462 127.641 44.2516 127.641 44.9802V60.2341C127.641 61.5145 127.641 62.4044 125.997 62.4974C125.309 62.5625 124.853 62.5966 124.853 63.0554C124.853 63.5143 125.278 63.5453 125.542 63.5453C126.162 63.5453 128.822 63.4151 129.381 63.4151C130.466 63.4151 132.172 63.5453 133.254 63.5453C133.518 63.5453 133.942 63.5453 133.942 63.0554C133.942 62.5656 133.483 62.5284 132.792 62.4974C131.151 62.3982 131.151 61.5114 131.151 60.169V45.2096C131.151 44.357 131.257 44.1772 132.215 44.1369C136.302 44.2485 137.043 45.4111 137.416 46.2265C138.008 47.4388 138.073 47.5721 138.433 47.5721C138.792 47.5721 138.761 47.1783 138.761 47.014V43.9911C138.761 43.2408 138.761 42.9773 138.368 42.9773ZM102.894 58.3304C102.584 58.3304 102.535 58.4607 101.942 59.6078C100.5 62.3982 98.4659 62.3982 97.0208 62.3982C94.2639 62.3982 93.5754 62.0385 93.5754 59.707V54.0674C93.5754 53.0846 93.8359 53.0846 95.4113 53.0846C98.1031 53.0846 99.0241 53.1156 99.7125 55.6455C99.8769 56.2656 100.072 56.433 100.333 56.433C100.727 56.433 100.727 55.9741 100.727 55.7757C100.727 55.5122 100.627 54.365 100.627 54.1356C100.627 53.4132 100.857 50.0338 100.857 49.578C100.857 49.2184 100.692 49.1161 100.497 49.1161C100.302 49.1161 100.168 49.1843 100.004 49.609C99.4117 51.3484 99.1202 52.0676 95.4764 52.0676C93.5755 52.0676 93.5754 51.8041 93.5754 50.7562V45.994C93.5754 44.3539 93.7057 44.1337 95.3462 44.1337C99.9978 44.1337 100.792 45.3739 101.189 46.2327C101.781 47.445 101.846 47.5783 102.206 47.5783C102.566 47.5783 102.535 47.1845 102.535 47.0202V43.9911C102.535 43.2377 102.535 42.9742 102.141 42.9742C102.041 42.9742 102.01 43.0052 101.158 43.0393C100.305 43.0734 98.5961 43.1075 95.219 43.1075H93.653C90.862 43.1075 89.451 43.0765 88.7315 43.0393C88.4566 43.0329 88.1823 43.0111 87.9098 42.9742C87.6803 42.9742 87.2523 42.9742 87.2523 43.4362C87.2523 43.8981 87.7144 43.9601 88.4338 43.9911C90.0743 44.0903 90.0743 44.974 90.0743 46.3195V60.169C90.0743 61.5145 90.0743 62.4013 88.4338 62.4974C87.7454 62.5625 87.2523 62.5966 87.2523 63.0554C87.2523 63.5143 87.6803 63.5453 87.9408 63.5453C88.2013 63.5453 88.4338 63.5112 88.961 63.4802C89.4882 63.4492 90.3069 63.4151 91.6528 63.4151H92.0435C92.242 63.4151 93.7832 63.4461 95.6563 63.4802C97.5293 63.5143 99.8552 63.5453 101.527 63.5453C102.482 63.5453 102.807 63.1856 102.838 62.5594C102.938 61.3471 103.3 59.2451 103.3 58.8203C103.288 58.6281 103.192 58.3304 102.894 58.3304ZM156.453 58.3304C156.143 58.3304 156.093 58.4607 155.501 59.6078C154.059 62.3982 152.025 62.3982 150.58 62.3982C147.823 62.3982 147.134 62.0385 147.134 59.707V54.0674C147.134 53.0846 147.395 53.0846 148.97 53.0846C151.662 53.0846 152.583 53.1156 153.271 55.6455C153.436 56.2656 153.631 56.433 153.892 56.433C154.286 56.433 154.286 55.9741 154.286 55.7757C154.286 55.5122 154.186 54.365 154.186 54.1356C154.186 53.4132 154.416 50.0338 154.416 49.578C154.416 49.2184 154.251 49.1161 154.056 49.1161C153.861 49.1161 153.727 49.1843 153.563 49.609C152.971 51.3484 152.679 52.0676 149.035 52.0676C147.134 52.0676 147.134 51.8041 147.134 50.7562V45.994C147.134 44.3539 147.265 44.1337 148.905 44.1337C153.557 44.1337 154.351 45.3739 154.748 46.2327C155.34 47.445 155.405 47.5783 155.765 47.5783C156.124 47.5783 156.093 47.1845 156.093 47.0202V43.9911C156.093 43.2377 156.093 42.9742 155.7 42.9742C155.6 42.9742 155.569 43.0052 154.717 43.0393C153.864 43.0734 152.155 43.1075 148.778 43.1075H147.206C144.415 43.1075 143.004 43.0765 142.284 43.0393C142.009 43.0329 141.735 43.0111 141.463 42.9742C141.233 42.9742 140.805 42.9742 140.805 43.4362C140.805 43.8981 141.267 43.9601 141.987 43.9911C143.627 44.0903 143.627 44.974 143.627 46.3195V60.169C143.627 61.5145 143.627 62.4013 141.987 62.4974C141.298 62.5625 140.805 62.5966 140.805 63.0554C140.805 63.5143 141.233 63.5453 141.494 63.5453C141.754 63.5453 141.987 63.5112 142.514 63.4802C143.041 63.4492 143.86 63.4151 145.206 63.4151H145.596C145.795 63.4151 147.336 63.4461 149.209 63.4802C151.082 63.5143 153.408 63.5453 155.079 63.5453C156.035 63.5453 156.36 63.1856 156.391 62.5594C156.49 61.3471 156.853 59.2451 156.853 58.8203C156.847 58.6281 156.748 58.3304 156.453 58.3304ZM113.239 50.905C110.56 49.8013 108.619 48.9642 108.619 46.5862C108.619 45.284 109.673 43.3897 112.269 43.4145C115.06 43.4393 115.649 45.2747 116.052 46.5862C116.387 47.6248 116.524 47.8263 116.855 47.8263C117.327 47.8263 117.327 47.5566 117.327 46.8218C117.327 43.8764 117.327 43.5757 116.924 43.34C116.455 43.1044 114.483 42.5712 112.539 42.5712C108.287 42.5712 105.943 45.2468 105.943 48.3255C105.943 51.8754 108.588 53.1776 111.298 54.3836C113.708 55.4874 115.981 56.7585 115.981 59.3691C115.981 62.0788 113.342 62.9965 111.949 62.9965C109.574 62.9965 107.279 60.9875 106.637 58.0731C106.572 57.7631 106.526 57.4282 106.228 57.4282C105.825 57.4282 105.803 57.8964 105.803 58.0297C105.8 59.0575 105.86 60.0845 105.98 61.1053C106.07 61.9393 106.203 62.6121 106.572 62.8818C107.174 63.3159 108.827 63.9545 111.438 63.9545C115.891 63.9545 118.635 60.8542 118.635 57.1337C118.629 53.345 115.116 51.7049 113.239 50.905ZM34.3539 42.5712C27.9098 42.5712 23.0721 47.1876 23.0721 53.2117C23.0721 59.6016 28.4525 63.9545 34.2547 63.9545C39.8955 63.9545 45.4 59.4032 45.4 52.911C45.4 47.1535 40.5592 42.5712 34.3539 42.5712ZM34.5183 63.0337C30.0992 63.0337 26.9485 57.9057 26.9485 52.5141C26.9485 47.786 29.9038 43.4889 33.9632 43.4889C39.1668 43.4889 41.5081 49.0696 41.5081 53.0443C41.5081 57.8747 39.0986 63.0337 34.5183 63.0337ZM20.9727 35C20.5178 35.0662 20.0586 35.0983 19.5989 35.0961C18.3585 35.1426 15.8776 35.1891 10.9562 35.1891H9.92349C5.22534 35.1891 3.50733 35.1395 2.2793 35.0961C1.83441 35.0886 1.39028 35.0565 0.948934 35C0.620218 35 0 35 0 35.6635C0 36.327 0.713251 36.3766 1.7056 36.4696C4.07794 36.6122 4.07794 37.8927 4.07794 39.8366V59.4683C4.07794 61.0433 4.07794 62.1346 2.05602 62.2586C1.20632 62.3392 0.645027 62.3795 0.645027 62.9469C0.645027 63.5143 1.16601 63.5515 1.49163 63.5515C2.2607 63.5515 5.60677 63.3903 6.29212 63.3903C7.62869 63.3903 9.79635 63.5515 11.1267 63.5515C11.4368 63.5515 11.9733 63.5515 11.9733 62.9469C11.9733 62.3423 11.4089 62.2834 10.5592 62.2555C8.54041 62.1346 8.54041 61.0433 8.54041 59.3877V52.108C8.54041 50.7624 8.54041 50.2291 9.31258 50.0183C9.81806 49.8819 12.0043 49.8819 13.3967 49.8819C14.5813 49.8819 17.6173 49.8819 18.2809 52.4397C18.3771 52.6784 18.6903 53.9062 18.8019 54.241C18.8825 54.4798 19.0655 55.0223 19.5586 54.9975C20.1261 54.9696 20.1292 54.4301 20.1292 54.0984L19.94 51.8692C19.847 50.7779 19.847 49.9749 19.847 49.547C19.847 48.837 19.9865 45.6126 19.9865 44.9523C19.9865 44.4779 19.8439 44.171 19.419 44.1431C18.9942 44.1151 18.7554 44.5244 18.6624 44.9026C18.0577 47.3644 17.3661 48.4123 13.5394 48.4123C12.8292 48.4123 10.0134 48.4123 9.30017 48.3162C8.67996 48.2201 8.54351 48.1736 8.54351 45.6157V38.9809C8.54351 36.7548 9.35289 36.6587 10.9624 36.6587C18.3399 36.6587 18.957 37.6694 20.3711 40.8287C20.5478 41.2225 20.7339 41.7775 21.2549 41.7775C21.7759 41.7775 21.7759 41.021 21.7759 40.8752V35.8526C21.7759 35.2356 21.7294 35 20.9727 35ZM64.5554 62.5625C63.6251 62.4261 63.1785 61.6107 62.5242 60.4635L59.3425 54.8208C58.5858 53.4442 58.192 53.2489 57.764 52.9854C58.8804 52.7559 62.2606 51.9684 62.2606 48.1302C62.2606 46.9799 61.7676 42.9773 55.9623 42.9773C54.9762 42.9773 50.6129 43.1106 49.726 43.1106C49.3322 43.1106 47.7258 42.9773 47.3971 42.9773C46.3148 42.9773 46.1815 42.9773 46.1815 43.4393C46.1815 43.9012 46.6435 43.9291 47.363 43.9632C48.9693 44.0624 48.9693 44.9492 48.9693 46.2916V60.2C48.9693 61.5765 48.9693 62.4323 47.363 62.5625C46.6745 62.5935 46.1815 62.6276 46.1815 63.0895C46.1815 63.5515 46.6094 63.5484 46.8699 63.5484C47.4622 63.5484 50.1198 63.4182 50.678 63.4182C50.8083 63.4182 53.9931 63.5484 54.6164 63.5484C54.8769 63.5484 55.3049 63.5794 55.3049 63.1236C55.3049 62.6679 54.8428 62.5966 54.1234 62.5656C52.4829 62.4664 52.4829 61.5796 52.4829 60.2031V54.3123C52.4829 53.7543 52.5511 53.5589 53.1031 53.5589C54.5823 53.5589 54.7436 53.6892 55.4661 55.1091L59.4417 62.5625C59.8015 63.2508 59.9317 63.5484 60.524 63.5484H64.8469C65.0764 63.5484 65.402 63.4926 65.402 63.1546C65.402 62.8167 65.2439 62.6648 64.5554 62.5625ZM54.1234 52.6877C52.4829 52.6877 52.4829 52.6226 52.4829 51.4724V45.963C52.4829 44.6825 52.5139 43.895 54.0334 43.895C58.1021 43.895 58.561 47.4047 58.561 48.5859C58.5548 52.6877 55.3049 52.6877 54.1234 52.6877ZM85.1405 62.5625C84.2102 62.4261 83.7636 61.6107 83.1093 60.4635L79.9275 54.8208C79.1709 53.4442 78.777 53.2489 78.3491 52.9854C79.4655 52.7559 82.8457 51.9684 82.8457 48.1302C82.8457 46.9799 82.3526 42.9773 76.5474 42.9773C75.5612 42.9773 71.198 43.1106 70.3111 43.1106C69.9172 43.1106 68.3109 42.9773 67.9821 42.9773C66.8999 42.9773 66.7665 42.9773 66.7665 43.4393C66.7665 43.9012 67.2286 43.9291 67.948 43.9632C69.5544 44.0624 69.5544 44.9492 69.5544 46.2916V60.2C69.5544 61.5765 69.5544 62.4323 67.948 62.5625C67.2596 62.5935 66.7665 62.6276 66.7665 63.0895C66.7665 63.5515 67.1945 63.5484 67.455 63.5484C68.0473 63.5484 70.7049 63.4182 71.2631 63.4182C71.3933 63.4182 74.5782 63.5484 75.2015 63.5484C75.462 63.5484 75.8899 63.5794 75.8899 63.1236C75.8899 62.6679 75.4279 62.5966 74.7084 62.5656C73.0679 62.4664 73.0679 61.5796 73.0679 60.2031V54.3123C73.0679 53.7543 73.1362 53.5589 73.6881 53.5589C75.1674 53.5589 75.3286 53.6892 76.0512 55.1091L80.0237 62.5625C80.3834 63.2508 80.5137 63.5484 81.106 63.5484H85.4289C85.6584 63.5484 85.984 63.4926 85.984 63.1546C85.984 62.8167 85.8289 62.6648 85.1405 62.5625ZM74.7084 52.6877C73.0679 52.6877 73.0679 52.6226 73.0679 51.4724V45.963C73.0679 44.6825 73.0989 43.895 74.6185 43.895C78.6871 43.895 79.1461 47.4047 79.1461 48.5859C79.1368 52.6877 75.8899 52.6877 74.7084 52.6877ZM177.072 62.5625C176.142 62.4261 175.695 61.6107 175.041 60.4635L171.859 54.8208C171.103 53.4442 170.709 53.2489 170.281 52.9854C171.397 52.7559 174.778 51.9684 174.778 48.1302C174.778 46.9799 174.284 42.9773 168.479 42.9773C167.493 42.9773 163.13 43.1106 162.243 43.1106C161.849 43.1106 160.243 42.9773 159.914 42.9773C158.832 42.9773 158.698 42.9773 158.698 43.4393C158.698 43.9012 159.16 43.9291 159.88 43.9632C161.486 44.0624 161.486 44.9492 161.486 46.2916V60.2C161.486 61.5765 161.486 62.4323 159.88 62.5625C159.191 62.5935 158.698 62.6276 158.698 63.0895C158.698 63.5515 159.126 63.5484 159.387 63.5484C159.979 63.5484 162.637 63.4182 163.195 63.4182C163.325 63.4182 166.51 63.5484 167.133 63.5484C167.394 63.5484 167.822 63.5794 167.822 63.1236C167.822 62.6679 167.36 62.5966 166.64 62.5656C164.978 62.4633 164.978 61.5765 164.978 60.2V54.3092C164.978 53.7512 165.046 53.5558 165.598 53.5558C167.078 53.5558 167.239 53.6861 167.961 55.106L171.949 62.5625C172.309 63.2508 172.439 63.5484 173.032 63.5484H177.355C177.584 63.5484 177.91 63.4926 177.91 63.1546C177.91 62.8167 177.755 62.6648 177.072 62.5625ZM166.634 52.6877C164.994 52.6877 164.994 52.6226 164.994 51.4724V45.963C164.994 44.6825 165.025 43.895 166.544 43.895C170.613 43.895 171.072 47.4047 171.072 48.5859C171.062 52.6877 167.816 52.6877 166.634 52.6877Z" fill="#0D563F"/>
</g>
<defs>
<clipPath id="clip0_293_5261">
<rect width="182" height="28.9545" fill="white" transform="translate(0 35)"/>
</clipPath>
</defs>
</svg>
