<svg width="204" height="98" viewBox="0 0 204 98" fill="none" xmlns="http://www.w3.org/2000/svg">
<g clip-path="url(#clip0_37_951)">
<mask id="mask0_37_951" style="mask-type:luminance" maskUnits="userSpaceOnUse" x="0" y="21" width="162" height="56">
<path d="M161.469 21H0V77H161.469V21Z" fill="white"/>
</mask>
<g mask="url(#mask0_37_951)">
<path d="M75.8555 26.6138L75.6419 29.2432H74.5734C72.864 29.2432 71.9737 30.629 71.9737 31.9437V37.8777H68.9467V26.6138H71.8313L71.9025 28.0351C72.5079 27.0757 73.5763 26.6138 74.8584 26.6138H75.8555Z" fill="#002856"/>
<path d="M54.7371 37.8422H51.6743V31.9083C51.6743 30.6646 51.5675 29.1012 49.8225 29.1012C48.1487 29.1012 47.472 30.3093 47.472 31.7306V37.8422H44.4093V26.6139H47.2227L47.2939 28.0352C47.8994 27.0758 49.0391 26.3296 50.6772 26.3296C53.7399 26.3296 54.7014 28.5326 54.7014 30.8068V37.8422H54.7371Z" fill="#002856"/>
<path d="M43.0916 35.213L42.878 37.7713C42.1301 37.9845 41.4891 38.0201 40.7056 38.0201C37.8209 38.0201 37.0018 36.7054 37.0018 34.0759V23.416H40.0645V26.5785H43.0916L42.878 29.2079H40.0645V33.8628C40.0645 34.9287 40.3495 35.4972 41.4535 35.4972C41.9164 35.4972 42.4506 35.4617 43.0916 35.213Z" fill="#002856"/>
<path d="M36.0047 26.6138L35.7555 29.2432H34.9363C33.2268 29.2432 32.3722 30.629 32.3722 31.9437V37.8777H29.3095V26.6138H32.1941L32.2653 28.0351C32.8707 27.0757 33.9391 26.6138 35.2568 26.6138H36.0047Z" fill="#002856"/>
<path d="M15.5628 36.5987C13.4973 37.7002 11.4318 38.3398 8.68956 38.2688C3.66813 38.1266 0.035614 34.9996 0.035614 29.7053C0.035614 24.4109 3.70375 21.0708 8.72517 20.9997C11.2537 20.9286 13.5329 21.6038 15.3136 23.1672L13.1767 25.3347C12.0728 24.3753 10.4702 23.8423 8.5115 23.9134C5.37755 24.0555 3.45446 26.3652 3.41884 29.5276C3.38323 32.9388 5.48439 35.284 8.76079 35.3906C10.2921 35.4261 11.3961 35.2129 12.3577 34.7864V31.3043H8.93885L9.15252 28.4261H15.5628V36.5987Z" fill="#002856"/>
<path d="M64.495 30.949C64.3881 29.5277 63.3198 28.6393 61.8596 28.6749C60.3639 28.7459 59.4023 29.7053 59.1887 30.949H64.495ZM67.5221 33.2942H59.1531C59.4023 34.7155 60.542 35.6038 61.9309 35.6393C63.3198 35.6749 64.0677 35.2485 65.0648 34.2536L67.0592 35.7815C65.6346 37.5226 63.9608 38.1621 62.0021 38.1621C58.6189 38.1621 56.0548 35.7815 56.0548 32.2637C56.0548 28.7459 58.5833 26.3652 61.8596 26.3652C65.4921 26.3652 67.4509 28.5683 67.4509 32.4414V33.2942H67.5221Z" fill="#002856"/>
<path d="M24.4661 32.9387H24.0388C22.6142 32.9387 20.0501 33.0098 20.0857 34.5022C20.0857 36.6342 24.4661 35.959 24.4661 33.4007V32.9387ZM27.422 30.487V37.8422H24.7511L24.6798 36.7407C23.8607 37.7712 22.5074 38.1266 21.1541 38.1266C19.0886 38.1266 17.1298 37.096 17.0942 34.7154C17.023 30.9844 21.2965 30.7001 24.0032 30.7001H24.5373V30.5936C24.5373 29.3499 23.7182 28.6748 22.1869 28.6748C21.0828 28.6748 19.9788 29.1012 19.1954 29.8829L17.4503 28.1062C19.053 26.8271 20.6911 26.3296 22.4718 26.3296C25.855 26.3296 27.422 27.9286 27.422 30.487Z" fill="#002856"/>
<path d="M74.3954 36.4565V35.9235H74.7515C74.9296 35.9235 75.1433 35.959 75.1433 36.1722C75.1433 36.4565 74.9296 36.4565 74.7159 36.4565H74.3954ZM74.3954 36.6697H74.7159L75.1789 37.4159H75.4638L74.9652 36.6342C75.2146 36.5987 75.4282 36.4565 75.4282 36.1367C75.4282 35.7814 75.2146 35.6393 74.8228 35.6393H74.1461V37.3804H74.3954V36.6697ZM74.7159 38.0555C75.535 38.0555 76.2473 37.4159 76.2473 36.5276C76.2473 35.6748 75.535 35.0352 74.7159 35.0352C73.8969 35.0352 73.1846 35.6748 73.1846 36.5276C73.149 37.4159 73.8612 38.0555 74.7159 38.0555ZM73.4694 36.5631C73.4694 35.8525 74.0037 35.3195 74.7159 35.3195C75.3926 35.3195 75.9625 35.8525 75.9625 36.5631C75.9625 37.3093 75.4282 37.8423 74.7159 37.8423C74.0037 37.8068 73.4694 37.2738 73.4694 36.5631Z" fill="#002856"/>
<path d="M13.9959 57.3498V57.4564C13.9959 61.7204 10.7907 63.3904 6.94453 63.3904H3.66813V71.5631H1.24646V51.4868H6.98014C10.8263 51.4868 13.9959 53.1924 13.9959 57.3498ZM11.5742 57.4919V57.3854C11.5742 54.5428 9.86479 53.4767 7.15821 53.4767H3.70375V61.5071H7.1226C10.0072 61.4716 11.5742 60.0859 11.5742 57.4919Z" fill="#002856"/>
<path d="M14.6725 64.421V64.2078C14.6725 59.7661 17.5215 56.6748 21.5815 56.6748C25.0003 56.6748 28.2055 58.7357 28.2055 63.9946V64.7408H17.1298C17.2367 68.0809 18.8392 69.9286 21.8663 69.9286C24.1455 69.9286 25.4632 69.0759 25.7838 67.3702H28.1342C27.6357 70.3195 25.1784 71.8829 21.8307 71.8829C17.664 71.8474 14.6725 68.9337 14.6725 64.421ZM21.6171 58.5936C19.2309 58.5936 17.6284 60.2281 17.2367 62.8576H25.8549C25.6057 59.8016 24.0388 58.5936 21.6171 58.5936Z" fill="#002856"/>
<path d="M30.2711 64.421V64.2078C30.2711 59.7661 33.1201 56.6748 37.1799 56.6748C40.5987 56.6748 43.8039 58.7357 43.8039 63.9946V64.7408H32.6926C32.7995 68.0809 34.4021 69.9286 37.4292 69.9286C39.7084 69.9286 41.0261 69.0759 41.3466 67.3702H43.697C43.1985 70.3195 40.7412 71.8829 37.3936 71.8829C33.2269 71.8474 30.2711 68.9337 30.2711 64.421ZM37.1799 58.5936C34.7938 58.5936 33.1913 60.2281 32.7639 62.8576H41.3822C41.2041 59.8016 39.6016 58.5936 37.1799 58.5936Z" fill="#002856"/>
<path d="M49.1102 59.5178C50.0362 57.8477 51.3183 56.7107 53.9537 56.604V58.8071C50.9977 58.9491 49.1102 59.873 49.1102 63.4975V71.5634H46.7598V56.8883H49.1102V59.5178Z" fill="#002856"/>
<path d="M64.2102 71.5986H61.7529V51.4868H64.2102V71.5986Z" fill="#40B3E1"/>
<path d="M69.9794 59.2335C70.6561 57.8477 72.2942 56.6396 74.7159 56.6396C77.7786 56.6396 79.9154 58.3096 79.9154 62.5736V71.599H77.565V62.3959C77.565 59.802 76.4609 58.6649 74.1105 58.6649C71.9381 58.6649 69.9794 60.0508 69.9794 62.6803V71.599H67.629V56.8883H69.9794V59.2335Z" fill="#40B3E1"/>
<path d="M81.8029 67.0863H84.0821C84.2601 68.8274 85.1861 69.929 87.5722 69.929C89.7801 69.929 90.7774 69.1828 90.7774 67.5837C90.7774 65.9848 89.6378 65.5229 87.3228 65.0964C83.4767 64.3859 82.1946 63.3198 82.1946 60.7614C82.1946 58.0254 84.8657 56.6396 87.1805 56.6396C89.8159 56.6396 92.1307 57.7056 92.5224 60.9035H90.2788C89.9582 59.3046 89.0324 58.5939 87.1805 58.5939C85.4711 58.5939 84.4026 59.4466 84.4026 60.6904C84.4026 62.0051 85.1505 62.5381 87.8571 63.0355C90.9198 63.604 93.0566 64.2792 93.0566 67.4062C93.0566 70.0711 91.2403 71.8832 87.6434 71.8832C84.0821 71.8477 81.9453 70.0711 81.8029 67.0863Z" fill="#40B3E1"/>
<path d="M95.229 52.269C95.229 51.4163 95.9057 50.7056 96.7959 50.7056C97.6863 50.7056 98.363 51.3806 98.363 52.2335C98.363 53.0862 97.6863 53.7969 96.7959 53.7969C95.9413 53.7969 95.229 53.1218 95.229 52.269ZM98.0068 71.5989H95.6563V56.8883H98.0068V71.5989Z" fill="#40B3E1"/>
<path d="M100.927 72.4517H103.313C103.669 74.1573 105.058 75.0101 107.587 75.0101C110.471 75.0101 112.323 73.6243 112.323 70.4618V68.3299C111.219 70.0355 109.367 71.066 107.337 71.1015C103.456 71.1015 100.606 68.1877 100.606 64.137V63.9238C100.606 59.9441 103.42 56.604 107.48 56.604C109.937 56.604 111.469 57.7766 112.288 59.2335V56.8883H114.602V70.604C114.567 74.868 111.682 76.9645 107.551 76.9645C103.242 77 101.319 74.939 100.927 72.4517ZM112.394 63.9949V63.7817C112.394 60.4772 110.578 58.5583 107.729 58.5583C104.809 58.5583 103.064 60.7259 103.064 63.8172V64.0304C103.064 67.2284 105.129 69.1471 107.622 69.1471C110.329 69.1827 112.394 67.2639 112.394 63.9949Z" fill="#40B3E1"/>
<path d="M120.692 59.2333C121.369 57.8476 123.007 56.6394 125.429 56.6394C128.456 56.6394 130.628 58.3094 130.628 62.5734V71.5987H128.277V62.3958C128.277 59.8018 127.174 58.6648 124.823 58.6648C122.651 58.6648 120.692 60.0505 120.692 62.68V71.5987H118.342V49.8525H120.692V59.2333Z" fill="#40B3E1"/>
<path d="M134.403 67.9387V58.8778H132.302V56.888H134.403V53.5479H136.754V56.888H140.208V58.8778H136.754V67.7255C136.754 69.1469 137.395 69.8575 138.57 69.8575C139.176 69.8575 139.816 69.7509 140.386 69.5378V71.492C139.745 71.7052 139.069 71.8119 138.391 71.8119C135.686 71.8119 134.403 70.2128 134.403 67.9387Z" fill="#40B3E1"/>
<path d="M141.526 67.0863H143.805C143.984 68.8274 144.91 69.929 147.259 69.929C149.503 69.929 150.465 69.1828 150.465 67.5837C150.465 65.9848 149.324 65.5229 147.011 65.0964C143.163 64.3859 141.881 63.3198 141.881 60.7614C141.881 58.0254 144.552 56.6396 146.868 56.6396C149.503 56.6396 151.818 57.7056 152.21 60.9035H149.966C149.61 59.3046 148.72 58.5939 146.868 58.5939C145.158 58.5939 144.089 59.4466 144.089 60.6904C144.089 62.0051 144.838 62.5381 147.545 63.0355C150.608 63.604 152.744 64.2792 152.744 67.4062C152.744 70.0711 150.928 71.8832 147.331 71.8832C143.769 71.8477 141.668 70.0711 141.526 67.0863Z" fill="#40B3E1"/>
<path d="M154.702 68.4365H157.373V68.9695H156.376V71.9899H155.7V68.9695H154.702V68.4365Z" fill="#002856"/>
<path d="M159.653 70.888L160.579 68.4717H161.469V72.025H160.792V69.3245L159.724 72.025H159.51L158.442 69.3245V72.025H157.836V68.4717H158.727L159.653 70.888Z" fill="#002856"/>
</g>
</g>
<defs>
<clipPath id="clip0_37_951">
<rect width="162" height="56" fill="white" transform="translate(0 21)"/>
</clipPath>
</defs>
</svg>
