<svg width="55" height="69" viewBox="0 0 55 69" fill="none" xmlns="http://www.w3.org/2000/svg">
<path d="M17.6542 58.1729C14.5611 55.3524 13.6581 49.4262 14.9468 45.1328C17.1813 47.8397 20.2774 48.6972 23.4844 49.1812C28.4352 49.9282 33.2973 49.6488 37.8965 47.3916C38.4225 47.1331 38.9087 46.7895 39.4836 46.4415C39.9152 47.6903 40.0275 48.9511 39.8768 50.2344C39.5103 53.3596 37.9511 55.7737 35.4712 57.6036C34.4797 58.3357 33.4303 58.9899 32.4062 59.6801C29.2598 61.8015 28.4086 64.2887 29.5908 67.9069C29.619 67.995 29.6441 68.0831 29.7076 68.2983C28.1012 67.5812 26.9278 66.537 26.0337 65.1641C25.0893 63.7151 24.6401 62.1121 24.6164 60.3777C24.6046 59.5338 24.6046 58.6822 24.4908 57.8502C24.2129 55.8214 23.2583 54.9132 21.4597 54.8609C19.6138 54.8072 18.1537 55.9454 17.7665 57.7381C17.737 57.8755 17.6941 58.0115 17.6512 58.1713L17.6542 58.1729Z" fill="#17191E"/>
<path d="M0 44.4171C0 44.4171 9.15933 39.9663 18.3443 39.9663L25.2695 18.5876C25.5287 17.5537 26.2857 16.8511 27.1403 16.8511C27.995 16.8511 28.7519 17.5537 29.0113 18.5876L35.9364 39.9663C46.8146 39.9663 54.2807 44.4171 54.2807 44.4171C54.2807 44.4171 38.7228 2.1398 38.6923 2.05497C38.2458 0.805023 37.492 0 36.4757 0H17.8065C16.7902 0 16.0669 0.805023 15.5899 2.05497C15.5563 2.13819 0 44.4171 0 44.4171Z" fill="#17191E"/>
</svg>
