<svg width="53" height="30" viewBox="0 0 53 30" fill="none" xmlns="http://www.w3.org/2000/svg">
<g clip-path="url(#clip0_10_266)">
<path d="M6.00418 0H9C7.46583 1.57143 6.14365 3.24 5 5L6.00418 0ZM7.89537 10.9544C9.21076 8.03121 11.136 5.30012 13.6293 2.82113C14.6517 1.80072 15.7519 0.852341 16.9178 0H22C21.8505 0.072029 21.6891 0.15006 21.5217 0.222089C19.3154 1.30252 17.3004 2.7491 15.5127 4.51981C13.6293 6.39256 12.1285 8.43337 11.0463 10.5942C10 12.6951 9.36024 14.8559 9.15097 17.0168C8.73842 21.3685 10.1495 25.4022 13.1271 28.3673C13.7429 28.9856 14.4305 29.5318 15.1659 30H9.90433C8.73244 28.6795 7.79372 27.1669 7.142 25.5282C6.38266 23.6255 6 21.5666 6 19.4178C6 16.6026 6.63976 13.7635 7.90732 10.9424L7.89537 10.9544ZM15 7C15.5056 6.39157 16.0412 5.80723 16.6009 5.24699C19.1588 2.71084 22.138 0.957831 25.1773 0H28L27.669 1.57831C24.1722 2.08434 20.7477 3.83735 18.0093 6.57229C17.8588 6.72289 17.7264 6.85542 17.588 7H15ZM31.2786 18.9917C30.2991 19.9182 29.1554 20.5839 28 21L28.3167 19.5465C29.1613 19.2025 29.9355 18.7087 30.5865 18.0929C31.6833 17.0832 32.346 15.8072 32.4458 14.5201C32.5572 13.233 32.1173 12.0458 31.2024 11.1803C30.9326 10.9307 30.6276 10.7198 30.2933 10.5589L30.6276 9C31.2845 9.23301 31.8886 9.58807 32.3871 10.0596C33.4428 11.0527 34 12.301 34 13.6768C34 15.4632 33.0323 17.3495 31.2903 19.0028L31.2786 18.9917ZM34.4028 13.5913C34.4028 11.9044 33.7616 10.3838 32.5421 9.17883C31.918 8.56487 31.168 8.1001 30.3379 7.81893L30.7157 6C31.9295 6.2869 33.0058 6.88938 33.8646 7.75582C37.1968 11.0551 36.567 16.6669 32.4104 20.804C30.8073 22.3819 28.918 23.4951 27 24L27.355 22.2442C28.855 21.8024 30.2691 20.9531 31.4543 19.7711C33.3436 17.8948 34.3856 15.6857 34.3856 13.5913H34.4028ZM30.9638 14.9847C30.8916 16.0772 30.3085 17.1641 29.3647 18.037C28.9559 18.4143 28.499 18.7353 28 19L29.545 12C29.7073 12.0957 29.8456 12.2084 29.9959 12.3323C30.7173 13.0137 31.072 13.9485 30.9878 15.0072L30.9638 14.9847ZM1.87983 28.0913C2.20172 28.7484 2.57511 29.3846 3 30H0L1.02361 26C1.24893 26.7093 1.53219 27.4081 1.86695 28.0861L1.87983 28.0913ZM5.15722 19.4301C5.15722 21.7037 5.55687 23.8812 6.32762 25.8908C6.89284 27.3725 7.66359 28.7523 8.61133 30H4.35222C3.88406 29.1782 3.4787 28.3203 3.14185 27.4265C2.58235 25.9628 2.19982 24.4331 2 22.8674L4.87747 8.18236C6.30479 5.44091 8.1603 2.86143 10.4269 0.503899C10.5925 0.329934 10.7523 0.167966 10.9236 0H15C14.2121 0.659868 13.4528 1.36773 12.7391 2.11158C10.2784 4.68506 8.37725 7.5165 7.06983 10.5519C5.80808 13.4733 5.16293 16.4727 5.16293 19.4121L5.15722 19.4301ZM14.006 18.5182C14.006 15.9737 14.6436 13.4156 15.8526 11H18C16.8511 13.151 16.2195 15.5191 16.2195 17.8329C16.2195 18.2332 16.2496 18.62 16.2917 19H14.012C14.006 18.8439 14 18.6811 14 18.525V18.5182H14.006ZM22.9943 11C22.7892 11.1902 22.5954 11.4007 22.4131 11.618C21.1482 13.1188 20.4473 14.9253 20.4473 16.7114C20.4473 17.5399 20.6011 18.3209 20.886 19H19.1994C19.0684 18.4228 19 17.8183 19 17.2207C19 15.1019 19.8091 12.8608 21.2336 11.0068H23L22.9943 11ZM17 17.8203C17 15.5085 17.5502 13.1288 18.555 11H20C19.5837 11.739 19.2392 12.5525 18.9665 13.4136C18.5646 14.6678 18.3684 15.9559 18.3684 17.2237C18.3684 17.8136 18.4115 18.4237 18.5072 19H17.0478C17.0191 18.6136 17 18.2271 17 17.8203ZM32.7912 21.2975C37.4255 16.5883 38.0667 10.1319 34.2893 6.29033C33.2692 5.26113 32.0101 4.54907 30.5877 4.19603L31.0249 2C32.9427 2.34107 34.6916 3.19674 36.0673 4.60292C37.9094 6.46984 38.9062 8.79153 38.9936 11.3765C39.0169 12.0766 38.9761 12.7767 38.877 13.4708C38.4282 16.6422 36.7435 19.8435 34.1436 22.4823C31.8701 24.798 28.9438 26.4076 26 27L26.4022 25.0134C28.6757 24.5048 30.92 23.2183 32.8145 21.3035L32.7912 21.2975ZM37.4988 4.37743C36.3387 3.23346 34.9466 2.393 33.3457 1.89689C32.9049 1.76265 32.4524 1.65759 32 1.57588L32.3016 0H35.1264C36.6694 0.560311 38.0731 1.45331 39.2448 2.60895C40.4629 3.83463 41.3909 5.23541 42 6.7821H40.7123L40.2541 9L40.2193 8.85409C39.7146 7.17899 38.7923 5.67899 37.4872 4.37743H37.4988ZM42.6864 7C42.0318 5.12048 40.9799 3.43976 39.548 1.98795C38.7883 1.21084 37.9292 0.542169 37 0H42.3182C44.1123 1.96988 45.3747 4.37952 46 7H42.6747H42.6864ZM26.6066 4.90345C24.8446 5.21241 23.134 5.93517 21.5944 7H19C21.3778 4.80966 24.2231 3.45793 27 3L26.5895 4.90345H26.6066ZM27 6L26.7632 8H24C24.9417 7.09268 25.9511 6.42927 27 6.02927V6ZM10.062 16.9085C10.4045 13.5183 11.9302 10.0732 14.4212 7L13.568 10.9451H14.1908C13.0262 13.1341 12.4035 15.439 12.4035 17.7134C12.4035 17.8659 12.4035 17.9939 12.4035 18.1402H12.0485L11.1019 22.7683H13.568C14.1036 23.8537 14.826 24.8476 15.6978 25.6951C17.4104 27.3537 19.5588 28.3902 22 28.7561L21.7447 30H17.4851C16.1524 29.439 14.9381 28.6341 13.9043 27.6402C11.0272 24.8415 9.66963 21.0366 10.0682 16.8963L10.062 16.9085ZM22.9815 23.0065L22.6 25C21.2585 24.6743 20.0154 23.9837 19 23H23L22.9877 23.013V23.0065H22.9815ZM22.9812 24.8685L22.5353 27C20.2747 26.665 18.2967 25.7211 16.7268 24.2046C16.0424 23.553 15.4647 22.81 15 22H18.102C18.259 22.1766 18.416 22.335 18.573 22.4933C19.8289 23.7113 21.3171 24.503 23 24.8685H22.9812ZM36.304 30H32C33.8132 29.2065 35.4921 28.1957 37 27L36.304 30ZM43 12C42.9772 12.4414 42.9486 12.8896 42.9087 13.3379C42.6747 15.5789 42.0756 17.8336 41.1398 20H39C39.8902 18.0917 40.4779 16.0951 40.7233 14.0849C40.8088 13.3786 40.8488 12.6859 40.8488 12H42.9886H43ZM49.2974 0C49.8231 0.807229 50.2814 1.64458 50.6723 2.51205C51.3125 3.95783 51.7574 5.46385 52 7H47.909C47.2485 4.42169 45.9073 2.0241 44 0H49.3041H49.2974ZM50 0H53L51.9584 5C51.5343 3.25767 50.8794 1.57669 50.0125 0H50ZM47 12C46.9754 12.2513 46.957 12.5093 46.9263 12.7606C46.699 15.2054 46.097 17.6435 45.1634 20H42C42.9214 17.8812 43.5356 15.674 43.7629 13.4669C43.8243 12.9847 43.8612 12.489 43.8857 12H46.9939H47ZM47.3221 12.8881C47.3414 12.5898 47.3558 12.2983 47.3798 12H49L47.8606 20H46C46.6923 17.6678 47.1394 15.2814 47.3221 12.8814V12.8881ZM26.2814 28.7194C29.6347 28.1714 32.988 26.45 35.5748 23.8829C36.473 23.0013 37.2874 22.0364 38 21L37.1736 25.0026C37.0599 25.1039 36.9521 25.2111 36.8503 25.3124C34.7305 27.3971 32.1736 28.9993 29.3653 30H26L26.2695 28.7194H26.2814ZM23.7218 12.0281C24.1012 11.628 24.5331 11.2832 25 11L23.6518 18H22.607C22.2043 17.4213 22 16.7133 22 15.9252C22 14.577 22.6012 13.1917 23.7218 12.0281Z" fill="#1B243F"/>
</g>
<defs>
<clipPath id="clip0_10_266">
<rect width="53" height="30" fill="white"/>
</clipPath>
</defs>
</svg>
