<svg width="204" height="98" viewBox="0 0 204 98" fill="none" xmlns="http://www.w3.org/2000/svg">
<mask id="mask0_421_115" style="mask-type:luminance" maskUnits="userSpaceOnUse" x="6" y="32" width="114" height="35">
<path d="M120 32H6V66.304H120V32Z" fill="white"/>
</mask>
<g mask="url(#mask0_421_115)">
<path d="M51.6209 32.4412H46.3291V65.8629H51.6209V32.4412Z" fill="#166BF4"/>
<path d="M80.2351 37.2011C78.6751 35.6714 76.8178 34.4804 74.7794 33.7021C72.5177 32.8464 70.1175 32.4186 67.7006 32.4406H55.7847V65.863H67.7006C70.1161 65.8855 72.5153 65.463 74.779 64.6167C76.8161 63.8481 78.673 62.6667 80.2347 61.1461C81.759 59.6493 82.9541 57.8491 83.7427 55.8612C84.5795 53.7333 85.0002 51.4637 84.9822 49.1764C84.9992 46.8935 84.5782 44.6285 83.7427 42.5048C82.9527 40.512 81.7583 38.706 80.2351 37.2011ZM79.6831 49.1766C79.6831 56.3118 74.7554 61.2953 67.7006 61.2953H60.9348V37.0084H67.7006C74.8674 37.0084 79.6831 41.8983 79.6831 49.1766Z" fill="#166BF4"/>
<path d="M115.308 55.8354L115.279 55.8736C112.634 59.3321 108.868 61.2368 104.675 61.2368C97.8101 61.2368 92.8274 56.2204 92.8274 49.3087C92.8274 42.3554 97.9401 37.1117 104.719 37.1117C108.746 37.1117 112.53 39.0828 115.1 42.5196L115.129 42.559L118.832 39.2077L118.86 39.1818L118.839 39.1496C117.349 36.9642 115.33 35.1943 112.971 34.0058C110.374 32.6799 107.499 31.9922 104.585 31.9997C99.9796 31.9997 95.6899 33.7082 92.5058 36.8105C90.9109 38.363 89.6465 40.2239 88.7892 42.2805C87.8686 44.5076 87.4025 46.8973 87.4181 49.3083C87.4004 51.6887 87.8571 54.0488 88.7618 56.2494C89.6021 58.2709 90.8481 60.0974 92.422 61.6151C95.5551 64.6386 99.8271 66.3033 104.452 66.3033C107.42 66.3091 110.347 65.6102 112.995 64.2636C115.373 63.0568 117.436 61.307 119.018 59.1551L119.041 59.1219L115.308 55.8347V55.8354Z" fill="#166BF4"/>
<path d="M12.5437 62.6088C14.1868 63.9805 16.0677 65.037 18.0923 65.7254C18.1814 65.7557 18.2749 65.7711 18.3691 65.7712H29.0054C29.0995 65.7711 29.193 65.7557 29.2822 65.7254C30.7021 65.243 32.0538 64.5783 33.3037 63.7479C33.3622 63.7089 33.4066 63.652 33.4304 63.5857C33.4542 63.5195 33.4561 63.4472 33.4357 63.3798C33.4155 63.3123 33.3741 63.2532 33.3177 63.2112C33.2613 63.1692 33.1929 63.1465 33.1226 63.1465H22.7719C22.3687 63.1467 21.9721 63.0449 21.6186 62.8505C21.265 62.6561 20.9662 62.3754 20.7495 62.0343C20.7103 61.973 20.6563 61.9226 20.5926 61.8878C20.5288 61.8529 20.4573 61.8346 20.3847 61.8347H12.8216C12.7319 61.8347 12.6444 61.8625 12.571 61.9143C12.4977 61.966 12.442 62.0392 12.4116 62.1239C12.3812 62.2085 12.3777 62.3005 12.4013 62.3873C12.425 62.4741 12.4746 62.5514 12.5437 62.6088Z" fill="#166BF4"/>
<path d="M34.8231 35.6952C33.2194 34.3568 31.3892 33.3182 29.4193 32.6291C29.236 32.5653 29.0433 32.533 28.8493 32.5335H18.5072C18.3137 32.5331 18.1216 32.5654 17.9388 32.6288C16.5718 33.1068 15.2697 33.7542 14.0628 34.556C14.0043 34.595 13.9598 34.6519 13.9361 34.7182C13.9123 34.7845 13.9104 34.8567 13.9307 34.9242C13.951 34.9916 13.9924 35.0507 14.0488 35.0928C14.1052 35.1348 14.1736 35.1575 14.2438 35.1575H24.5949C24.9981 35.1573 25.3948 35.2591 25.7483 35.4535C26.1018 35.6479 26.4007 35.9286 26.6173 36.2696C26.6567 36.3311 26.7108 36.3816 26.7748 36.4165C26.8387 36.4514 26.9105 36.4695 26.9833 36.4693H34.5454C34.635 36.4691 34.7224 36.4411 34.7956 36.3893C34.8688 36.3376 34.9244 36.2644 34.9547 36.1798C34.985 36.0952 34.9887 36.0033 34.9651 35.9166C34.9415 35.8299 34.892 35.7526 34.8231 35.6952Z" fill="#166BF4"/>
<path d="M41.1078 48.4684C41.1008 48.2992 41.0291 48.1393 40.9071 48.0222C40.7855 47.905 40.6231 47.8397 40.4544 47.8399H33.7135C33.5478 47.84 33.3855 47.7927 33.2456 47.7035C33.1057 47.6145 32.994 47.4872 32.9237 47.3368C32.8696 47.2246 32.7849 47.1302 32.6794 47.0644C32.5738 46.9987 32.4519 46.9643 32.3277 46.9654H7.17558C6.95578 46.9655 6.74411 47.0489 6.58292 47.1988C6.42171 47.3486 6.32281 47.554 6.30599 47.7738C6.26997 48.2284 6.25195 48.6878 6.25195 49.1519C6.25195 49.3806 6.25629 49.6085 6.26495 49.8355C6.2719 50.0046 6.34383 50.1645 6.46568 50.2817C6.58753 50.3988 6.74984 50.4641 6.91863 50.4639H13.6533C13.8189 50.4639 13.9812 50.5112 14.121 50.6003C14.2608 50.6894 14.3725 50.8166 14.4428 50.967C14.497 51.0792 14.5817 51.1737 14.6873 51.2394C14.7928 51.3051 14.9148 51.3395 15.0391 51.3384H40.1977C40.4175 51.3383 40.6292 51.2549 40.7902 51.1051C40.9517 50.9552 41.0504 50.7498 41.0674 50.53C41.1024 50.0754 41.1204 49.616 41.1208 49.1519C41.1208 48.9232 41.1168 48.6953 41.1078 48.4684Z" fill="#166BF4"/>
<path d="M29.587 42.5923C29.953 42.5921 30.3132 42.6844 30.6342 42.8607C30.9552 43.037 31.2268 43.2916 31.4238 43.601C31.4829 43.6939 31.5644 43.7703 31.6608 43.8233C31.7571 43.8763 31.8652 43.904 31.9751 43.9041H39.4042C39.51 43.904 39.6142 43.8782 39.7078 43.8288C39.8015 43.7795 39.8819 43.7081 39.942 43.6208C40.0022 43.5335 40.0403 43.4329 40.0532 43.3275C40.066 43.2222 40.0532 43.1153 40.0159 43.016C39.6155 41.9442 39.1107 40.9145 38.5088 39.942C38.4307 39.8159 38.3217 39.7119 38.1923 39.6398C38.0628 39.5678 37.9172 39.5301 37.7692 39.5303H9.58866C9.44066 39.5301 9.29503 39.5678 9.16562 39.6398C9.03618 39.7119 8.92722 39.8159 8.84906 39.942C8.47536 40.5458 8.13886 41.1721 7.84153 41.8172C7.80337 41.9005 7.7867 41.9921 7.79307 42.0836C7.79944 42.175 7.82864 42.2634 7.87799 42.3406C7.92733 42.4177 7.99523 42.4812 8.07543 42.5251C8.15564 42.5691 8.24558 42.5921 8.33697 42.5921L29.587 42.5923Z" fill="#166BF4"/>
<path d="M17.7632 55.7117C17.3972 55.7119 17.037 55.6196 16.716 55.4432C16.395 55.2669 16.1234 55.0123 15.9264 54.7029C15.8673 54.61 15.7858 54.5336 15.6894 54.4806C15.5931 54.4277 15.485 54.3999 15.3751 54.3999H7.94608C7.84028 54.4 7.73608 54.4258 7.64241 54.4751C7.54874 54.5244 7.46839 54.5958 7.40825 54.6831C7.3481 54.7704 7.30997 54.871 7.2971 54.9764C7.28423 55.0817 7.29701 55.1886 7.33435 55.2879C7.73481 56.3598 8.2396 57.3894 8.84144 58.362C8.9196 58.4881 9.02856 58.5921 9.158 58.6641C9.28743 58.7361 9.43305 58.7738 9.58108 58.7736H37.7606C37.9086 58.7738 38.0542 58.7361 38.1836 58.6641C38.3131 58.5921 38.422 58.4881 38.5002 58.362C38.8739 57.7581 39.2104 57.1319 39.5077 56.4867C39.5459 56.4034 39.5625 56.3118 39.5562 56.2204C39.5498 56.1289 39.5206 56.0405 39.4713 55.9634C39.4219 55.8862 39.354 55.8228 39.2738 55.7788C39.1936 55.7348 39.1036 55.7118 39.0123 55.7119L17.7632 55.7117Z" fill="#166BF4"/>
</g>
</svg>
