<svg xmlns="http://www.w3.org/2000/svg" width="82" height="22" viewBox="0 0 82 22"><path fill="#1B243F" d="M77.6142033,10.4724591 L82,22 C80.7072498,21.8164776 79.4151911,21.5869028 78.0988986,21.3806979 L75.6283388,15.0103415 L73.0892298,20.8541882 C71.8428713,20.6479833 70.6186703,20.5785609 69.3723118,20.4184085 L73.8280433,10.3349892 L69.7877647,0 L73.5282249,0 L75.7903654,5.77442435 L78.2145328,0 L82,0 L77.6142033,10.4724591 Z M66.8332027,0 L63.4396456,0 L63.4396456,19.9833162 C64.5475198,20.0520511 65.7017862,20.0974162 66.8332027,20.2348861 L66.8332027,0 Z M60.5072411,19.7537413 C57.4141949,19.5475365 54.3204562,19.3647015 51.1581678,19.2952792 L51.1581678,0 L54.6202747,0 L54.6202747,16.0413659 C56.6061391,16.0874184 58.5913112,16.2475708 60.5072411,16.3389884 L60.5072411,19.7537413 Z M47.4640998,7.8144781 L47.4640998,11.2519136 L42.7320922,11.2519136 L42.7320922,19.0663917 L39.3149928,19.0663917 L39.3149928,0 L49.0109691,0 L49.0109691,3.43743556 L42.7320922,3.43743556 L42.7320922,7.8144781 L47.4640998,7.8144781 Z M33.4972684,3.43743556 L33.4972684,19.2499141 C32.343002,19.2499141 31.1658857,19.2499141 30.0344692,19.2952792 L30.0344692,3.43743556 L26.4560356,3.43743556 L26.4560356,0 L37.098552,0 L37.098552,3.43743556 L33.4972684,3.43743556 Z M22.7162678,11.4347487 C21.1929407,11.4347487 19.3919528,11.4347487 18.0992021,11.504171 L18.0992021,16.6146155 C20.1307664,16.4764582 22.1623307,16.3163058 24.2167449,16.2475708 L24.2167449,19.5475365 L14.6364028,20.3043084 L14.6364028,0 L24.2167449,0 L24.2167449,3.43743556 L18.0992021,3.43743556 L18.0992021,8.06604803 C19.438345,8.06604803 21.4927592,7.99731306 22.7162678,7.99731306 L22.7162678,11.4347487 Z M3.53204139,9.51016968 L3.53204139,21.5181679 C2.28568293,21.6563252 1.17711632,21.8164776 0,22 L0,0 L3.30146507,0 L7.80289639,12.4898303 L7.80289639,0 L11.2656956,0 L11.2656956,20.5785609 C10.0421871,20.7854532 8.79582865,20.8541882 7.47953558,21.0370232 L3.53204139,9.51016968 Z"/></svg>