<svg width="75" height="75" viewBox="0 0 75 75" fill="none" xmlns="http://www.w3.org/2000/svg">
<path d="M41.2266 58.252H64.207C64.9403 58.252 65.6423 57.9943 66.2773 57.6309C66.9125 57.2675 67.5671 56.8112 67.9336 56.1816C68.3001 55.5521 68.555 54.8379 68.5547 54.1112C68.5544 53.3843 68.3007 52.6704 67.9336 52.0412L52.4062 25.334C52.0397 24.7046 51.5919 24.2481 50.9571 23.8847C50.3221 23.5214 49.4128 23.2636 48.6797 23.2636C47.9465 23.2636 47.2443 23.5214 46.6094 23.8847C45.9744 24.2481 45.5266 24.7046 45.1601 25.334L41.2266 32.1661L33.3593 18.9155C32.9925 18.2862 32.5453 17.6231 31.9102 17.2598C31.275 16.8964 30.5732 16.8457 29.8399 16.8457C29.1066 16.8457 28.4046 16.8964 27.7695 17.2598C27.1345 17.6231 26.4801 18.2862 26.1133 18.9155L6.85938 52.0412C6.49231 52.6704 6.44564 53.3843 6.44531 54.1112C6.44499 54.8379 6.49286 55.552 6.85938 56.1816C7.2259 56.811 7.88055 57.2675 8.51562 57.6309C9.1507 57.9943 9.85258 58.252 10.5859 58.252H25.0781C30.8205 58.252 35.0001 55.6761 37.9141 50.7989L44.9531 38.584L48.6797 32.1661L60.0664 51.627H44.9531L41.2266 58.252ZM24.8711 51.627H14.7265L29.8399 25.541L37.5 38.584L32.4259 47.4293C30.4909 50.5938 28.2845 51.627 24.8711 51.627Z" fill="#00DC82"/>
</svg>
