<svg width="102" height="34" viewBox="0 0 102 34" fill="none" xmlns="http://www.w3.org/2000/svg">
<path d="M7.33345 0.0927329C7.0564 0.231073 6.94866 0.507751 6.77935 1.55299C6.57926 2.75962 6.61774 3.65114 6.89479 4.41201C7.19492 5.22668 7.51045 5.40344 7.94912 5.0038C8.13382 4.8424 8.20308 4.69638 8.25695 4.33516C8.30313 4.08153 8.33391 3.728 8.33391 3.54354C8.33391 3.26686 8.357 3.22075 8.48783 3.22075C8.67253 3.22075 8.68022 3.22844 8.79566 4.08922C8.9111 4.8962 9.11119 5.21899 9.51907 5.21899C10.0116 5.21899 10.2425 4.91926 10.4503 3.95857C10.635 3.15158 10.5734 1.91421 10.3117 0.968884C10.0963 0.184958 9.98082 0.0235643 9.68068 0.10042C9.44981 0.161904 9.24202 0.546181 9.0958 1.19945C8.99575 1.62216 8.85723 1.73744 8.56478 1.64521C8.44165 1.60679 8.41087 1.52993 8.41087 1.26862C8.41087 0.815173 8.20308 0.161902 8.02607 0.0696759C7.83368 -0.0302362 7.56432 -0.0225506 7.33345 0.0927329Z" fill="white"/>
<path d="M21.9402 0.177129C21.4399 0.284727 21.2244 0.438438 21.109 0.799659C20.9859 1.16088 20.9859 4.16593 21.1013 4.59632C21.2167 5.00365 21.5631 5.37256 21.8324 5.37256C21.9402 5.37256 22.1172 5.28802 22.2326 5.1881C22.4173 5.03439 22.4481 4.94217 22.4789 4.49641L22.5096 3.98916L22.956 4.45029C23.4562 4.96522 23.8564 5.17273 24.195 5.10356C24.8107 4.96522 24.7799 4.08139 24.1335 3.23598L23.9334 2.97467L24.1873 2.77484C24.4875 2.54428 24.6491 2.18306 24.6491 1.76035C24.6491 1.29922 24.4875 0.991796 24.0411 0.592148C23.4793 0.0849013 22.8944 -0.0303807 21.9402 0.177129Z" fill="white"/>
<path d="M3.02378 0.284787C2.21571 0.499982 1.56157 0.961116 1.47691 1.37614C1.42304 1.62207 1.56926 1.91412 1.80783 2.03709C2.04641 2.16006 2.71594 2.16006 3.03147 2.03709C3.13152 1.99098 3.13922 2.05246 3.07765 2.58277C2.96221 3.64337 3.11613 4.33507 3.57788 4.81158C4.00885 5.25734 4.50138 5.09594 4.70147 4.45036C4.77073 4.24285 5.0247 2.38294 5.0247 2.12163C5.0247 2.09089 5.14013 2.06784 5.27866 2.06784C5.83276 2.06015 6.48691 1.57596 6.48691 1.16094C6.48691 0.868891 5.97898 0.415442 5.48645 0.269416C4.93235 0.10802 3.68562 0.115705 3.02378 0.284787Z" fill="white"/>
<path d="M12.128 0.192622C11.8509 0.254107 11.5123 0.653755 11.343 1.11489C11.1275 1.67593 11.0275 2.383 11.0275 3.38212C11.0275 4.45042 11.1737 4.76552 11.8278 5.10369C12.2049 5.29583 12.3819 5.33425 12.9976 5.35731C13.8518 5.39574 14.2905 5.27277 14.6137 4.88849C14.7676 4.70404 14.7984 4.60413 14.7676 4.42736C14.6753 3.98928 14.4906 3.89706 13.3208 3.75103C12.7436 3.67418 12.6436 3.64343 12.6436 3.52046C12.6436 3.40518 12.7051 3.37444 12.936 3.37444C13.621 3.37444 14.0288 3.11313 14.0288 2.67505C14.0288 2.39837 13.6517 2.08327 13.2516 2.02178C12.9668 1.97567 12.7975 1.82196 12.7975 1.61445C12.7975 1.56065 13.0438 1.52991 13.4747 1.52991C14.4521 1.52991 14.9215 1.26091 14.7599 0.784411C14.6291 0.407819 14.0904 0.207994 13.1207 0.177252C12.6667 0.169566 12.2203 0.177251 12.128 0.192622Z" fill="white"/>
<path d="M25.765 0.330845C25.6342 0.384645 25.4879 0.53067 25.4264 0.653639C25.1647 1.22237 25.1185 4.11982 25.3648 4.69624C25.5649 5.16506 26.0882 5.30339 26.396 4.96523C26.7116 4.62707 26.7578 4.27353 26.7655 2.43668V0.692066L26.5731 0.499929C26.3268 0.261677 26.0574 0.207877 25.765 0.330845Z" fill="white"/>
<path d="M31.7447 0.300129C31.6523 0.338557 31.5369 0.469211 31.4984 0.576808C31.3907 0.845803 31.2444 3.16684 31.2829 3.85854C31.306 4.34272 31.3368 4.4119 31.56 4.61172C31.8832 4.89609 32.2141 4.91146 32.3911 4.64246C32.545 4.40421 32.6836 2.62885 32.6374 1.4299C32.6143 0.753574 32.5912 0.66135 32.4219 0.499954C32.1833 0.277072 31.9755 0.215589 31.7447 0.300129Z" fill="white"/>
<path d="M17.8383 0.561275C17.061 0.922496 16.6146 1.72948 16.6146 2.79777C16.6069 3.4741 16.7455 3.83532 17.1533 4.25034C17.4689 4.56544 18.1153 4.84212 18.654 4.88824C19.2543 4.94204 19.693 4.78064 20.1008 4.33488C20.5472 3.85069 20.6703 3.52021 20.678 2.79777C20.6857 1.69873 20.2394 1.06084 19.1466 0.599703C18.5001 0.330709 18.3385 0.323023 17.8383 0.561275Z" fill="white"/>
<path d="M33.4916 0.523187C33.3069 0.669212 33.3069 0.669211 33.3069 2.46763C33.3069 3.98937 33.33 4.29679 33.43 4.48893C33.6301 4.84246 33.8456 5.00386 34.0842 4.97312C34.4228 4.93469 34.5998 4.6119 34.6537 3.94325L34.6922 3.35147L34.8615 3.65889C35.0847 4.05085 35.8081 4.73487 36.1544 4.88089C36.3853 4.97312 36.4622 4.97312 36.6315 4.89626C36.9701 4.72718 37.0702 4.31985 37.0702 3.10553C37.0702 2.20632 37.0394 1.92195 36.8855 1.37628C36.6777 0.630783 36.4468 0.315676 36.1929 0.454016C35.9312 0.592355 35.8081 0.869035 35.7465 1.46082L35.6926 2.02955L35.4848 1.67602C35.1308 1.06886 34.2381 0.377161 33.8225 0.377161C33.7379 0.377161 33.5917 0.446332 33.4916 0.523187Z" fill="white"/>
<path d="M28.3585 0.615341C27.7043 0.938134 27.3965 1.62983 27.3888 2.79804C27.3811 3.67419 27.4889 3.96624 28.0122 4.4658C28.3893 4.83471 28.8125 5.00379 29.3436 5.01147C29.813 5.01147 30.1208 4.88851 30.4364 4.55034C30.7211 4.25061 30.8135 3.95856 30.8212 3.38982C30.8212 2.99018 30.7904 2.86721 30.6518 2.72118C30.3594 2.41376 29.4667 2.31385 29.1896 2.56747C28.9895 2.74424 28.9895 3.03629 29.1896 3.15926C29.3974 3.28991 29.382 3.37445 29.1512 3.37445C28.851 3.37445 28.6509 3.12083 28.6509 2.73655C28.6509 2.29079 28.8895 2.06022 29.3974 2.01411C29.9669 1.96031 30.1054 1.92188 30.2671 1.76049C30.598 1.43001 30.3671 0.784424 29.8361 0.561543C29.4436 0.400147 28.751 0.423203 28.3585 0.615341Z" fill="white"/>
<path d="M38.5016 0.668855C37.809 1.0147 37.3549 2.90535 37.6935 4.04281C37.8167 4.46552 38.2323 4.91128 38.5016 4.91128C38.7941 4.91128 39.0403 4.59617 39.1173 4.11198C39.1558 3.86604 39.2019 3.65085 39.2096 3.64316C39.225 3.62779 39.3712 3.59705 39.5482 3.57399L39.8561 3.52019L39.9484 3.9967C40.0946 4.77294 40.4256 5.12647 40.9258 5.03425C41.3568 4.94971 41.503 4.64228 41.503 3.81993C41.503 3.11286 41.3568 2.18291 41.1721 1.74483C41.0028 1.3375 40.5795 0.907108 40.1562 0.714969C39.6714 0.484403 38.9018 0.461345 38.5016 0.668855Z" fill="white"/>
<path d="M42.2418 0.70738C42.0032 0.945632 41.9263 1.45288 41.9263 2.8747C41.934 4.48867 42.111 4.71924 43.3115 4.71924C44.5044 4.71155 45.4279 4.31959 45.4279 3.82003C45.4279 3.32815 44.943 3.01305 44.0426 2.92851L43.5424 2.8747L43.5732 2.02161C43.5886 1.47594 43.5655 1.10703 43.5116 1.00712C43.4039 0.807292 43.1037 0.63821 42.7189 0.56904C42.4804 0.522927 42.4034 0.545983 42.2418 0.70738Z" fill="white"/>
<path d="M74.4412 8.98471C73.787 9.01546 73.0559 9.0462 72.8174 9.05388L72.3864 9.06157L72.3325 9.63799L72.2787 10.2144L73.3715 12.6507C74.4104 14.9794 77.3733 21.8657 77.8274 23.0108C77.9813 23.4028 78.0659 23.7948 78.1275 24.4711C78.2506 25.793 78.4199 28.7135 78.5354 31.4035L78.6277 33.7322H82.037H85.4462L85.4385 32.7484C85.4385 32.2104 85.3924 29.8894 85.3385 27.5837L85.2461 23.3951L86.085 21.7812C88.3091 17.5157 89.0171 16.14 90.1484 13.8881C90.8256 12.5431 91.372 11.4287 91.372 11.4057C91.372 11.3826 89.879 11.3672 88.0551 11.3672L84.7459 11.3672L84.2996 12.3049C84.0533 12.8275 83.4068 14.2647 82.8604 15.4944C82.314 16.7317 81.8446 17.7462 81.8215 17.7462C81.7599 17.7462 79.3819 13.1272 78.2352 10.7754L77.3271 8.91554L76.4806 8.92323C76.0188 8.93092 75.0953 8.96166 74.4412 8.98471Z" fill="white"/>
<path d="M30.8442 11.3058C29.2897 14.1649 25.9112 19.8983 22.2403 25.9161C17.7382 33.2865 17.9999 32.8254 18.0615 33.2481C18.0845 33.4402 18.1153 33.617 18.1307 33.6247C18.1692 33.6708 30.1593 33.5017 30.598 33.4556L31.0366 33.4095V30.8809C31.0366 29.4822 31.0674 28.3524 31.1059 28.3524C31.1444 28.3524 31.2136 28.46 31.2675 28.583C31.3214 28.7136 31.4907 29.0133 31.6446 29.2593L31.9217 29.6974L31.9601 31.5803L31.9986 33.4633H32.2295C33.2684 33.4633 42.7805 33.3249 42.7959 33.3096C42.8344 33.2711 41.934 30.8041 40.6564 27.4686C39.0865 23.3722 35.9312 14.9488 34.7691 11.7516C34.3151 10.5065 33.9149 9.45363 33.8764 9.4152C33.8148 9.34603 32.4758 9.06935 32.1833 9.06167C32.1064 9.06167 31.6523 9.82253 30.8442 11.3058ZM31.7908 20.4747C32.4373 20.7975 32.9298 21.274 33.2607 21.8888C33.3916 22.1425 33.4993 22.3653 33.4993 22.3884C33.4993 22.4115 33.2915 22.4345 33.0299 22.4345H32.5681L32.622 22.9725C32.6528 23.303 32.6451 23.5105 32.5989 23.5105C32.445 23.5105 31.6061 22.911 31.3291 22.6036C30.8289 22.0426 30.7442 21.8043 30.7904 20.9512L30.8212 20.2057H31.0366C31.1521 20.2057 31.4907 20.3287 31.7908 20.4747ZM30.9443 22.9648C31.1059 23.0647 30.9443 24.1253 30.698 24.5404C30.3517 25.1321 29.5129 25.7009 28.851 25.7854C28.497 25.8392 28.497 25.8315 28.497 25.6163C28.5047 25.3243 28.6817 24.8478 28.851 24.6556C28.9819 24.5096 28.9742 24.5096 28.5278 24.5096C28.2815 24.5096 27.9968 24.4866 27.9044 24.4635C27.7274 24.4174 27.7351 24.4097 27.9814 24.0715C28.2661 23.6719 28.7433 23.2569 29.0742 23.1185C29.5283 22.9341 30.7365 22.8342 30.9443 22.9648ZM32.7528 24.0408C33.507 24.3021 34.2073 24.7248 34.569 25.1321C34.7537 25.3397 34.8846 25.5395 34.8538 25.5625C34.8307 25.5933 34.4767 25.6163 34.0765 25.6163C33.6763 25.624 33.3454 25.6394 33.3454 25.6624C33.3454 25.6855 33.4454 25.7624 33.5686 25.8392C33.7148 25.9238 33.8687 26.139 33.9918 26.4003C34.0996 26.6385 34.1919 26.8383 34.1919 26.846C34.1919 26.8537 33.938 26.8383 33.6378 26.7999C33.0145 26.7231 32.4527 26.4771 32.0602 26.1005C31.7062 25.77 31.3445 24.8632 31.3445 24.3252V23.8948H31.8293C32.1141 23.8948 32.5065 23.9563 32.7528 24.0408ZM31.2213 25.9622C31.3368 26.0928 31.3445 26.162 31.2675 26.5924C31.052 27.7913 30.7211 28.2986 29.8592 28.7674C29.5052 28.9596 29.1896 29.1209 29.1589 29.1209C29.1358 29.1209 29.1127 28.8673 29.1127 28.5522V27.9912L28.4816 28.2448C28.1276 28.3908 27.7967 28.5061 27.7505 28.5061C27.5581 28.5061 27.6428 27.9374 27.9044 27.3917C28.1815 26.823 28.574 26.4156 29.0126 26.2235C29.2204 26.139 30.6595 25.8469 31.0059 25.8238C31.052 25.8162 31.1521 25.8853 31.2213 25.9622ZM32.3065 26.8153C32.4758 26.8614 32.8836 27.0074 33.2146 27.1458C33.7379 27.361 33.8995 27.4762 34.469 28.0603C34.823 28.4292 35.1154 28.7674 35.1154 28.8212C35.1154 28.875 34.8923 28.8981 34.392 28.875C33.7456 28.852 33.6763 28.8673 33.7687 28.9672C33.9226 29.1363 34.2689 29.9049 34.2689 30.074C34.2689 30.1969 34.2304 30.2046 33.9841 30.1585C33.4762 30.0663 32.3142 29.4745 32.1218 29.2132C31.737 28.6752 31.5446 27.8759 31.6215 27.1842C31.6754 26.6846 31.7139 26.6693 32.3065 26.8153Z" fill="white"/>
<path d="M8.87262 9.40742C6.98714 9.63799 6.41764 9.81475 4.67838 10.6832L3.44705 11.3057L3.04687 11.8514C1.56157 13.9342 0.838159 15.602 0.330234 18.1151C-0.0776461 20.1826 -0.100734 21.0895 0.222492 23.0493C0.368713 23.9101 0.907422 25.6239 1.29221 26.4155C1.89249 27.6606 3.02378 28.9441 4.6399 30.1891C5.52493 30.8732 6.10981 31.2036 7.21032 31.634C8.51861 32.149 9.00345 32.2642 10.5888 32.3949C12.0125 32.5102 12.0433 32.5102 12.7436 32.3488C13.1361 32.2566 13.6979 32.1182 13.9904 32.026C14.8369 31.7801 17.0379 30.4581 18.1846 29.5128C18.5001 29.2515 18.9388 28.8903 19.162 28.7135C19.6776 28.3062 20.7242 26.6 21.286 25.2627L21.6785 24.3174L21.7093 22.5497C21.7401 20.5054 21.6477 19.5908 21.186 17.362C20.9243 16.0938 20.8397 15.8172 20.3856 14.8027C19.5083 12.8352 19.3928 12.6507 18.9003 12.2664C17.8537 11.4748 17.1072 11.0444 15.7604 10.4834C15.0062 10.1606 14.1751 9.85318 13.9288 9.78401C12.2511 9.35362 10.4272 9.21528 8.87262 9.40742Z" fill="white"/>
<path d="M94.2657 9.99143C94.2426 10.2604 94.2041 11.2057 94.181 12.0973C94.1579 12.9811 94.0502 16.3013 93.9501 19.4677C93.8424 22.6342 93.7654 25.2396 93.7808 25.2549C93.8424 25.3087 101.407 25.6623 101.454 25.6085C101.484 25.57 101.615 24.4018 101.754 23.0107L102 20.4745L101.838 18.899C101.561 16.186 101.223 11.4824 101.223 10.2989V9.8454L100.746 9.79929C100.476 9.77623 99.4142 9.72243 98.3753 9.67632C97.3363 9.63789 95.9972 9.57641 95.397 9.55335L94.3118 9.50724L94.2657 9.99143Z" fill="white"/>
<path d="M59.6036 10.03C59.4266 10.9062 59.365 12.0436 59.3573 14.1725C59.3573 15.3561 59.2958 17.4312 59.2188 18.7839C59.1419 20.1365 59.0726 21.3816 59.0726 21.5506C59.0649 21.7197 58.9956 23.0186 58.911 24.4327C58.8263 25.8469 58.7725 27.0228 58.7878 27.0381C58.834 27.0842 58.9725 26.6615 59.2496 25.6624L59.5113 24.7017L59.4728 26.6231C59.4574 27.676 59.4266 29.5282 59.4189 30.7349L59.3958 32.9253L65.8603 32.9483C69.4158 32.9637 73.0636 32.9483 73.9717 32.9176L75.6187 32.8715L75.5648 31.0116C75.5032 29.0748 75.4263 27.8528 75.3647 27.7913C75.3416 27.7759 74.7182 27.7836 73.9794 27.8144C72.3941 27.8835 67.1071 27.8144 66.9685 27.7298C66.9147 27.6991 66.8454 27.4685 66.8146 27.2226C66.6684 26.039 66.7915 19.6369 67.0224 16.5935C67.2148 14.1033 67.1994 12.3587 66.9839 10.9062C66.8839 10.2529 66.7992 9.70722 66.7915 9.69953C66.7761 9.68416 65.1831 9.65342 63.2284 9.63036L59.6883 9.57656L59.6036 10.03Z" fill="white"/>
<path d="M55.3555 9.75341C54.4859 9.78415 52.685 9.8149 51.3537 9.82258C47.3595 9.83795 38.0553 10.1531 37.9552 10.276C37.909 10.3375 38.0706 17.339 38.1168 17.3928C38.1399 17.4082 39.756 17.4466 41.7108 17.4774C43.6578 17.5081 45.3047 17.5619 45.3663 17.6004C45.5125 17.6926 45.551 23.8257 45.4279 26.2005C45.374 27.1535 45.3201 29.1748 45.297 30.7042L45.2586 33.4787L46.3206 33.5248C46.8978 33.5556 48.3369 33.5786 49.5067 33.5786H51.6461L51.6923 32.787C51.7231 32.3566 51.7615 29.3592 51.7846 26.1236C51.8308 19.2604 51.8308 19.1375 51.7692 18.6225L51.7231 18.2229L52.2464 18.1768C52.5388 18.1537 53.6778 18.0999 54.7783 18.0538C55.8788 18.0077 56.9639 17.9539 57.1948 17.9308L57.6027 17.8847L57.5719 16.0018L57.5411 14.1111L57.7643 14.3724L57.9875 14.6337L57.9413 13.1043C57.9182 12.2589 57.8951 11.1445 57.8951 10.6219V9.67656L57.418 9.69193C57.1486 9.69961 56.2251 9.73036 55.3555 9.75341Z" fill="white"/>
<path d="M95.9357 26.2697C95.2507 26.5157 95.0584 26.631 94.3042 27.2228C93.5961 27.7838 93.4422 27.9529 93.3807 28.1834C93.1036 29.2517 93.0651 29.4823 93.0651 30.1971V30.981L93.727 31.7265C94.5196 32.6026 94.7967 32.8332 95.4124 33.1176L95.8818 33.3328L96.7206 33.1867C97.6826 33.01 98.7754 32.6718 99.3295 32.3644L99.7143 32.1569L99.9221 31.273C100.099 30.566 100.138 30.2047 100.145 29.4592V28.5216L99.7836 27.8069C99.3065 26.8769 99.1217 26.7386 97.8288 26.3082C97.2594 26.1237 96.7822 25.9777 96.7591 25.9777C96.736 25.9854 96.3666 26.116 95.9357 26.2697Z" fill="white"/>
</svg>
