<svg width="115" height="38" viewBox="0 0 115 38" fill="none" xmlns="http://www.w3.org/2000/svg">
<g clip-path="url(#clip0_10_281)">
<path d="M8.2681 0.104359C7.95574 0.260201 7.83427 0.571884 7.64338 1.74936C7.41779 3.10865 7.46117 4.11297 7.77353 4.9701C8.11192 5.88784 8.46767 6.08697 8.96224 5.63676C9.17048 5.45494 9.24857 5.29044 9.30931 4.88352C9.36137 4.59781 9.39607 4.19955 9.39607 3.99176C9.39607 3.68007 9.4221 3.62812 9.56961 3.62812C9.77785 3.62812 9.78652 3.63678 9.91667 4.60647C10.0468 5.51555 10.2724 5.87918 10.7323 5.87918C11.2876 5.87918 11.5479 5.54152 11.7822 4.45929C11.9904 3.55021 11.921 2.15628 11.626 1.09136C11.383 0.208252 11.2529 0.0264387 10.9145 0.113018C10.6542 0.182281 10.4199 0.615175 10.2551 1.3511C10.1423 1.82728 9.98609 1.95715 9.65637 1.85326C9.51755 1.80997 9.48284 1.72338 9.48284 1.42902C9.48284 0.9182 9.24857 0.182279 9.04901 0.0783844C8.83209 -0.0341682 8.5284 -0.0255098 8.2681 0.104359Z" fill="black"/>
<path d="M24.7365 0.199596C24.1725 0.320807 23.9295 0.493965 23.7994 0.900887C23.6605 1.30781 23.6605 4.69305 23.7907 5.17789C23.9208 5.63676 24.3113 6.05234 24.615 6.05234C24.7365 6.05234 24.936 5.9571 25.0662 5.84455C25.2744 5.67139 25.3091 5.5675 25.3438 5.06534L25.3785 4.49392L25.8818 5.01339C26.4458 5.59347 26.8969 5.82723 27.2787 5.74931C27.9729 5.59347 27.9381 4.59781 27.2093 3.64544L26.9837 3.35107L27.27 3.12597C27.6084 2.86623 27.7906 2.45931 27.7906 1.98312C27.7906 1.46365 27.6084 1.11733 27.1052 0.667122C26.4718 0.0957003 25.8124 -0.0341668 24.7365 0.199596Z" fill="black"/>
<path d="M3.40916 0.320794C2.49811 0.563215 1.76059 1.08269 1.66515 1.55022C1.60441 1.82727 1.76927 2.15627 2.03825 2.2948C2.30722 2.43332 3.06209 2.43332 3.41784 2.2948C3.53064 2.24285 3.53931 2.31211 3.4699 2.90951C3.33975 4.1043 3.51328 4.88351 4.03388 5.4203C4.51978 5.92246 5.07508 5.74064 5.30068 5.01338C5.37877 4.77962 5.6651 2.6844 5.6651 2.39003C5.6651 2.3554 5.79525 2.32943 5.95143 2.32943C6.57615 2.32077 7.31367 1.77532 7.31367 1.3078C7.31367 0.978797 6.74101 0.467979 6.1857 0.303479C5.56098 0.121663 4.15536 0.130321 3.40916 0.320794Z" fill="black"/>
<path d="M13.6737 0.21691C13.3613 0.286173 12.9795 0.736384 12.7887 1.25586C12.5457 1.88789 12.4329 2.68441 12.4329 3.80994C12.4329 5.01339 12.5978 5.36836 13.3353 5.74931C13.7604 5.96576 13.96 6.00905 14.6541 6.03502C15.6173 6.07831 16.1118 5.93978 16.4762 5.50689C16.6498 5.2991 16.6845 5.18655 16.6498 4.98741C16.5457 4.49391 16.3374 4.39002 15.0186 4.22552C14.3678 4.13894 14.255 4.10431 14.255 3.96578C14.255 3.83591 14.3244 3.80128 14.5847 3.80128C15.357 3.80128 15.8168 3.50691 15.8168 3.01341C15.8168 2.70173 15.3917 2.34676 14.9405 2.27749C14.6194 2.22554 14.4285 2.05239 14.4285 1.81862C14.4285 1.75802 14.7062 1.72338 15.1921 1.72338C16.294 1.72338 16.8233 1.42036 16.6411 0.883571C16.4936 0.459333 15.8862 0.234227 14.793 0.199595C14.281 0.190938 13.7778 0.199594 13.6737 0.21691Z" fill="black"/>
<path d="M29.0488 0.372759C28.9013 0.433364 28.7364 0.597865 28.667 0.736391C28.372 1.37708 28.3199 4.64111 28.5976 5.29045C28.8232 5.81858 29.4132 5.97442 29.7603 5.59347C30.116 5.21253 30.1681 4.81426 30.1767 2.74502V0.77968L29.9598 0.563234C29.6822 0.294839 29.3785 0.234232 29.0488 0.372759Z" fill="black"/>
<path d="M35.7905 0.33812C35.6864 0.381409 35.5563 0.528593 35.5129 0.649803C35.3914 0.95283 35.2266 3.56751 35.2699 4.34673C35.296 4.89217 35.3307 4.9701 35.5823 5.1952C35.9467 5.51554 36.3198 5.53286 36.5194 5.22983C36.6929 4.96144 36.8491 2.96146 36.797 1.61083C36.771 0.848933 36.745 0.745041 36.5541 0.563225C36.2851 0.312146 36.0508 0.242883 35.7905 0.33812Z" fill="black"/>
<path d="M20.1118 0.632484C19.2354 1.03941 18.7322 1.94848 18.7322 3.15193C18.7235 3.91383 18.8797 4.32075 19.3396 4.78828C19.6953 5.14325 20.4241 5.45493 21.0315 5.50688C21.7083 5.56749 22.2029 5.38567 22.6627 4.88351C23.166 4.33807 23.3048 3.96577 23.3135 3.15193C23.3222 1.91385 22.8189 1.19525 21.5868 0.675773C20.858 0.372746 20.6758 0.364089 20.1118 0.632484Z" fill="black"/>
<path d="M37.7602 0.589213C37.5519 0.753713 37.5519 0.753712 37.5519 2.77966C37.5519 4.49393 37.5779 4.84024 37.6907 5.05669C37.9163 5.45495 38.1593 5.63677 38.4283 5.60214C38.81 5.55885 39.0096 5.19521 39.0703 4.44198L39.1137 3.77532L39.3046 4.12163C39.5562 4.56319 40.3718 5.33374 40.7623 5.49824C41.0226 5.60214 41.1094 5.60214 41.3002 5.51556C41.682 5.32508 41.7948 4.86622 41.7948 3.49827C41.7948 2.48529 41.7601 2.16495 41.5866 1.55024C41.3523 0.710422 41.092 0.355448 40.8057 0.51129C40.5107 0.667132 40.3718 0.978817 40.3024 1.64548L40.2417 2.28616L40.0074 1.8879C39.6083 1.20392 38.6018 0.424712 38.1333 0.424712C38.0378 0.424712 37.873 0.502634 37.7602 0.589213Z" fill="black"/>
<path d="M31.9728 0.693096C31.2353 1.05673 30.8882 1.83594 30.8795 3.15194C30.8709 4.13894 30.9923 4.46794 31.5824 5.0307C32.0075 5.44628 32.4847 5.63676 33.0834 5.64542C33.6127 5.64542 33.9598 5.50689 34.3155 5.12594C34.6365 4.78828 34.7407 4.45928 34.7493 3.8186C34.7493 3.36839 34.7146 3.22986 34.5585 3.06536C34.2287 2.71904 33.2223 2.60649 32.9099 2.8922C32.6843 3.09134 32.6843 3.42033 32.9099 3.55886C33.1442 3.70605 33.1268 3.80128 32.8665 3.80128C32.5281 3.80128 32.3025 3.51557 32.3025 3.08268C32.3025 2.58052 32.5715 2.32078 33.1442 2.26883C33.7862 2.20823 33.9424 2.16494 34.1246 1.98312C34.4977 1.61083 34.2374 0.883571 33.6387 0.632492C33.1962 0.450676 32.4153 0.476648 31.9728 0.693096Z" fill="black"/>
<path d="M43.4087 0.75369C42.6278 1.1433 42.1159 3.27314 42.4976 4.55451C42.6365 5.03069 43.105 5.53285 43.4087 5.53285C43.7384 5.53285 44.016 5.17788 44.1028 4.63243C44.1462 4.35538 44.1983 4.11296 44.2069 4.1043C44.2243 4.08698 44.3891 4.05235 44.5887 4.02638L44.9358 3.96577L45.0399 4.50256C45.2048 5.37701 45.5779 5.77527 46.1418 5.67138C46.6277 5.57614 46.7926 5.22983 46.7926 4.30343C46.7926 3.5069 46.6277 2.4593 46.4195 1.9658C46.2286 1.50693 45.7514 1.02209 45.2742 0.805638C44.7275 0.545901 43.8599 0.519927 43.4087 0.75369Z" fill="black"/>
<path d="M47.6255 0.796978C47.3566 1.06537 47.2698 1.63679 47.2698 3.23851C47.2785 5.05667 47.478 5.31641 48.8316 5.31641C50.1765 5.30775 51.2177 4.86619 51.2177 4.30343C51.2177 3.74932 50.6711 3.39435 49.6559 3.29911L49.0919 3.23851L49.1266 2.27748C49.144 1.66277 49.1179 1.24719 49.0572 1.13464C48.9357 0.909531 48.5973 0.719058 48.1635 0.641136C47.8945 0.589189 47.8078 0.615162 47.6255 0.796978Z" fill="black"/>
<path d="M83.9288 10.1216C83.1913 10.1562 82.367 10.1908 82.098 10.1995L81.6121 10.2081L81.5514 10.8575L81.4906 11.5068L82.7227 14.2514C83.8941 16.8747 87.2346 24.6322 87.7465 25.9222C87.9201 26.3638 88.0155 26.8053 88.0849 27.5672C88.2237 29.0564 88.4146 32.3464 88.5448 35.3767L88.6489 38H92.4927H96.3364L96.3278 36.8918C96.3278 36.2857 96.2757 33.671 96.215 31.0737L96.1109 26.3551L97.0566 24.537C99.5642 19.7318 100.362 18.1821 101.638 15.6453C102.401 14.1302 103.018 12.8748 103.018 12.8488C103.018 12.8228 101.334 12.8055 99.2778 12.8055L95.5469 12.8055L95.0436 13.8618C94.766 14.4505 94.0371 16.0695 93.4211 17.4548C92.805 18.8487 92.2758 19.9916 92.2497 19.9916C92.1803 19.9916 89.4992 14.7882 88.2064 12.1388L87.1825 10.0436L86.2281 10.0523C85.7075 10.0609 84.6663 10.0956 83.9288 10.1216Z" fill="black"/>
<path d="M34.7754 12.7362C33.0227 15.957 29.2136 22.4158 25.0748 29.1949C19.999 37.4978 20.294 36.9784 20.3634 37.4545C20.3894 37.671 20.4241 37.8701 20.4415 37.8788C20.4849 37.9307 34.0032 37.7402 34.4977 37.6883L34.9923 37.6364V34.7879C34.9923 33.2122 35.027 31.9395 35.0704 31.9395C35.1138 31.9395 35.1919 32.0607 35.2526 32.1992C35.3133 32.3464 35.5042 32.684 35.6778 32.9611L35.9901 33.4546L36.0335 35.5758L36.0769 37.697H36.3372C37.5085 37.697 48.2329 37.5411 48.2503 37.5238C48.2936 37.4805 47.2785 34.7013 45.8382 30.9438C44.0681 26.3291 40.5107 16.8401 39.2005 13.2384C38.6886 11.8358 38.2374 10.6497 38.194 10.6064C38.1246 10.5285 36.6148 10.2168 36.2851 10.2081C36.1984 10.2081 35.6864 11.0653 34.7754 12.7362ZM35.8426 23.0651C36.5715 23.4287 37.1268 23.9655 37.4999 24.6582C37.6474 24.9439 37.7688 25.1949 37.7688 25.2209C37.7688 25.2469 37.5346 25.2729 37.2396 25.2729H36.719L36.7797 25.8789C36.8144 26.2512 36.8057 26.485 36.7537 26.485C36.5801 26.485 35.6344 25.8097 35.322 25.4633C34.758 24.8313 34.6626 24.5629 34.7146 23.6019L34.7493 22.7621H34.9923C35.1224 22.7621 35.5042 22.9006 35.8426 23.0651ZM34.8882 25.8703C35.0704 25.9828 34.8882 27.1776 34.6105 27.6451C34.2201 28.3118 33.2743 28.9525 32.5281 29.0477C32.129 29.1083 32.129 29.0997 32.129 28.8572C32.1377 28.5282 32.3372 27.9915 32.5281 27.775C32.6756 27.6105 32.6669 27.6105 32.1637 27.6105C31.886 27.6105 31.565 27.5845 31.4609 27.5586C31.2613 27.5066 31.27 27.498 31.5477 27.117C31.8687 26.6668 32.4066 26.1993 32.7797 26.0434C33.2917 25.8356 34.6539 25.7231 34.8882 25.8703ZM36.9272 27.0824C37.7775 27.3767 38.5671 27.8529 38.9749 28.3118C39.1831 28.5456 39.3306 28.7707 39.2959 28.7966C39.2699 28.8313 38.8708 28.8572 38.4196 28.8572C37.9684 28.8659 37.5953 28.8832 37.5953 28.9092C37.5953 28.9352 37.7081 29.0217 37.8469 29.1083C38.0118 29.2036 38.1853 29.446 38.3241 29.7403C38.4456 30.0087 38.5497 30.2338 38.5497 30.2425C38.5497 30.2512 38.2634 30.2338 37.925 30.1906C37.2222 30.104 36.5888 29.8269 36.1463 29.4027C35.7472 29.0304 35.3394 28.0088 35.3394 27.4027V26.9179H35.886C36.207 26.9179 36.6495 26.9871 36.9272 27.0824ZM35.2005 29.2468C35.3307 29.394 35.3394 29.472 35.2526 29.9568C35.0096 31.3074 34.6365 31.8788 33.6648 32.407C33.2656 32.6234 32.9099 32.8052 32.8752 32.8052C32.8492 32.8052 32.8231 32.5195 32.8231 32.1646V31.5325L32.1116 31.8182C31.7125 31.9827 31.3394 32.1126 31.2873 32.1126C31.0704 32.1126 31.1659 31.4719 31.4609 30.8572C31.7732 30.2165 32.2158 29.7577 32.7103 29.5412C32.9446 29.446 34.5671 29.117 34.9576 29.091C35.0096 29.0823 35.1224 29.1603 35.2005 29.2468ZM36.4239 30.2079C36.6148 30.2598 37.0747 30.4243 37.4478 30.5802C38.0378 30.8226 38.22 30.9525 38.8621 31.6105C39.2612 32.026 39.5909 32.407 39.5909 32.4676C39.5909 32.5282 39.3393 32.5542 38.7753 32.5282C38.0465 32.5022 37.9684 32.5195 38.0725 32.6321C38.2461 32.8226 38.6365 33.6884 38.6365 33.8788C38.6365 34.0174 38.5931 34.026 38.3155 33.9741C37.7428 33.8702 36.4326 33.2035 36.2157 32.9091C35.7819 32.3031 35.565 31.4027 35.6517 30.6235C35.7125 30.0607 35.7558 30.0434 36.4239 30.2079Z" fill="black"/>
<path d="M10.0034 10.5977C7.87765 10.8575 7.23558 11.0566 5.27465 12.0349L3.88638 12.7362L3.43519 13.3509C1.76059 15.6972 0.944983 17.576 0.372322 20.4071C-0.0875421 22.7361 -0.113572 23.7577 0.250849 25.9655C0.415706 26.9352 1.02307 28.8659 1.45691 29.7577C2.13369 31.1602 3.40916 32.6061 5.23127 34.0087C6.22908 34.7792 6.88851 35.1515 8.12928 35.6364C9.60431 36.2165 10.1509 36.3463 11.9383 36.4935C13.5435 36.6234 13.5782 36.6234 14.3678 36.4416C14.8103 36.3377 15.4437 36.1818 15.7734 36.0779C16.7279 35.8009 19.2094 34.3117 20.5022 33.2468C20.858 32.9524 21.3525 32.5455 21.6042 32.3464C22.1855 31.8875 23.3655 29.9655 23.9989 28.459L24.4414 27.3941L24.4762 25.4027C24.5109 23.0997 24.4067 22.0694 23.8861 19.5587C23.5911 18.1301 23.4957 17.8184 22.9838 16.6756C21.9946 14.4591 21.8645 14.2514 21.3092 13.8185C20.1291 12.9267 19.2875 12.4419 17.7691 11.8098C16.9188 11.4462 15.9817 11.0999 15.704 11.022C13.8125 10.5371 11.7561 10.3813 10.0034 10.5977Z" fill="black"/>
<path d="M106.28 11.2557C106.254 11.5588 106.211 12.6237 106.184 13.628C106.158 14.6237 106.037 18.3639 105.924 21.9309C105.803 25.498 105.716 28.433 105.733 28.4503C105.803 28.5109 114.332 28.9092 114.384 28.8486C114.419 28.8053 114.566 27.4893 114.722 25.9222L115 23.0651L114.818 21.2903C114.505 18.234 114.124 12.9354 114.124 11.6021V11.0912L113.586 11.0393C113.282 11.0133 112.085 10.9527 110.913 10.9008C109.742 10.8575 108.232 10.7882 107.555 10.7622L106.332 10.7103L106.28 11.2557Z" fill="black"/>
<path d="M67.2001 11.299C67.0006 12.286 66.9312 13.5674 66.9225 15.9656C66.9225 17.299 66.8531 19.6366 66.7663 21.1604C66.6795 22.6842 66.6015 24.0868 66.6015 24.2772C66.5928 24.4677 66.5147 25.9309 66.4192 27.5239C66.3238 29.117 66.2631 30.4417 66.2804 30.459C66.3325 30.5109 66.4887 30.0347 66.801 28.9092L67.096 27.827L67.0526 29.9914C67.0353 31.1776 67.0006 33.2641 66.9919 34.6234L66.9659 37.0909L74.2543 37.1169C78.2629 37.1342 82.3757 37.1169 83.3995 37.0823L85.2563 37.0303L85.1956 34.9351C85.1262 32.7533 85.0394 31.3767 84.97 31.3074C84.944 31.2901 84.2412 31.2988 83.4082 31.3334C81.6208 31.4113 75.6599 31.3334 75.5037 31.2382C75.443 31.2035 75.3649 30.9438 75.3302 30.6668C75.1653 29.3334 75.3042 22.1214 75.5645 18.6929C75.7814 15.8877 75.764 13.9224 75.5211 12.286C75.4083 11.5501 75.3128 10.9354 75.3042 10.9267C75.2868 10.9094 73.4907 10.8748 71.2869 10.8488L67.2956 10.7882L67.2001 11.299Z" fill="black"/>
<path d="M62.4106 10.9873C61.4302 11.022 59.3998 11.0566 57.8987 11.0653C53.3955 11.0826 42.9054 11.4376 42.7926 11.5761C42.7406 11.6453 42.9228 19.5327 42.9748 19.5933C43.0009 19.6106 44.823 19.6539 47.0269 19.6885C49.2221 19.7232 51.0789 19.7838 51.1483 19.8271C51.3131 19.931 51.3565 26.84 51.2177 29.5153C51.157 30.5888 51.0962 32.8659 51.0702 34.5888L51.0268 37.7143L52.2242 37.7662C52.8749 37.8009 54.4975 37.8268 55.8163 37.8268H58.2285L58.2805 36.9351C58.3152 36.4502 58.3586 33.0737 58.3846 29.4287C58.4367 21.6972 58.4367 21.5586 58.3673 20.9786L58.3152 20.5284L58.9052 20.4764C59.235 20.4504 60.5191 20.3898 61.7599 20.3379C63.0006 20.2859 64.224 20.2253 64.4843 20.1994L64.9442 20.1474L64.9095 18.0262L64.8748 15.8964L65.1264 16.1907L65.378 16.4851L65.326 14.7622C65.3 13.8098 65.2739 12.5544 65.2739 11.9657V10.9008L64.736 10.9181C64.4323 10.9267 63.3911 10.9614 62.4106 10.9873Z" fill="black"/>
<path d="M108.163 29.5932C107.391 29.8702 107.174 30.0001 106.323 30.6667C105.525 31.2988 105.352 31.4892 105.282 31.749C104.97 32.9524 104.926 33.2122 104.926 34.0173V34.9005L105.673 35.7403C106.566 36.7273 106.879 36.987 107.573 37.3074L108.102 37.5498L109.048 37.3853C110.132 37.1861 111.364 36.8052 111.989 36.4589L112.423 36.2251L112.657 35.2295C112.857 34.4329 112.9 34.026 112.909 33.1862V32.1299L112.501 31.3247C111.963 30.2771 111.755 30.1213 110.297 29.6365C109.655 29.4287 109.117 29.2642 109.091 29.2642C109.065 29.2728 108.649 29.42 108.163 29.5932Z" fill="black"/>
</g>
<defs>
<clipPath id="clip0_10_281">
<rect width="115" height="38" fill="white"/>
</clipPath>
</defs>
</svg>
