<svg width="222" height="41" viewBox="0 0 222 41" fill="none" xmlns="http://www.w3.org/2000/svg">
<path d="M22.7145 18.5373C22.7145 23.15 19.2043 26.8893 13.7665 26.8893C8.82466 26.8893 5 23.2631 5 18.6505C5 13.7989 8.9156 10.4113 13.8574 10.4113C18.7992 10.4113 22.7145 13.9247 22.7145 18.5373ZM13.8572 23.7803C16.7912 23.7803 18.8818 21.4835 18.8818 18.6503C18.8818 15.817 17.0077 13.5203 13.8572 13.5203C10.7687 13.5203 8.83266 15.8171 8.83266 18.6503C8.83266 21.4836 10.9028 23.7803 13.8572 23.7803ZM65.6547 18.5373C65.6547 23.15 62.1446 26.8893 56.7068 26.8893C51.7649 26.8893 47.9403 23.2631 47.9403 18.6505C47.9403 13.7989 51.8558 10.4113 56.7977 10.4113C61.7395 10.4113 65.6547 13.9247 65.6547 18.5373ZM56.7975 23.7803C59.7315 23.7803 61.8221 21.4835 61.8221 18.6503C61.8221 15.817 59.948 13.5203 56.7975 13.5203C53.7091 13.5203 51.773 15.817 51.773 18.6503C51.773 21.4835 53.8431 23.7803 56.7975 23.7803ZM85.1936 20.1798C85.1936 20.1798 85.1945 13.8671 85.1936 12.2346C85.504 9.95032 88.8384 11.1757 88.8384 11.1757V19.692V19.6889C88.8384 22.3462 90.7225 23.6447 93.0465 23.6447C95.3705 23.6447 97.2545 22.3909 97.2545 19.6889C97.2545 19.6889 97.265 13.8721 97.2644 12.2395C97.5746 9.95529 100.909 11.1807 100.909 11.1807V16.6561C101.383 23.4051 108.07 23.9089 108.07 23.9089C114.728 24.7987 114.142 22.16 114.142 22.16C113.97 20.8319 112.944 20.5307 111.172 20.3115C110.072 20.1754 109.117 20.0825 109.117 20.0825C101.981 19.6466 102.683 15.1026 102.683 15.1026C102.773 11.2583 107.035 10.6733 107.035 10.6733C110.799 10.0262 113.458 10.6613 113.458 10.6613C119.317 11.8379 116.432 14.5182 115.948 14.6707C115.948 14.6707 114.387 13.2913 110.737 13.0931C106.242 12.8164 106.321 14.865 106.321 14.865C106.175 16.3591 108.157 16.6326 108.157 16.6326L112.975 17.2836C118.667 18.0496 117.973 21.9474 117.973 21.9474C117.6 26.822 111.582 26.8577 111.582 26.8577C103.353 27.3188 100.255 23.1939 100.255 23.1939C99.1014 25.409 96.7987 26.8893 92.972 26.8893C88.4104 26.8893 85.1936 24.4203 85.1936 19.9907M31.7126 10.673C25.1307 11.1266 23.6289 17.0312 23.7892 18.7477C23.6978 21.3412 25.5773 26.8893 32.8475 26.8923C33.8052 26.8754 34.6825 26.7921 35.4834 26.6493L35.4831 23.5022C34.7862 23.6206 33.9451 23.6952 32.9301 23.7211C29.5373 23.8032 27.6089 21.1155 27.6219 18.747C27.6219 15.9998 29.9498 13.7442 32.9301 13.7728L38.8106 13.7716L38.8251 21.5436C38.8251 21.5436 38.4007 28.1285 47.0234 26.7459V23.6103C42.2421 24.6046 42.5003 21.7004 42.5003 21.7004V13.7772H47.0234V10.6682H42.5003V7H38.8251V10.6682L31.7126 10.673ZM70.3853 31.6129C70.0751 33.8971 66.7406 32.6717 66.7406 32.6717V18.6505C66.9515 14.1772 69.7237 10.5338 75.432 10.4113C80.4718 10.3031 84.0913 13.9248 84.123 18.5373C84.1566 23.4249 80.6064 27.0583 75.3603 26.8438C73.49 26.7439 71.6632 26.033 70.4009 24.4679C70.4009 24.4679 70.3846 29.9803 70.3853 31.6129ZM75.3373 23.7958C78.2417 23.7958 80.3113 21.4991 80.3113 18.6658C80.3113 15.8326 78.4561 13.5358 75.3373 13.5358C72.2799 13.5358 70.3634 15.8326 70.3634 18.6658C70.3634 21.4991 72.4126 23.7958 75.3373 23.7958Z" fill="white"/>
<path d="M135.892 24.1272C134.45 25.7649 132.456 26.6305 130.124 26.6305C127.97 26.6305 126.148 25.8835 124.857 24.4702C123.643 23.1423 122.975 21.2782 122.975 19.2212V18.9196H137.311L137.307 18.7928C137.234 16.6579 136.459 14.7021 135.125 13.2856C133.717 11.7907 131.825 11.0005 129.653 11.0005C125.219 11.0005 122 14.4578 122 19.2212C122 24.103 125.341 27.5125 130.124 27.5125C132.745 27.5125 134.98 26.5688 136.588 24.7833L136.666 24.6968L135.98 24.0267L135.892 24.1272ZM123.065 18.0376C123.589 14.2936 126.163 11.8827 129.654 11.8827C131.449 11.8827 133.035 12.5225 134.241 13.733C135.348 14.844 136.045 16.3684 136.212 18.0376H123.065ZM152.506 13.0545C151.239 11.7496 149.399 11.001 147.458 11.0005H147.457C145.516 11.001 143.676 11.7496 142.408 13.055C141.2 14.3143 140.637 15.9478 140.637 18.1957V27.159H141.612V18.1958C141.612 16.2083 142.108 14.7629 143.171 13.6473C144.215 12.5591 145.858 11.883 147.458 11.8827C149.058 11.883 150.7 12.5591 151.744 13.6471C152.807 14.7629 153.303 16.2083 153.303 18.1958V27.159H154.278V18.1958C154.278 15.9478 153.715 14.3144 152.506 13.0545ZM183.041 11.0005C181.1 11.0005 179.259 11.7491 177.991 13.055C176.783 14.3143 176.22 15.9478 176.22 18.1957V27.1589H177.195V18.1958C177.195 16.2083 177.691 14.7629 178.754 13.6473C179.798 12.5589 181.441 11.8827 183.041 11.8827H183.167V11.0005H183.041ZM171.443 24.1272C170.001 25.7649 168.007 26.6305 165.675 26.6305C163.521 26.6305 161.699 25.8835 160.408 24.4702C159.195 23.1423 158.526 21.2782 158.526 19.2212V18.9196H172.862L172.858 18.7928C172.785 16.6579 172.01 14.7021 170.676 13.2856C169.268 11.7907 167.376 11.0005 165.204 11.0005C160.77 11.0005 157.551 14.4578 157.551 19.2212C157.551 24.103 160.892 27.5125 165.675 27.5125C168.296 27.5125 170.531 26.5688 172.139 24.7833L172.217 24.6968L171.531 24.0267L171.443 24.1272ZM158.616 18.0376C159.14 14.2936 161.714 11.8827 165.205 11.8827C167 11.8827 168.586 12.5225 169.792 13.733C170.899 14.844 171.596 16.3684 171.763 18.0376H158.616Z" fill="white"/>
<path d="M215.926 11.354L209.702 24.216L202.726 11.354H201.683L209.17 25.307L204.154 35.717H205.228L217 11.354H215.926Z" fill="white"/>
<path d="M192.409 11C190.102 11 187.984 11.8595 186.444 13.4203C184.931 14.9536 184.098 17.0264 184.098 19.2565C184.098 21.4867 184.931 23.5595 186.444 25.0928C187.984 26.6537 190.102 27.5132 192.409 27.5132C195.434 27.5132 197.873 26.058 199.184 23.498V26.8948C199.184 28.803 199.118 30.953 198.332 32.3148C197.28 34.1217 195.301 35.1167 192.759 35.1167C189.372 35.1167 187.034 33.3571 186.062 31.8502L185.989 31.737L185.204 32.3127L185.272 32.4103C185.865 33.2524 188.156 36 192.759 36C195.661 36 197.875 34.9034 199.165 32.8278C200.083 31.3208 200.16 28.9568 200.16 26.8594V19.3593L200.161 19.3156C200.162 19.296 200.162 19.2763 200.162 19.2565C200.162 14.3952 196.974 11 192.409 11ZM199.179 19.2565C199.179 23.598 196.395 26.6299 192.409 26.6299C188.3 26.6299 185.081 23.3912 185.081 19.2565C185.081 15.122 188.3 11.8832 192.409 11.8832C196.395 11.8832 199.179 14.9153 199.179 19.2565Z" fill="white"/>
</svg>
