<svg width="41" height="41" viewBox="0 0 41 41" fill="none" xmlns="http://www.w3.org/2000/svg">
<path d="M6.05046 29.7449C5.96675 28.5577 5.03015 25.9152 2.81395 27.0666C1.22359 27.8929 1.57702 29.6594 2.45125 30.5142M5.32528 31.3405C4.71145 30.5427 2.1558 31.0439 2.7305 33.3065C3.04079 34.5282 5.38108 35.1775 6.46922 34.5602M3.16637 36.9144C3.55698 37.3133 4.60048 37.9344 5.64955 37.2278M10.4314 36.2698C10.1431 35.7095 9.27633 34.8851 8.11565 36.0704C6.66481 37.552 8.70157 38.8912 9.34329 38.7487M12.5239 35.3295C13.3981 35.5385 15.2532 36.4284 14.8396 38.1503C14.4769 39.6604 12.6354 39.3945 11.6868 38.9196M10.1238 29.859C10.0568 29.9729 8.10563 31.2171 7.1384 31.825M11.9655 31.9108L10.1519 34.6746" stroke="#EB4B28" stroke-width="2.125" stroke-linecap="round"/>
<path d="M15.5963 14.5252L16.4542 15.152C16.6717 14.8543 16.7194 14.4652 16.5801 14.1238C16.4409 13.7825 16.1346 13.5377 15.771 13.4771L15.5963 14.5252ZM6.94707 17.3834L6.18809 16.6398L6.94707 17.3834ZM4.83142 20.5592L3.85726 20.135C3.70007 20.496 3.75542 20.9144 4.00109 21.2221C4.24675 21.5298 4.64245 21.6764 5.02931 21.6031L4.83142 20.5592ZM12.2362 20.4322L12.1002 21.4859C12.5713 21.5467 13.0256 21.2874 13.2128 20.8507L12.2362 20.4322ZM20.8543 36.9143L19.8179 36.6802C19.7291 37.0736 19.8706 37.4834 20.1833 37.7381C20.496 37.9928 20.926 38.0485 21.2933 37.8819L20.8543 36.9143ZM23.9656 34.7547L23.2066 34.0112C23.2024 34.0155 23.1982 34.0198 23.1941 34.0241L23.9656 34.7547ZM26.7657 25.926L27.8151 25.7598C27.7569 25.392 27.5103 25.0816 27.1653 24.9415C26.8203 24.8014 26.4271 24.8522 26.129 25.0754L26.7657 25.926ZM20.9788 29.3241L20.5585 28.3482C20.1242 28.5353 19.8658 28.9868 19.9245 29.4559L20.9788 29.3241ZM12.9524 26.9107L12.1934 26.1672L12.9524 26.9107ZM19.1748 20.5591L19.9338 21.3027L19.1748 20.5591ZM20.8549 22.2741L21.6139 23.0176L20.8549 22.2741ZM14.6324 28.6257L13.8734 27.8821L14.6324 28.6257ZM19.3089 23.7851C18.8805 23.3842 18.2081 23.4065 17.8072 23.835C17.4062 24.2635 17.4286 24.9359 17.8571 25.3368L19.3089 23.7851ZM22.8445 29.0071C23.3531 29.2997 24.0026 29.1246 24.2953 28.616C24.5879 28.1073 24.4128 27.4578 23.9042 27.1651L22.8445 29.0071ZM14.4144 17.4472C14.1339 16.9318 13.4886 16.7414 12.9732 17.0219C12.4578 17.3025 12.2674 17.9477 12.5479 18.4631L14.4144 17.4472ZM16.1441 23.5558C16.5362 23.9924 17.2079 24.0285 17.6445 23.6364C18.0811 23.2444 18.1172 22.5726 17.7251 22.136L16.1441 23.5558ZM17.6233 25.494C17.1917 25.0964 16.5195 25.124 16.122 25.5556C15.7244 25.9872 15.752 26.6593 16.1836 27.0569L17.6233 25.494ZM20.9169 29.356L20.3473 30.2529L20.826 30.5569L21.345 30.3285L20.9169 29.356ZM31.2897 23.3668C31.7003 22.9476 31.6934 22.2749 31.2742 21.8643C30.8551 21.4536 30.1824 21.4606 29.7717 21.8797L31.2897 23.3668ZM18.8013 10.6505L18.0442 9.90498L18.0423 9.90694L18.8013 10.6505ZM14.436 25.274C14.8301 25.7088 15.502 25.7419 15.9368 25.3478C16.3717 24.9538 16.4047 24.2819 16.0107 23.847L14.436 25.274ZM32.3404 18.9142C31.9844 19.3806 32.0739 20.0474 32.5404 20.4034C33.0068 20.7594 33.6736 20.6699 34.0296 20.2034L32.3404 18.9142ZM39.2733 1.72648L40.3349 1.68374L40.2956 0.705926L39.3178 0.664911L39.2733 1.72648ZM30.1549 2.0975C29.6008 2.29067 29.3082 2.89645 29.5014 3.45055C29.6946 4.00464 30.3004 4.29723 30.8545 4.10405L30.1549 2.0975ZM28.5395 5.03559C29.0731 4.79165 29.308 4.16125 29.0641 3.62756C28.8201 3.09386 28.1897 2.85898 27.6561 3.10292L28.5395 5.03559ZM32.7823 2.13788C32.4832 1.633 31.8315 1.46616 31.3266 1.76523C30.8217 2.0643 30.6549 2.71602 30.954 3.22089L32.7823 2.13788ZM34.7305 6.39507L35.4895 5.65153L35.4842 5.64618L35.4789 5.64091L34.7305 6.39507ZM37.8189 10.1931C38.3204 10.4978 38.974 10.3383 39.2787 9.83677C39.5834 9.33527 39.4238 8.68173 38.9223 8.37702L37.8189 10.1931ZM21.1679 34.1248L20.1061 34.086L21.1679 34.1248ZM24.7178 33.8982L25.5534 34.5543L24.7178 33.8982ZM25.3363 33.0193L26.2361 33.5842L25.3363 33.0193ZM21.1665 31.9107L20.1046 31.9465L21.1665 31.9107ZM26.4306 30.6414L27.445 30.9574L26.4306 30.6414ZM21.0818 30.499L20.0219 30.5729L21.0818 30.499ZM21.0326 29.8588L19.974 29.9496L21.0326 29.8588ZM26.6408 29.8588L27.677 30.0936L26.6408 29.8588ZM26.7847 29.0876L27.8358 29.2426L26.7847 29.0876ZM21.8736 28.9176L21.4154 27.959L21.8736 28.9176ZM22.8181 28.4334L22.3195 27.4951L22.8181 28.4334ZM25.4946 26.8313L24.8994 25.9512H24.8994L25.4946 26.8313ZM26.8693 26.8313L27.9291 26.7562L26.8693 26.8313ZM5.37632 19.4698L4.45358 18.9431L5.37632 19.4698ZM5.90357 18.6386L5.03428 18.0277L5.03428 18.0277L5.90357 18.6386ZM6.42863 17.9552L5.61454 17.2724L6.42863 17.9552ZM7.48112 16.8758L6.77722 16.0799L7.48112 16.8758ZM8.81949 15.8767L8.25734 14.9751L8.81949 15.8767ZM9.56413 15.4561L9.0822 14.5091L9.56413 15.4561ZM13.3324 18.1429L14.2708 18.6413L13.3324 18.1429ZM11.5765 14.6969L11.3132 13.6676L11.5765 14.6969ZM12.3915 14.5252L12.2169 13.4771L12.3915 14.5252ZM14.4565 16.1696L15.3578 16.7323L14.4565 16.1696ZM14.7975 15.6353L15.6875 16.2156L14.7975 15.6353ZM13.7113 27.8821C13.6493 27.8188 13.6493 27.7175 13.7113 27.6543L12.1934 26.1672C11.322 27.0566 11.322 28.4797 12.1934 29.3692L13.7113 27.8821ZM13.7113 27.6543L19.9338 21.3027L18.4159 19.8156L12.1934 26.1672L13.7113 27.6543ZM19.9338 21.3027C19.964 21.2718 19.9924 21.2643 20.0149 21.2643C20.0374 21.2643 20.0657 21.2718 20.0959 21.3027L21.6139 19.8156C20.7306 18.9139 19.2992 18.9139 18.4159 19.8156L19.9338 21.3027ZM20.0959 21.3027C20.1579 21.3659 20.1579 21.4672 20.0959 21.5305L21.6139 23.0176C22.4853 22.1281 22.4853 20.705 21.6139 19.8156L20.0959 21.3027ZM20.0959 21.5305L13.8734 27.8821L15.3914 29.3692L21.6139 23.0176L20.0959 21.5305ZM13.8734 27.8821C13.8432 27.9129 13.8149 27.9204 13.7924 27.9204C13.7699 27.9204 13.7415 27.9129 13.7113 27.8821L12.1934 29.3692C13.0767 30.2708 14.5081 30.2708 15.3914 29.3692L13.8734 27.8821ZM29.7842 13.8373C29.7842 15.2522 28.6667 16.361 27.3349 16.361V18.486C29.8821 18.486 31.9092 16.3836 31.9092 13.8373H29.7842ZM27.3349 16.361C26.0032 16.361 24.8857 15.2522 24.8857 13.8373H22.7607C22.7607 16.3836 24.7877 18.486 27.3349 18.486V16.361ZM24.8857 13.8373C24.8857 12.4223 26.0032 11.3135 27.3349 11.3135V9.18854C24.7877 9.18854 22.7607 11.291 22.7607 13.8373H24.8857ZM27.3349 11.3135C28.6667 11.3135 29.7842 12.4223 29.7842 13.8373H31.9092C31.9092 11.291 29.8821 9.18854 27.3349 9.18854V11.3135ZM17.8571 25.3368C19.4154 26.7949 21.0692 27.9857 22.8445 29.0071L23.9042 27.1651C22.257 26.2175 20.7374 25.1217 19.3089 23.7851L17.8571 25.3368ZM12.5479 18.4631C13.5196 20.2484 14.7182 21.968 16.1441 23.5558L17.7251 22.136C16.4131 20.675 15.3094 19.0918 14.4144 17.4472L12.5479 18.4631ZM16.1836 27.0569C17.5075 28.2765 18.8959 29.3311 20.3473 30.2529L21.4866 28.4591C20.1378 27.6025 18.8506 26.6245 17.6233 25.494L16.1836 27.0569ZM11.2982 21.0168C12.1956 22.489 13.2301 23.9432 14.436 25.274L16.0107 23.847C14.9143 22.6372 13.9576 21.2967 13.1127 19.9107L11.2982 21.0168ZM34.0296 20.2034C38.3945 14.4844 40.5812 7.80011 40.3349 1.68374L38.2116 1.76922C38.4357 7.33477 36.4407 13.5419 32.3404 18.9142L34.0296 20.2034ZM39.3178 0.664911C36.3316 0.539645 33.2173 1.02986 30.1549 2.0975L30.8545 4.10405C33.6876 3.11634 36.5346 2.67503 39.2288 2.78804L39.3178 0.664911ZM27.6561 3.10292C24.2518 4.65895 20.9644 6.9396 18.0442 9.90498L19.5583 11.396C22.3022 8.60967 25.3773 6.48097 28.5395 5.03559L27.6561 3.10292ZM30.954 3.22089C31.8027 4.65367 32.7899 5.96612 33.982 7.14924L35.4789 5.64091C34.431 4.60096 33.5514 3.43629 32.7823 2.13788L30.954 3.22089ZM33.9715 7.13862C35.1546 8.34632 36.4379 9.35401 37.8189 10.1931L38.9223 8.37702C37.6899 7.6282 36.5464 6.73041 35.4895 5.65153L33.9715 7.13862ZM19.995 35.6068C19.9491 35.9987 19.8903 36.3598 19.8179 36.6802L21.8907 37.1483C21.9833 36.7384 22.0532 36.3011 22.1056 35.8541L19.995 35.6068ZM21.2933 37.8819C21.8583 37.6255 22.4215 37.3221 22.9643 36.9635L21.793 35.1905C21.3538 35.4806 20.8903 35.7312 20.4154 35.9467L21.2933 37.8819ZM20.7821 36.7585L22.1104 37.1051L22.6468 35.0489L21.3185 34.7024L20.7821 36.7585ZM20.0604 34.9187C20.0427 35.1546 20.021 35.3847 19.995 35.6068L22.1056 35.8541C22.1354 35.5993 22.1598 35.3395 22.1794 35.0776L20.0604 34.9187ZM22.9643 36.9635C23.3455 36.7116 23.7171 36.4323 24.0725 36.1224L22.6761 34.5207C22.3968 34.7641 22.1011 34.9869 21.793 35.1905L22.9643 36.9635ZM24.0725 36.1224C24.3014 35.9229 24.5235 35.7108 24.737 35.4853L23.1941 34.0241C23.0289 34.1985 22.8559 34.3639 22.6761 34.5207L24.0725 36.1224ZM20.969 36.0499L23.2235 36.3733L23.5252 34.2698L21.2708 33.9464L20.969 36.0499ZM20.1061 34.086C20.0958 34.3679 20.0808 34.6467 20.0604 34.9187L22.1794 35.0776C22.2021 34.7754 22.2185 34.4694 22.2297 34.1636L20.1061 34.086ZM24.7245 35.4983C24.8098 35.4112 24.8935 35.3231 24.9755 35.234L23.4114 33.7954C23.3446 33.8681 23.2763 33.94 23.2066 34.0112L24.7245 35.4983ZM21.0321 35.1786L24.0576 35.5685L24.3292 33.4609L21.3037 33.071L21.0321 35.1786ZM24.9755 35.234C25.1783 35.0134 25.371 34.7866 25.5534 34.5543L23.8821 33.242C23.7338 33.4308 23.5769 33.6155 23.4114 33.7954L24.9755 35.234ZM20.1225 33.3676C20.1201 33.6073 20.1148 33.8475 20.1061 34.086L22.2297 34.1636C22.2391 33.9047 22.2448 33.6455 22.2474 33.3885L20.1225 33.3676ZM24.8725 32.847L21.3397 32.3269L21.0302 34.4292L24.563 34.9493L24.8725 32.847ZM20.1198 32.5557C20.124 32.823 20.1252 33.0947 20.1225 33.3676L22.2474 33.3885C22.2503 33.096 22.249 32.8059 22.2445 32.5217L20.1198 32.5557ZM25.5534 34.5543C25.7998 34.2406 26.0274 33.9167 26.2361 33.5842L24.4364 32.4544C24.2672 32.724 24.0824 32.9869 23.8821 33.242L25.5534 34.5543ZM21.06 33.5942L25.2142 34.0748L25.4584 31.9638L21.3042 31.4832L21.06 33.5942ZM26.2361 33.5842C26.4242 33.2846 26.597 32.9781 26.7543 32.6656L24.8564 31.7098C24.7289 31.9629 24.5889 32.2114 24.4364 32.4544L26.2361 33.5842ZM20.1046 31.9465C20.1113 32.1457 20.1164 32.3493 20.1198 32.5557L22.2445 32.5217C22.241 32.3022 22.2355 32.086 22.2283 31.8749L20.1046 31.9465ZM25.8687 31.1271L21.2298 30.8501L21.1031 32.9713L25.742 33.2483L25.8687 31.1271ZM20.0594 31.149C20.0797 31.4828 20.0936 31.6218 20.1046 31.9465L22.2283 31.8749C22.2161 31.5119 22.1979 31.3054 22.1804 31.0196L20.0594 31.149ZM26.7543 32.6656C26.909 32.3584 27.0488 32.0456 27.1737 31.7282L25.1963 30.9502C25.095 31.2074 24.9818 31.4609 24.8564 31.7098L26.7543 32.6656ZM21.0665 32.1455L26.1316 32.4003L26.2384 30.278L21.1733 30.0231L21.0665 32.1455ZM27.1737 31.7282C27.2737 31.474 27.3641 31.2169 27.445 30.9574L25.4162 30.3253C25.3506 30.5357 25.2773 30.7442 25.1963 30.9502L27.1737 31.7282ZM20.0219 30.5729C20.0352 30.7637 20.0478 30.959 20.0594 31.149L22.1804 31.0196C22.1685 30.8245 22.1555 30.6229 22.1417 30.425L20.0219 30.5729ZM26.4589 29.5792L21.11 29.4369L21.0535 31.5611L26.4023 31.7035L26.4589 29.5792ZM19.9245 29.4559C19.9399 29.5791 19.9567 29.7477 19.974 29.9496L22.0912 29.7681C22.073 29.555 22.0534 29.3552 22.0331 29.1922L19.9245 29.4559ZM19.974 29.9496C19.9903 30.1399 20.0065 30.3526 20.0219 30.5729L22.1417 30.425C22.1258 30.1971 22.1088 29.9727 22.0912 29.7681L19.974 29.9496ZM27.445 30.9574C27.5339 30.6722 27.6112 30.384 27.677 30.0936L25.6045 29.6241C25.5511 29.86 25.4883 30.0939 25.4162 30.3253L27.445 30.9574ZM21.0326 30.9213H26.6408V28.7963H21.0326V30.9213ZM27.677 30.0936C27.7408 29.8118 27.7938 29.5279 27.8358 29.2426L25.7336 28.9326C25.6994 29.1646 25.6563 29.3953 25.6045 29.6241L27.677 30.0936ZM21.4154 27.959C21.1309 28.095 20.8452 28.2248 20.5585 28.3482L21.399 30.3C21.7117 30.1653 22.0226 30.024 22.3318 29.8762L21.4154 27.959ZM26.8215 28.0258L21.9104 27.8558L21.8368 29.9795L26.7479 30.1495L26.8215 28.0258ZM21.345 30.3285C22.0068 30.0372 22.6647 29.7181 23.3167 29.3717L22.3195 27.4951C21.7132 27.8173 21.1024 28.1135 20.4889 28.3835L21.345 30.3285ZM23.3167 29.3717C26.1321 27.8756 28.8403 25.867 31.2897 23.3668L29.7717 21.8797C27.4717 24.2274 24.9383 26.1036 22.3195 27.4951L23.3167 29.3717ZM27.8358 29.2426C27.8712 29.003 27.8988 28.7624 27.9188 28.5212L25.8011 28.3456C25.7848 28.542 25.7623 28.7378 25.7336 28.9326L27.8358 29.2426ZM22.8181 29.4959H26.86V27.3709H22.8181V29.4959ZM27.9188 28.5212C27.9386 28.2825 27.9509 28.0432 27.9557 27.8036L25.8312 27.761C25.8272 27.9563 25.8172 28.1513 25.8011 28.3456L27.9188 28.5212ZM23.6443 26.7542C22.9089 27.1982 22.1659 27.6003 21.4154 27.959L22.3318 29.8762C23.1474 29.4864 23.951 29.0513 24.7426 28.5734L23.6443 26.7542ZM26.94 26.7208L24.24 26.6023L24.1469 28.7253L26.8469 28.8438L26.94 26.7208ZM26.129 25.0754C25.7216 25.3803 25.3118 25.6723 24.8994 25.9512L26.0898 27.7115C26.5311 27.413 26.9687 27.1012 27.4024 26.7766L26.129 25.0754ZM24.8994 25.9512C24.4836 26.2324 24.0652 26.5002 23.6443 26.7542L24.7426 28.5734C25.1956 28.3 25.6446 28.0125 26.0898 27.7115L24.8994 25.9512ZM27.9557 27.8036C27.9627 27.4547 27.9539 27.1052 27.9291 26.7562L25.8094 26.9064C25.8296 27.1914 25.8369 27.4766 25.8312 27.761L27.9557 27.8036ZM27.9291 26.7562C27.9055 26.4233 27.8675 26.0909 27.8151 25.7598L25.7163 26.0921C25.7591 26.3629 25.7902 26.6346 25.8094 26.9064L27.9291 26.7562ZM25.4946 27.8938H26.8693V25.7688H25.4946V27.8938ZM4.45358 18.9431C4.23094 19.3331 4.03303 19.7313 3.85726 20.135L5.80558 20.9833C5.95246 20.646 6.1164 20.3166 6.29906 19.9966L4.45358 18.9431ZM5.02931 21.6031C5.57806 21.4991 6.15255 21.4181 6.75011 21.3618L6.55085 19.2462C5.89066 19.3084 5.25046 19.3983 4.63353 19.5153L5.02931 21.6031ZM4.79435 20.3588L6.06851 21.1929L7.23245 19.4151L5.95829 18.5809L4.79435 20.3588ZM5.03428 18.0277C4.82425 18.3265 4.63109 18.6321 4.45358 18.9431L6.29906 19.9966C6.44471 19.7414 6.60234 19.4922 6.77285 19.2495L5.03428 18.0277ZM6.75011 21.3618C7.09363 21.3295 7.44463 21.3053 7.80258 21.2896L7.70935 19.1666C7.31684 19.1838 6.93047 19.2104 6.55085 19.2462L6.75011 21.3618ZM5.21167 19.4449L7.06407 21.0344L8.44786 19.4217L6.59546 17.8323L5.21167 19.4449ZM6.18809 16.6398C5.98659 16.8455 5.79556 17.0566 5.61454 17.2724L7.24272 18.6379C7.38898 18.4635 7.54327 18.2931 7.70604 18.1269L6.18809 16.6398ZM5.61454 17.2724C5.40823 17.5184 5.21506 17.7704 5.03428 18.0277L6.77285 19.2495C6.91961 19.0407 7.07602 18.8367 7.24272 18.6379L5.61454 17.2724ZM7.80258 21.2896C8.13549 21.2749 8.47435 21.2677 8.81871 21.2679L8.82028 19.1429C8.4449 19.1426 8.07443 19.1506 7.70935 19.1666L7.80258 21.2896ZM5.70043 18.7289L8.09129 20.9791L9.54769 19.4317L7.15683 17.1815L5.70043 18.7289ZM8.81871 21.2679C9.08809 21.2681 9.36082 21.2729 9.63667 21.2825L9.71013 19.1587C9.41062 19.1484 9.11393 19.1431 8.82028 19.1429L8.81871 21.2679ZM10.4395 19.4844L7.71319 16.6472L6.18094 18.1196L8.90728 20.9568L10.4395 19.4844ZM6.77722 16.0799C6.57579 16.258 6.37926 16.4447 6.18809 16.6398L7.70604 18.1269C7.8618 17.9679 8.02159 17.8162 8.18501 17.6717L6.77722 16.0799ZM9.63667 21.2825C9.95645 21.2935 10.2804 21.3109 10.6082 21.3349L10.7628 19.2155C10.4083 19.1896 10.0573 19.1707 9.71013 19.1587L9.63667 21.2825ZM6.70797 17.6046L9.91236 21.004L11.4587 19.5464L8.25427 16.147L6.70797 17.6046ZM10.6082 21.3349C10.8466 21.3522 11.087 21.3731 11.3292 21.3974L11.5416 19.283C11.2802 19.2568 11.0206 19.2343 10.7628 19.2155L10.6082 21.3349ZM11.3292 21.3974C11.5842 21.423 11.8412 21.4525 12.1002 21.4859L12.3722 19.3784C12.0935 19.3424 11.8166 19.3107 11.5416 19.283L11.3292 21.3974ZM7.43404 15.5419C7.20999 15.7116 6.99087 15.8909 6.77722 16.0799L8.18501 17.6717C8.35835 17.5183 8.53583 17.3731 8.71698 17.2359L7.43404 15.5419ZM12.2448 19.6519L8.88495 15.7006L7.26608 17.0772L10.626 21.0285L12.2448 19.6519ZM8.25734 14.9751C7.97655 15.1502 7.70181 15.3391 7.43404 15.5419L8.71698 17.2359C8.93347 17.072 9.15528 16.9194 9.38165 16.7783L8.25734 14.9751ZM7.96466 16.5077L11.3506 21.0947L13.0603 19.8327L9.67433 15.2457L7.96466 16.5077ZM11.6433 19.1233C11.5002 19.429 11.3625 19.7355 11.2299 20.0428L13.181 20.8846C13.3051 20.597 13.4341 20.3101 13.5679 20.0241L11.6433 19.1233ZM9.0822 14.5091C8.80228 14.6516 8.52705 14.8069 8.25734 14.9751L9.38165 16.7783C9.59908 16.6427 9.82077 16.5176 10.0461 16.403L9.0822 14.5091ZM13.4603 18.9424L10.4188 14.8248L8.70949 16.0873L11.751 20.205L13.4603 18.9424ZM9.83093 14.1632C9.57814 14.2685 9.32837 14.3839 9.0822 14.5091L10.0461 16.403C10.2442 16.3021 10.4451 16.2094 10.6484 16.1247L9.83093 14.1632ZM13.2128 20.8507C13.436 20.3299 13.6762 19.8111 13.9333 19.2963L12.0323 18.3468C11.7566 18.8988 11.499 19.455 11.2596 20.0136L13.2128 20.8507ZM9.38798 15.7792L12.1311 19.4568L13.8345 18.1863L11.0913 14.5087L9.38798 15.7792ZM13.9333 19.2963C14.0428 19.0772 14.1552 18.8588 14.2708 18.6413L12.3941 17.6445C12.2702 17.8777 12.1496 18.1119 12.0323 18.3468L13.9333 19.2963ZM10.5566 13.8908C10.3124 13.9726 10.0703 14.0634 9.83093 14.1632L10.6484 16.1247C10.8408 16.0445 11.0354 15.9715 11.2318 15.9057L10.5566 13.8908ZM14.1818 17.5046L11.7436 14.2599L10.0448 15.5365L12.483 18.7812L14.1818 17.5046ZM11.3132 13.6676C11.0591 13.7326 10.8067 13.807 10.5566 13.8908L11.2318 15.9057C11.4328 15.8383 11.6356 15.7785 11.8398 15.7263L11.3132 13.6676ZM14.2708 18.6413C14.3774 18.4406 14.4866 18.2407 14.5984 18.0416L12.7454 17.0012C12.6255 17.2148 12.5084 17.4293 12.3941 17.6445L14.2708 18.6413ZM14.5984 18.0416C15.1531 17.0534 15.7718 16.086 16.4542 15.152L14.7384 13.8984C14.0047 14.9026 13.3404 15.9415 12.7454 17.0012L14.5984 18.0416ZM10.7232 15.33L12.8186 18.1544L14.5252 16.8883L12.4298 14.0639L10.7232 15.33ZM13.1861 16.2124C12.6167 17.1691 12.1028 18.1414 11.6433 19.1233L13.5679 20.0241C13.998 19.1051 14.479 18.1949 15.0121 17.2993L13.1861 16.2124ZM12.2169 13.4771C11.9138 13.5276 11.6123 13.5911 11.3132 13.6676L11.8398 15.7263C12.0802 15.6648 12.3224 15.6138 12.566 15.5732L12.2169 13.4771ZM14.9428 16.11L13.2352 13.8793L11.5478 15.171L13.2554 17.4017L14.9428 16.11ZM12.8726 13.3884C12.6534 13.4112 12.4348 13.4408 12.2169 13.4771L12.566 15.5732C12.7411 15.5441 12.9168 15.5203 13.093 15.5019L12.8726 13.3884ZM13.5553 15.6068C13.4297 15.8079 13.3066 16.0098 13.1861 16.2124L15.0121 17.2993C15.125 17.1096 15.2402 16.9206 15.3578 16.7323L13.5553 15.6068ZM12.1751 15.1355L13.6488 16.8599L15.2642 15.4793L13.7905 13.7549L12.1751 15.1355ZM18.0423 9.90694C16.4542 11.528 15.0789 13.2583 13.9075 15.0549L15.6875 16.2156C16.7842 14.5336 18.0722 12.913 19.5603 11.394L18.0423 9.90694ZM13.9075 15.0549C13.788 15.2382 13.6706 15.4222 13.5553 15.6068L15.3578 16.7323C15.4657 16.5595 15.5756 16.3872 15.6875 16.2156L13.9075 15.0549ZM15.771 13.4771C15.1242 13.3693 14.47 13.3208 13.8164 13.3316L13.8513 15.4563C14.3765 15.4476 14.9021 15.4866 15.4217 15.5732L15.771 13.4771ZM13.8164 13.3316C13.5013 13.3367 13.1865 13.3557 12.8726 13.3884L13.093 15.5019C13.3451 15.4757 13.5982 15.4604 13.8513 15.4563L13.8164 13.3316ZM15.6368 14.9837L14.6731 13.7424L12.9946 15.0455L13.9582 16.2868L15.6368 14.9837Z" fill="#F5F5F7"/>
</svg>
