<svg width="157" height="30" viewBox="0 0 157 30" fill="none" xmlns="http://www.w3.org/2000/svg">
<g clip-path="url(#clip0_2285_112741)">
<mask id="mask0_2285_112741" style="mask-type:luminance" maskUnits="userSpaceOnUse" x="0" y="0" width="157" height="30">
<path d="M157 0H0V30H157V0Z" fill="white"/>
</mask>
<g mask="url(#mask0_2285_112741)">
<mask id="mask1_2285_112741" style="mask-type:luminance" maskUnits="userSpaceOnUse" x="6" y="23" width="9" height="7">
<path d="M6.41656 23.1882H14.3925V29.9873H6.41656V23.1882Z" fill="#D32D2B"/>
</mask>
<g mask="url(#mask1_2285_112741)">
<path fill-rule="evenodd" clip-rule="evenodd" d="M10.4045 29.9999L14.3925 23.1882H6.41656L10.4045 29.9999Z" fill="#1F1F1F"/>
</g>
<path fill-rule="evenodd" clip-rule="evenodd" d="M10.4045 15.8258C7.40559 15.8258 4.96571 13.42 4.96571 10.4626C4.96571 7.50516 7.40559 5.09907 10.4045 5.09907C13.4035 5.09907 15.8432 7.50516 15.8432 10.4626C15.8432 13.42 13.4035 15.8258 10.4045 15.8258ZM10.4045 0.202148C4.66745 0.202148 0 4.80495 0 10.4626C0 16.1202 4.66745 20.723 10.4045 20.723C16.1416 20.723 20.8091 16.1202 20.8091 10.4626C20.8091 4.80495 16.1416 0.202148 10.4045 0.202148Z" fill="#1F1F1F"/>
<path fill-rule="evenodd" clip-rule="evenodd" d="M53.4781 23.2715C50.7799 23.2715 48.5851 21.1069 48.5851 18.4463C48.5851 15.7858 50.7799 13.6212 53.4781 13.6212C56.1762 13.6212 58.371 15.7858 58.371 18.4463C58.371 21.1069 56.1762 23.2715 53.4781 23.2715ZM53.4781 9.21558C48.3166 9.21558 44.1176 13.3564 44.1176 18.4463C44.1176 23.5363 48.3166 27.6771 53.4781 27.6771C58.6395 27.6771 62.8385 23.5363 62.8385 18.4463C62.8385 13.3564 58.6395 9.21558 53.4781 9.21558Z" fill="#1F1F1F"/>
<path fill-rule="evenodd" clip-rule="evenodd" d="M86.4625 27.677H90.9262L90.927 16.4526C90.927 15.7217 90.8324 15.1848 90.7496 14.799C90.7209 14.6681 90.6956 14.5643 90.6679 14.4632C89.7872 11.2618 86.63 9.04576 83.1564 9.18674C81.5455 9.25471 80.0306 9.84485 78.654 10.9406L78.4783 11.0803L78.3028 10.9406C76.9262 9.84485 75.4113 9.25471 73.8 9.18674C70.3237 9.04345 67.1696 11.2618 66.2887 14.4632C66.2608 14.5645 66.2357 14.6688 66.2068 14.8001C66.1193 15.2098 66.0296 15.7278 66.0296 16.4526L66.0304 27.677H70.4943V16.6429C70.4943 15.0802 71.7835 13.8088 73.3681 13.8088C74.9386 13.8088 76.2271 15.0692 76.2409 16.6183C76.2416 16.6238 76.2422 16.6332 76.2422 16.6429V27.677H80.7146L80.7157 16.6173C80.7295 15.0692 82.018 13.8088 83.5885 13.8088C85.1731 13.8088 86.4625 15.0802 86.4625 16.6429V27.677Z" fill="#1F1F1F"/>
<path fill-rule="evenodd" clip-rule="evenodd" d="M43.863 27.6771L41.2753 23.2713C40.7138 23.2707 38.4056 23.2677 38.2261 23.2677C36.7859 23.2677 35.532 22.2417 35.4303 20.9804C35.4169 20.8153 35.405 20.6107 35.3956 20.3861V13.737H41.2742L43.5713 9.75096H35.3956V2.52075L30.9239 5.57131V9.53908H28.1024V13.9491H30.9237L30.9279 19.9698C30.9279 19.9724 30.925 20.251 30.9292 20.3311L30.9462 20.6668C31.0994 23.5906 32.5592 25.7433 35.2854 27.0643C36.0151 27.4178 36.8225 27.6127 37.8259 27.6775L38.0757 27.6771H43.863Z" fill="#1F1F1F"/>
<path fill-rule="evenodd" clip-rule="evenodd" d="M119.494 23.2715C116.796 23.2715 114.601 21.1069 114.601 18.4463C114.601 15.7858 116.796 13.6212 119.494 13.6212C122.192 13.6212 124.387 15.7858 124.387 18.4463C124.387 21.1069 122.192 23.2715 119.494 23.2715ZM119.494 9.21558C114.333 9.21558 110.134 13.3564 110.134 18.4463C110.134 23.5363 114.333 27.6771 119.494 27.6771C124.655 27.6771 128.854 23.5363 128.854 18.4463C128.854 13.3564 124.655 9.21558 119.494 9.21558Z" fill="#1F1F1F"/>
<path fill-rule="evenodd" clip-rule="evenodd" d="M152.478 27.677H156.942L156.943 16.4526C156.943 15.7217 156.848 15.1848 156.766 14.799C156.737 14.6681 156.712 14.5643 156.684 14.4632C155.803 11.2618 152.646 9.04576 149.172 9.18674C147.562 9.25471 146.047 9.84485 144.67 10.9406L144.494 11.0803L144.319 10.9406C142.942 9.84485 141.427 9.25471 139.816 9.18674C136.34 9.04345 133.186 11.2618 132.305 14.4632C132.277 14.5645 132.252 14.6688 132.223 14.8001C132.135 15.2098 132.046 15.7278 132.046 16.4526V27.677H136.51V16.6429C136.51 15.0802 137.799 13.8088 139.384 13.8088C140.955 13.8088 142.243 15.0692 142.257 16.6183C142.258 16.6238 142.258 16.6332 142.258 16.6429V27.677H146.731L146.732 16.6173C146.745 15.0692 148.034 13.8088 149.604 13.8088C151.189 13.8088 152.478 15.0802 152.478 16.6429V27.677Z" fill="#1F1F1F"/>
<path fill-rule="evenodd" clip-rule="evenodd" d="M109.88 27.6771L107.292 23.2713C106.731 23.2707 104.423 23.2677 104.243 23.2677C102.803 23.2677 101.549 22.2417 101.448 20.9804C101.434 20.8153 101.422 20.6107 101.413 20.3861V13.737H107.291L109.589 9.75096H101.413V2.52075L96.9413 5.57131V9.53908H94.1196V13.9491H96.9411L96.9454 19.9698C96.9454 19.9724 96.9424 20.251 96.9464 20.3311L96.9635 20.6668C97.1166 23.5906 98.5764 25.7433 101.303 27.0643C102.033 27.4178 102.84 27.6127 103.843 27.6775L104.093 27.6771H109.88Z" fill="#1F1F1F"/>
</g>
</g>
<defs>
<clipPath id="clip0_2285_112741">
<rect width="157" height="30" fill="white"/>
</clipPath>
</defs>
</svg>
