<svg xmlns="http://www.w3.org/2000/svg" width="61" height="41" viewBox="0 0 61 41"><g fill="#1B243F" fill-rule="evenodd" transform="translate(0 .852)"><g fill-rule="nonzero" transform="translate(.011)"><path d="M4.67726855,0 C1.97121587,0 0.366217486,1.38321829 0.243407584,3.37556022 L2.83088519,3.37556022 C2.83088519,2.71144625 3.19931489,1.82737095 4.80007845,1.77238062 C5.9096024,1.77238062 6.52365191,2.4364946 6.52365191,2.93563759 C6.40084201,3.70973223 5.41412796,3.76472256 4.43164874,3.93392357 C3.3221248,4.09466453 2.46245548,4.31885588 1.84417114,4.59380752 C0.984501823,5.03796018 0.489027389,5.98125584 0.489027389,6.97531179 C0.489027389,8.74769241 1.97121587,10.1309107 4.55445865,10.1309107 C7.01912635,10.1309107 8.6198899,8.85767307 8.73846498,6.92032146 L6.27803211,6.92032146 C6.27803211,7.41523443 6.1552222,8.24854942 4.67726855,8.24854942 C3.6905545,8.24854942 3.07650499,8.08357843 2.95369509,7.36447412 C2.95369509,6.36618814 5.04569826,6.42117847 6.64646181,6.03624617 C8.12441547,5.64708383 9.11112951,4.70801821 9.11112951,3.37556022 C9.11112951,0.939065626 7.14193625,0 4.67726855,0" transform="matrix(1 0 0 -1 48.992 39.663)"/><polyline points="0 3.016 8.469 8.036 13.012 .082 1.596 .082" transform="matrix(1 0 0 -1 6.88 26.143)"/><path d="M2.30290115,5.26403154 C2.30290115,3.72731033 3.62937221,2.46350409 5.07190949,2.46350409 C6.64294866,2.46350409 7.84506306,3.72731033 7.84506306,5.26403154 C7.84506306,6.74616975 6.64294866,8.06455898 5.07190949,8.06455898 C3.62937221,8.06455898 2.30290115,6.74616975 2.30290115,5.26403154 M4.95169805,0.208806584 C2.30290115,0.208806584 0.0147385674,2.46350409 0.0147385674,5.26403154 C0.0147385674,8.06455898 2.30290115,10.2646735 4.95169805,10.2646735 C6.03774623,10.2646735 7.00358298,9.98755984 7.84506306,9.38714691 L7.84506306,10.1555075 L10.2575823,10.1555075 L10.2575823,0.431337251 L7.84506306,0.431337251 L7.84506306,1.03594887 C7.12379442,0.485920245 6.03774623,0.208806584 4.95169805,0.208806584" transform="matrix(1 0 0 -1 .259 39.767)"/><polyline points="12.201 0 .26 20.312 8.843 25.227 23.769 0" transform="matrix(1 0 0 -1 26.27 26.143)"/><path d="M2.30290115,5.33616827 C2.30290115,3.77838829 3.50916077,2.49726322 5.07605471,2.49726322 C6.51859199,2.49726322 7.84920828,3.77838829 7.84920828,5.33616827 C7.84920828,6.83861726 6.51859199,8.17507331 5.07605471,8.17507331 C3.50916077,8.17507331 2.30290115,6.83861726 2.30290115,5.33616827 M4.95584327,0.211668008 C2.18268971,0.211668008 0.0147385674,2.49726322 0.0147385674,5.33616827 C0.0147385674,8.17507331 2.18268971,10.4053375 4.95584327,10.4053375 C6.03774623,10.4053375 7.00358298,10.1244264 7.84920828,9.51578559 L7.84920828,13.6911467 L10.2575823,13.6911467 L10.2575823,0.437248169 L7.84920828,0.437248169 L7.84920828,1.05014521 C7.00358298,0.492579152 6.03774623,0.211668008 4.95584327,0.211668008" transform="matrix(1 0 0 -1 12.024 39.766)"/><polyline points="0 11.808 8.528 16.636 17.911 .226 9.014 .226 6.579 .226" transform="matrix(1 0 0 -1 16.262 26.143)"/><g transform="matrix(1 0 0 -1 26.27 39.815)"><path d="M1.39796304,6.17952919e-16 C0.785655229,6.17952919e-16 0.177541306,0.557566058 0.177541306,1.22579408 C0.177541306,1.89402211 0.785655229,2.45158816 1.39796304,2.45158816 C2.12769975,2.45158816 2.61838478,1.89402211 2.61838478,1.22579408 C2.61838478,0.557566058 2.12769975,6.17952919e-16 1.39796304,6.17952919e-16 M1.39796304,2.28133899 C0.785655229,2.28133899 0.420786875,1.78336014 0.420786875,1.22579408 C0.420786875,0.668228024 0.785655229,0.165992949 1.39796304,0.165992949 C2.00607696,0.165992949 2.37094532,0.668228024 2.37094532,1.22579408 C2.37094532,1.78336014 2.00607696,2.28133899 1.39796304,2.28133899" transform="translate(28.508 11.301)"/><path d="M0.939574917,-1.09377528e-15 L0.637267664,0.557566058 L0.334960411,0.557566058 L0.334960411,-1.09377528e-15 L0.105623874,-1.09377528e-15 L0.105623874,1.33645605 L0.78842129,1.33645605 C0.939574917,1.33645605 1.24188217,1.16620687 1.24188217,0.944882938 C1.24188217,0.723559007 1.09072854,0.612897041 0.939574917,0.557566058 L1.24188217,-1.09377528e-15 M0.637267664,1.16620687 L0.334960411,1.16620687 L0.334960411,0.723559007 L0.637267664,0.723559007 C0.939574917,0.723559007 0.939574917,0.77888999 0.939574917,0.944882938 C0.939574917,1.05980113 0.939574917,1.16620687 0.637267664,1.16620687" transform="translate(29.38 11.855)"/><path d="M2.3299384,5.33616827 C2.3299384,3.77838829 3.55036014,2.49726322 5.13565023,2.49726322 C6.59931753,2.49726322 7.93716816,3.77838829 7.93716816,5.33616827 C7.93716816,6.83861726 6.59931753,8.17507331 5.13565023,8.17507331 C3.55036014,8.17507331 2.3299384,6.83861726 2.3299384,5.33616827 M5.00983355,0.211668008 C2.20831562,0.211668008 0.0149116058,2.49726322 0.0149116058,5.33616827 C0.0149116058,8.17507331 2.20831562,10.4053375 5.00983355,10.4053375 C6.1086325,10.4053375 7.08580867,10.1244264 7.93716816,9.51578559 L7.93716816,10.2946756 L10.2563888,10.2946756 L10.2563888,0.437248169 L7.93716816,0.437248169 L7.93716816,1.05014521 C7.08580867,0.492579152 6.1086325,0.211668008 5.00983355,0.211668008" transform="translate(11.471 .049)"/><path d="M2.3299384,5.33616827 C2.3299384,3.77838829 3.67198292,2.49726322 5.13565023,2.49726322 C6.72094032,2.49726322 7.94136205,3.77838829 7.94136205,5.33616827 C7.94136205,6.83861726 6.72094032,8.17507331 5.13565023,8.17507331 C3.67198292,8.17507331 2.3299384,6.83861726 2.3299384,5.33616827 M7.94136205,13.6911467 L10.3780116,13.6911467 L10.3780116,0.437248169 L7.94136205,0.437248169 L7.94136205,1.05014521 C7.20743145,0.492579152 6.23025529,0.211668008 5.13565023,0.211668008 C2.3299384,0.211668008 0.0149116058,2.49726322 0.0149116058,5.33616827 C0.0149116058,8.17507331 2.3299384,10.4053375 5.13565023,10.4053375 C6.23025529,10.4053375 7.20743145,10.1244264 7.94136205,9.51578559 L7.94136205,13.6911467 Z" transform="translate(.26 .049)"/></g></g><polygon points="22.937 28.439 25.803 28.439 25.803 39.104 22.937 39.104"/><polygon points="22.937 24.884 25.803 24.884 25.803 27.728 22.937 27.728"/></g></svg>