<svg width="229" height="39" viewBox="0 0 229 39" fill="none" xmlns="http://www.w3.org/2000/svg">
<path d="M222 9.57477H215.635L208.011 18.0665V9.57477H202.667L202.693 30.4782H208.011V22.5348L215.242 30.4782H222L212.256 20.1576L222 9.57477ZM194.049 18.1711L189.176 17.6228C186.32 17.3089 185.614 16.6031 185.614 15.6363C185.614 14.5649 187.081 13.5981 189.936 13.5981C192.687 13.5981 194.128 14.6179 194.389 16.1594H199.629C199.363 11.7427 195.645 9 190.224 9C183.78 9 180.531 11.56 180.531 16.0799C180.531 19.7643 182.68 21.4899 187.133 21.96L192.084 22.4818C193.971 22.6911 194.835 23.4234 194.835 24.3637C194.835 25.4351 193.578 26.4019 190.539 26.4019C187.028 26.4019 185.614 25.5132 185.378 23.736H180.243C180.48 28.5447 183.622 31 190.356 31C196.511 31 199.943 28.3089 199.943 24.2591C199.943 20.731 197.9 18.6147 194.049 18.1711ZM161.015 30.4782H177.885V25.9582H166.359V22.1693H175.632V17.6228H166.359V14.0947H177.885V9.57477H161.015V30.4782ZM148.441 9.57477H138.643V30.4782H148.441C155.96 30.4782 158.029 27.6825 158.029 19.8689C158.029 12.5267 156.038 9.57477 148.441 9.57477ZM148.226 25.9595H143.977V14.0947H148.226C151.58 14.0947 152.574 15.0099 152.574 19.8689C152.579 24.3107 151.454 25.9595 148.226 25.9595ZM124.131 9C116.507 9 112.552 13.6763 112.552 19.9735C112.552 26.2973 116.507 31 124.131 31C131.78 31 135.736 26.2973 135.736 19.9735C135.736 13.6763 131.78 9 124.131 9ZM124.131 26.2973C120.176 26.2973 118.001 23.8936 118.001 19.9735C118.001 16.1329 120.176 13.7027 124.131 13.7027C128.114 13.7027 130.261 16.1329 130.261 19.9735C130.261 23.8936 128.113 26.2973 124.131 26.2973ZM92.8516 14.0947H99.6098V30.4782H104.954V14.0947H111.687V9.57477H92.8516V14.0947ZM85.0722 22.4818C85.0722 25.1994 83.3953 26.2973 80.5392 26.2973C77.7629 26.2973 75.9558 25.1477 75.9558 22.4818V9.57477H70.6116V23.0831C70.6116 29.1194 76.0076 31 80.5392 31C85.0457 31 90.4151 29.1194 90.4151 23.0831V9.57477H85.0722V22.4818ZM54.9719 9.57477L46.9297 30.4782H52.4571L53.8606 26.5582H62.8389L64.2198 30.4782H69.9291L61.7886 9.57477H54.9719ZM55.4512 22.1163L58.3869 13.9226L61.2735 22.1189L55.4512 22.1163ZM7.16464 30.4795L25.9312 18.8359H35.6663C35.8173 18.8359 35.962 18.8958 36.0686 19.0024C36.1752 19.109 36.2349 19.2535 36.2346 19.404C36.2504 19.6018 36.1457 19.7897 35.969 19.8808L26.7517 25.3927C26.1529 25.7503 25.9431 26.4681 25.9431 27.0058L25.9338 30.4795H37.6473V10.2912C37.6479 10.0956 37.5682 9.90823 37.4267 9.77267C37.2853 9.6371 37.0944 9.56512 36.8985 9.57344H25.7214L7 21.1667V30.4795H7.16464Z" fill="#1B243F"/>
</svg>
