<svg width="120" height="20" viewBox="0 0 120 20" fill="none" xmlns="http://www.w3.org/2000/svg">
<path d="M33.0489 3.92705C33.3483 3.00574 34.6517 3.00574 34.9511 3.92705L35.9084 6.87336C36.0422 7.28538 36.4262 7.56434 36.8594 7.56434H39.9574C40.9261 7.56434 41.3289 8.80395 40.5451 9.37336L38.0389 11.1943C37.6884 11.4489 37.5417 11.9003 37.6756 12.3123L38.6329 15.2586C38.9323 16.1799 37.8778 16.946 37.0941 16.3766L34.5878 14.5557C34.2373 14.3011 33.7627 14.3011 33.4122 14.5557L30.9059 16.3766C30.1222 16.946 29.0677 16.1799 29.3671 15.2586L30.3244 12.3123C30.4583 11.9003 30.3116 11.4489 29.9611 11.1943L27.4549 9.37335C26.6711 8.80395 27.0739 7.56434 28.0426 7.56434H31.1406C31.5738 7.56434 31.9578 7.28538 32.0916 6.87336L33.0489 3.92705Z" fill="#1F1F1F"/>
<path d="M52.0489 3.92705C52.3483 3.00574 53.6517 3.00574 53.9511 3.92705L54.9084 6.87336C55.0422 7.28538 55.4262 7.56434 55.8594 7.56434H58.9574C59.9261 7.56434 60.3289 8.80395 59.5451 9.37336L57.0389 11.1943C56.6884 11.4489 56.5417 11.9003 56.6756 12.3123L57.6329 15.2586C57.9323 16.1799 56.8778 16.946 56.0941 16.3766L53.5878 14.5557C53.2373 14.3011 52.7627 14.3011 52.4122 14.5557L49.9059 16.3766C49.1222 16.946 48.0677 16.1799 48.3671 15.2586L49.3244 12.3123C49.4583 11.9003 49.3116 11.4489 48.9611 11.1943L46.4549 9.37335C45.6711 8.80395 46.0739 7.56434 47.0426 7.56434H50.1406C50.5738 7.56434 50.9578 7.28538 51.0916 6.87336L52.0489 3.92705Z" fill="#1F1F1F"/>
<path d="M71.0489 3.92705C71.3483 3.00574 72.6517 3.00574 72.9511 3.92705L73.9084 6.87336C74.0422 7.28538 74.4262 7.56434 74.8594 7.56434H77.9574C78.9261 7.56434 79.3289 8.80395 78.5451 9.37336L76.0389 11.1943C75.6884 11.4489 75.5417 11.9003 75.6756 12.3123L76.6329 15.2586C76.9323 16.1799 75.8778 16.946 75.0941 16.3766L72.5878 14.5557C72.2373 14.3011 71.7627 14.3011 71.4122 14.5557L68.9059 16.3766C68.1222 16.946 67.0677 16.1799 67.3671 15.2586L68.3244 12.3123C68.4583 11.9003 68.3116 11.4489 67.9611 11.1943L65.4549 9.37335C64.6711 8.80395 65.0739 7.56434 66.0426 7.56434H69.1406C69.5738 7.56434 69.9578 7.28538 70.0916 6.87336L71.0489 3.92705Z" fill="#1F1F1F"/>
<path d="M90.0489 3.92705C90.3483 3.00574 91.6517 3.00574 91.9511 3.92705L92.9084 6.87336C93.0422 7.28538 93.4262 7.56434 93.8594 7.56434H96.9574C97.9261 7.56434 98.3289 8.80395 97.5451 9.37336L95.0389 11.1943C94.6884 11.4489 94.5417 11.9003 94.6756 12.3123L95.6329 15.2586C95.9323 16.1799 94.8778 16.946 94.0941 16.3766L91.5878 14.5557C91.2373 14.3011 90.7627 14.3011 90.4122 14.5557L87.9059 16.3766C87.1222 16.946 86.0677 16.1799 86.3671 15.2586L87.3244 12.3123C87.4583 11.9003 87.3116 11.4489 86.9611 11.1943L84.4549 9.37335C83.6711 8.80395 84.0739 7.56434 85.0426 7.56434H88.1406C88.5738 7.56434 88.9578 7.28538 89.0916 6.87336L90.0489 3.92705Z" fill="#1F1F1F"/>
<path d="M109.049 3.92705C109.348 3.00574 110.652 3.00574 110.951 3.92705L111.908 6.87336C112.042 7.28538 112.426 7.56434 112.859 7.56434H115.957C116.926 7.56434 117.329 8.80395 116.545 9.37336L114.039 11.1943C113.688 11.4489 113.542 11.9003 113.676 12.3123L114.633 15.2586C114.932 16.1799 113.878 16.946 113.094 16.3766L110.588 14.5557C110.237 14.3011 109.763 14.3011 109.412 14.5557L106.906 16.3766C106.122 16.946 105.068 16.1799 105.367 15.2586L106.324 12.3123C106.458 11.9003 106.312 11.4489 105.961 11.1943L103.455 9.37335C102.671 8.80395 103.074 7.56434 104.043 7.56434H107.141C107.574 7.56434 107.958 7.28538 108.092 6.87336L109.049 3.92705Z" fill="#1F1F1F"/>
<path d="M10.3809 19.6044C6.01266 19.592 2.21147 16.8377 0.971415 12.7187C-0.0630063 9.27268 0.60999 6.11957 2.94055 3.36526C4.37379 1.67031 6.22453 0.635885 8.39308 0.193452C9.60821 -0.0558063 10.8607 -0.0620377 12.0821 0.162295C12.2192 0.18722 12.2192 0.224609 12.1693 0.336775C11.5711 1.58307 10.9729 2.83559 10.3809 4.08811C10.3498 4.16912 10.2687 4.21897 10.1815 4.20651C7.61414 4.27505 5.41444 6.08218 4.85984 8.58722C4.26162 11.2543 5.70109 14.0086 8.24975 14.9869C10.2687 15.7596 12.1506 15.4543 13.8581 14.127C13.9453 14.0584 13.9827 14.046 14.045 14.1581C14.6993 15.3047 15.3598 16.4513 16.0266 17.5917C16.0827 17.6914 16.064 17.735 15.9768 17.7973C14.6868 18.7071 13.1975 19.2929 11.6334 19.5047C11.2159 19.567 10.7984 19.5982 10.3809 19.6044Z" fill="#1F1F1F"/>
<path d="M17.167 16.7629C17.1109 16.7317 17.0984 16.6757 17.0735 16.6258C16.3257 15.3359 15.5842 14.046 14.8426 12.7561C14.7928 12.6501 14.6744 12.5816 14.556 12.6003C13.0729 12.6065 11.5961 12.6003 10.113 12.6003H9.92603C9.92603 12.5442 9.94472 12.4881 9.98211 12.4445C10.7361 11.1359 11.4839 9.83353 12.2379 8.52492C12.2815 8.43768 12.3688 8.3816 12.4685 8.39406C13.9827 8.40029 15.4969 8.40029 17.0112 8.39406C17.1047 8.3816 17.1981 8.43768 17.2418 8.52492C17.9958 9.83976 18.756 11.1546 19.5162 12.4694C19.5661 12.538 19.5723 12.6315 19.5225 12.7062C18.756 14.0273 17.9958 15.3484 17.2355 16.6694C17.2231 16.7068 17.2106 16.7504 17.167 16.7629Z" fill="#1F1F1F"/>
<path d="M13.9765 2.89791C13.7023 2.62373 13.4531 2.36824 13.1913 2.11275C13.1103 2.03174 13.1664 1.97566 13.2038 1.91334C13.5029 1.3899 13.9952 1.00355 14.5685 0.829068C15.2726 0.598504 16.0453 0.673282 16.6934 1.04094C17.8712 1.67655 17.7652 3.15963 17.086 3.8264C16.8305 4.07566 16.5376 4.28753 16.2198 4.44954C15.8896 4.62402 15.5655 4.78604 15.2415 4.97299C14.9735 5.12877 14.7679 5.33441 14.6682 5.63975C14.6308 5.76438 14.6495 5.79554 14.7866 5.79554C15.6528 5.78931 16.5189 5.79554 17.3851 5.78931C17.516 5.78931 17.5658 5.81423 17.5596 5.95756C17.5471 6.2629 17.5534 6.56824 17.5596 6.87358C17.5596 6.97328 17.5347 7.00444 17.435 7.00444C16.0391 7.00444 14.6495 7.00444 13.2537 7.00444C13.1851 7.00444 13.129 7.00444 13.129 6.91097C13.129 5.94509 13.3097 5.04776 14.0637 4.35607C14.4252 4.03827 14.8302 3.77031 15.2602 3.57091C15.497 3.45251 15.74 3.34034 15.9456 3.1721C16.1264 3.02254 16.251 2.84183 16.2697 2.5988C16.2884 2.21868 15.9893 1.93827 15.5344 1.90711C14.8801 1.86349 14.4127 2.15637 14.0824 2.6985C14.0513 2.76082 14.0201 2.8169 13.9765 2.89791Z" fill="#1F1F1F"/>
<path d="M17.2978 18.14V17.8222H17.1857V17.7537H17.4848V17.8222H17.3726V18.14H17.2978ZM17.5346 18.14V17.7599H17.6468L17.7153 18.0216L17.7839 17.7599H17.9023V18.14H17.84V17.8409L17.7652 18.14H17.6904L17.6156 17.8409V18.14H17.5346Z" fill="#1F1F1F"/>
</svg>
