<svg width="204" height="98" viewBox="0 0 204 98" fill="none" xmlns="http://www.w3.org/2000/svg">
<path d="M68 31L70.2218 34.9419L74.6574 35.8369L71.595 39.1681L72.1145 43.6631L68 41.78L63.8855 43.6631L64.405 39.1681L61.3426 35.8369L65.7782 34.9419L68 31Z" fill="#FF492C"/>
<path d="M83.5 31L85.5631 34.9419L89.6819 35.8369L86.8382 39.1681L87.3206 43.6631L83.5 41.78L79.6794 43.6631L80.1618 39.1681L77.3181 35.8369L81.4369 34.9419L83.5 31Z" fill="#FF492C"/>
<path d="M99 31L101.222 34.9419L105.657 35.8369L102.595 39.1681L103.114 43.6631L99 41.78L94.8855 43.6631L95.405 39.1681L92.3426 35.8369L96.7782 34.9419L99 31Z" fill="#FF492C"/>
<path d="M114.5 31L116.563 34.9419L120.682 35.8369L117.838 39.1681L118.321 43.6631L114.5 41.78L110.679 43.6631L111.162 39.1681L108.318 35.8369L112.437 34.9419L114.5 31Z" fill="#FF492C"/>
<path d="M130 31L132.222 34.9419L136.657 35.8369L133.595 39.1681L134.114 43.6631L130 41.78L125.886 43.6631L126.405 39.1681L123.343 35.8369L127.778 34.9419L130 31Z" fill="#FF492C"/>
<mask id="mask0_334_843" style="mask-type:alpha" maskUnits="userSpaceOnUse" x="123" y="31" width="14" height="13">
<path d="M130 31L132.222 34.9419L136.657 35.8369L133.595 39.1681L134.114 43.6631L130 41.78L125.886 43.6631L126.405 39.1681L123.343 35.8369L127.778 34.9419L130 31Z" fill="#FF492C"/>
</mask>
<g mask="url(#mask0_334_843)">
<rect x="130" y="29" width="10" height="16" fill="#D1D3D9"/>
</g>
<path d="M69.7451 60.4521V61.7646H62.5674L62.5127 60.7734L66.8057 54.0469H68.125L66.6963 56.4941L64.2285 60.4521H69.7451ZM68.501 54.0469V64H66.8535V54.0469H68.501ZM71.0098 63.1797C71.0098 62.9245 71.0964 62.7103 71.2695 62.5371C71.4427 62.3594 71.6774 62.2705 71.9736 62.2705C72.2744 62.2705 72.5091 62.3594 72.6777 62.5371C72.8509 62.7103 72.9375 62.9245 72.9375 63.1797C72.9375 63.4349 72.8509 63.6491 72.6777 63.8223C72.5091 63.9954 72.2744 64.082 71.9736 64.082C71.6774 64.082 71.4427 63.9954 71.2695 63.8223C71.0964 63.6491 71.0098 63.4349 71.0098 63.1797ZM81.3525 54.0469V54.9492L77.374 64H75.6377L79.6094 55.3594H74.4551V54.0469H81.3525ZM85.9668 60.3838V60.2266C85.9668 59.6934 86.0443 59.1989 86.1992 58.7432C86.3542 58.2829 86.5775 57.8841 86.8691 57.5469C87.1654 57.2051 87.5254 56.9408 87.9492 56.7539C88.3776 56.5625 88.8607 56.4668 89.3984 56.4668C89.9408 56.4668 90.4238 56.5625 90.8477 56.7539C91.276 56.9408 91.6383 57.2051 91.9346 57.5469C92.2308 57.8841 92.4564 58.2829 92.6113 58.7432C92.7663 59.1989 92.8438 59.6934 92.8438 60.2266V60.3838C92.8438 60.917 92.7663 61.4115 92.6113 61.8672C92.4564 62.3229 92.2308 62.7217 91.9346 63.0635C91.6383 63.4007 91.2783 63.665 90.8545 63.8564C90.4307 64.0433 89.9499 64.1367 89.4121 64.1367C88.8698 64.1367 88.3844 64.0433 87.9561 63.8564C87.5322 63.665 87.1722 63.4007 86.876 63.0635C86.5798 62.7217 86.3542 62.3229 86.1992 61.8672C86.0443 61.4115 85.9668 60.917 85.9668 60.3838ZM87.6143 60.2266V60.3838C87.6143 60.7165 87.6484 61.0309 87.7168 61.3271C87.7852 61.6234 87.8923 61.8831 88.0381 62.1064C88.1839 62.3298 88.3708 62.5052 88.5986 62.6328C88.8265 62.7604 89.0977 62.8242 89.4121 62.8242C89.7174 62.8242 89.9818 62.7604 90.2051 62.6328C90.4329 62.5052 90.6198 62.3298 90.7656 62.1064C90.9115 61.8831 91.0186 61.6234 91.0869 61.3271C91.1598 61.0309 91.1963 60.7165 91.1963 60.3838V60.2266C91.1963 59.8984 91.1598 59.5885 91.0869 59.2969C91.0186 59.0007 90.9092 58.7386 90.7588 58.5107C90.613 58.2829 90.4261 58.1051 90.1982 57.9775C89.9749 57.8454 89.7083 57.7793 89.3984 57.7793C89.0885 57.7793 88.8197 57.8454 88.5918 57.9775C88.3685 58.1051 88.1839 58.2829 88.0381 58.5107C87.8923 58.7386 87.7852 59.0007 87.7168 59.2969C87.6484 59.5885 87.6143 59.8984 87.6143 60.2266ZM98.6748 62.2568V56.6035H100.329V64H98.7705L98.6748 62.2568ZM98.9072 60.7188L99.4609 60.7051C99.4609 61.2018 99.4062 61.6598 99.2969 62.0791C99.1875 62.4938 99.0189 62.8561 98.791 63.166C98.5632 63.4714 98.2715 63.7106 97.916 63.8838C97.5605 64.0524 97.1344 64.1367 96.6377 64.1367C96.2777 64.1367 95.9473 64.0843 95.6465 63.9795C95.3457 63.8747 95.0859 63.7129 94.8672 63.4941C94.653 63.2754 94.4867 62.9906 94.3682 62.6396C94.2497 62.2887 94.1904 61.8695 94.1904 61.3818V56.6035H95.8379V61.3955C95.8379 61.6644 95.8698 61.89 95.9336 62.0723C95.9974 62.25 96.084 62.3936 96.1934 62.5029C96.3027 62.6123 96.4303 62.6898 96.5762 62.7354C96.722 62.7809 96.877 62.8037 97.041 62.8037C97.5104 62.8037 97.8796 62.7126 98.1484 62.5303C98.4219 62.3434 98.6156 62.0928 98.7295 61.7783C98.848 61.4639 98.9072 61.1107 98.9072 60.7188ZM105.408 56.6035V57.8066H101.238V56.6035H105.408ZM102.441 54.792H104.089V61.9561C104.089 62.1839 104.121 62.3594 104.185 62.4824C104.253 62.6009 104.346 62.6807 104.465 62.7217C104.583 62.7627 104.722 62.7832 104.882 62.7832C104.996 62.7832 105.105 62.7764 105.21 62.7627C105.315 62.749 105.399 62.7354 105.463 62.7217L105.47 63.9795C105.333 64.0205 105.174 64.057 104.991 64.0889C104.813 64.1208 104.608 64.1367 104.376 64.1367C103.998 64.1367 103.663 64.0706 103.371 63.9385C103.079 63.8018 102.852 63.5807 102.688 63.2754C102.523 62.9701 102.441 62.5645 102.441 62.0586V54.792ZM109.852 60.3838V60.2266C109.852 59.6934 109.929 59.1989 110.084 58.7432C110.239 58.2829 110.462 57.8841 110.754 57.5469C111.05 57.2051 111.41 56.9408 111.834 56.7539C112.262 56.5625 112.745 56.4668 113.283 56.4668C113.826 56.4668 114.309 56.5625 114.732 56.7539C115.161 56.9408 115.523 57.2051 115.819 57.5469C116.116 57.8841 116.341 58.2829 116.496 58.7432C116.651 59.1989 116.729 59.6934 116.729 60.2266V60.3838C116.729 60.917 116.651 61.4115 116.496 61.8672C116.341 62.3229 116.116 62.7217 115.819 63.0635C115.523 63.4007 115.163 63.665 114.739 63.8564C114.315 64.0433 113.835 64.1367 113.297 64.1367C112.755 64.1367 112.269 64.0433 111.841 63.8564C111.417 63.665 111.057 63.4007 110.761 63.0635C110.465 62.7217 110.239 62.3229 110.084 61.8672C109.929 61.4115 109.852 60.917 109.852 60.3838ZM111.499 60.2266V60.3838C111.499 60.7165 111.533 61.0309 111.602 61.3271C111.67 61.6234 111.777 61.8831 111.923 62.1064C112.069 62.3298 112.256 62.5052 112.483 62.6328C112.711 62.7604 112.982 62.8242 113.297 62.8242C113.602 62.8242 113.867 62.7604 114.09 62.6328C114.318 62.5052 114.505 62.3298 114.65 62.1064C114.796 61.8831 114.903 61.6234 114.972 61.3271C115.045 61.0309 115.081 60.7165 115.081 60.3838V60.2266C115.081 59.8984 115.045 59.5885 114.972 59.2969C114.903 59.0007 114.794 58.7386 114.644 58.5107C114.498 58.2829 114.311 58.1051 114.083 57.9775C113.86 57.8454 113.593 57.7793 113.283 57.7793C112.973 57.7793 112.704 57.8454 112.477 57.9775C112.253 58.1051 112.069 58.2829 111.923 58.5107C111.777 58.7386 111.67 59.0007 111.602 59.2969C111.533 59.5885 111.499 59.8984 111.499 60.2266ZM120.338 64H118.69V55.8926C118.69 55.3411 118.793 54.8786 118.998 54.5049C119.208 54.1266 119.506 53.8418 119.894 53.6504C120.281 53.4544 120.739 53.3564 121.268 53.3564C121.432 53.3564 121.593 53.3678 121.753 53.3906C121.912 53.4089 122.067 53.4385 122.218 53.4795L122.177 54.751C122.086 54.7282 121.985 54.7122 121.876 54.7031C121.771 54.694 121.657 54.6895 121.534 54.6895C121.284 54.6895 121.067 54.7373 120.885 54.833C120.707 54.9242 120.57 55.0586 120.475 55.2363C120.383 55.4141 120.338 55.6328 120.338 55.8926V64ZM121.862 56.6035V57.8066H117.556V56.6035H121.862ZM128.179 59.3721L126.866 59.0508L127.406 54.0469H132.772V55.4414H128.773L128.5 57.8818C128.655 57.7907 128.869 57.7018 129.143 57.6152C129.416 57.5241 129.728 57.4785 130.079 57.4785C130.549 57.4785 130.968 57.556 131.337 57.7109C131.711 57.8613 132.027 58.0824 132.287 58.374C132.547 58.6611 132.745 59.012 132.882 59.4268C133.019 59.8369 133.087 60.2995 133.087 60.8145C133.087 61.2747 133.019 61.7054 132.882 62.1064C132.75 62.5075 132.549 62.8607 132.28 63.166C132.011 63.4714 131.672 63.7106 131.262 63.8838C130.856 64.0524 130.375 64.1367 129.819 64.1367C129.405 64.1367 129.006 64.0775 128.623 63.959C128.245 63.8359 127.905 63.6559 127.604 63.4189C127.304 63.1774 127.062 62.8812 126.88 62.5303C126.698 62.1748 126.593 61.7669 126.565 61.3066H128.179C128.22 61.6302 128.309 61.9059 128.445 62.1338C128.587 62.3571 128.773 62.528 129.006 62.6465C129.238 62.765 129.507 62.8242 129.812 62.8242C130.09 62.8242 130.33 62.7764 130.53 62.6807C130.731 62.5804 130.897 62.4391 131.029 62.2568C131.166 62.07 131.266 61.8512 131.33 61.6006C131.398 61.3499 131.433 61.0719 131.433 60.7666C131.433 60.4749 131.394 60.2083 131.316 59.9668C131.243 59.7253 131.132 59.5156 130.981 59.3379C130.836 59.1602 130.651 59.0234 130.428 58.9277C130.204 58.8275 129.947 58.7773 129.655 58.7773C129.263 58.7773 128.963 58.8343 128.753 58.9482C128.548 59.0622 128.356 59.2035 128.179 59.3721ZM137.674 60.3838V60.2266C137.674 59.6934 137.751 59.1989 137.906 58.7432C138.061 58.2829 138.285 57.8841 138.576 57.5469C138.872 57.2051 139.232 56.9408 139.656 56.7539C140.085 56.5625 140.568 56.4668 141.105 56.4668C141.648 56.4668 142.131 56.5625 142.555 56.7539C142.983 56.9408 143.345 57.2051 143.642 57.5469C143.938 57.8841 144.163 58.2829 144.318 58.7432C144.473 59.1989 144.551 59.6934 144.551 60.2266V60.3838C144.551 60.917 144.473 61.4115 144.318 61.8672C144.163 62.3229 143.938 62.7217 143.642 63.0635C143.345 63.4007 142.985 63.665 142.562 63.8564C142.138 64.0433 141.657 64.1367 141.119 64.1367C140.577 64.1367 140.091 64.0433 139.663 63.8564C139.239 63.665 138.879 63.4007 138.583 63.0635C138.287 62.7217 138.061 62.3229 137.906 61.8672C137.751 61.4115 137.674 60.917 137.674 60.3838ZM139.321 60.2266V60.3838C139.321 60.7165 139.355 61.0309 139.424 61.3271C139.492 61.6234 139.599 61.8831 139.745 62.1064C139.891 62.3298 140.078 62.5052 140.306 62.6328C140.534 62.7604 140.805 62.8242 141.119 62.8242C141.424 62.8242 141.689 62.7604 141.912 62.6328C142.14 62.5052 142.327 62.3298 142.473 62.1064C142.618 61.8831 142.726 61.6234 142.794 61.3271C142.867 61.0309 142.903 60.7165 142.903 60.3838V60.2266C142.903 59.8984 142.867 59.5885 142.794 59.2969C142.726 59.0007 142.616 58.7386 142.466 58.5107C142.32 58.2829 142.133 58.1051 141.905 57.9775C141.682 57.8454 141.415 57.7793 141.105 57.7793C140.796 57.7793 140.527 57.8454 140.299 57.9775C140.076 58.1051 139.891 58.2829 139.745 58.5107C139.599 58.7386 139.492 59.0007 139.424 59.2969C139.355 59.5885 139.321 59.8984 139.321 60.2266ZM147.565 58.1826V64H145.918V56.6035H147.47L147.565 58.1826ZM147.271 60.0283L146.738 60.0215C146.743 59.4974 146.816 59.0166 146.957 58.5791C147.103 58.1416 147.303 57.7656 147.559 57.4512C147.818 57.1367 148.128 56.8952 148.488 56.7266C148.848 56.5534 149.249 56.4668 149.691 56.4668C150.047 56.4668 150.368 56.5169 150.655 56.6172C150.947 56.7129 151.195 56.8701 151.4 57.0889C151.61 57.3076 151.77 57.5924 151.879 57.9434C151.988 58.2897 152.043 58.7158 152.043 59.2217V64H150.389V59.2148C150.389 58.8594 150.336 58.5791 150.231 58.374C150.131 58.1644 149.983 58.0163 149.787 57.9297C149.596 57.8385 149.356 57.793 149.069 57.793C148.787 57.793 148.534 57.8522 148.311 57.9707C148.087 58.0892 147.898 58.251 147.743 58.4561C147.593 58.6611 147.477 58.8981 147.395 59.167C147.312 59.4359 147.271 59.723 147.271 60.0283ZM165.018 58.9141V62.7148C164.876 62.9017 164.655 63.1068 164.354 63.3301C164.058 63.5488 163.664 63.738 163.172 63.8975C162.68 64.057 162.067 64.1367 161.333 64.1367C160.709 64.1367 160.137 64.0319 159.617 63.8223C159.098 63.6081 158.649 63.2959 158.271 62.8857C157.897 62.4756 157.607 61.9766 157.402 61.3887C157.197 60.7962 157.095 60.1217 157.095 59.3652V58.6748C157.095 57.9229 157.188 57.2529 157.375 56.665C157.566 56.0726 157.84 55.5713 158.195 55.1611C158.551 54.751 158.979 54.4411 159.48 54.2314C159.986 54.0173 160.558 53.9102 161.196 53.9102C162.012 53.9102 162.687 54.0469 163.22 54.3203C163.757 54.5892 164.172 54.9629 164.464 55.4414C164.756 55.9199 164.94 56.4668 165.018 57.082H163.336C163.281 56.7357 163.174 56.4258 163.015 56.1523C162.86 55.8789 162.636 55.6647 162.345 55.5098C162.058 55.3503 161.684 55.2705 161.224 55.2705C160.827 55.2705 160.479 55.3457 160.178 55.4961C159.877 55.6465 159.626 55.8675 159.426 56.1592C159.23 56.4508 159.082 56.8063 158.981 57.2256C158.881 57.6449 158.831 58.1234 158.831 58.6611V59.3652C158.831 59.9121 158.888 60.3975 159.002 60.8213C159.12 61.2451 159.289 61.6029 159.508 61.8945C159.731 62.1862 160.002 62.4072 160.321 62.5576C160.64 62.7035 161 62.7764 161.401 62.7764C161.793 62.7764 162.115 62.7445 162.365 62.6807C162.616 62.6123 162.814 62.5326 162.96 62.4414C163.11 62.3457 163.227 62.2546 163.309 62.168V60.1924H161.237V58.9141H165.018ZM173.33 62.6875V64H166.658V62.8721L169.898 59.3379C170.254 58.9368 170.534 58.5905 170.739 58.2988C170.944 58.0072 171.088 57.7451 171.17 57.5127C171.257 57.2757 171.3 57.0456 171.3 56.8223C171.3 56.5078 171.241 56.2321 171.122 55.9951C171.008 55.7536 170.84 55.5645 170.616 55.4277C170.393 55.2865 170.122 55.2158 169.803 55.2158C169.434 55.2158 169.124 55.2956 168.873 55.4551C168.622 55.6146 168.433 55.8356 168.306 56.1182C168.178 56.3962 168.114 56.7152 168.114 57.0752H166.467C166.467 56.4964 166.599 55.9678 166.863 55.4893C167.128 55.0062 167.51 54.6234 168.012 54.3408C168.513 54.0537 169.117 53.9102 169.823 53.9102C170.489 53.9102 171.054 54.0218 171.519 54.2451C171.983 54.4684 172.337 54.7852 172.578 55.1953C172.824 55.6055 172.947 56.0908 172.947 56.6514C172.947 56.9613 172.897 57.2689 172.797 57.5742C172.697 57.8796 172.553 58.1849 172.366 58.4902C172.184 58.791 171.967 59.0941 171.717 59.3994C171.466 59.7002 171.19 60.0055 170.89 60.3154L168.736 62.6875H173.33Z" fill="#1B243F"/>
<g clip-path="url(#clip0_334_843)">
<path d="M46 49C46 61.7052 35.7052 72 23 72C10.2948 72 0 61.7052 0 49C0 36.2948 10.2948 26 23 26C35.7052 26 46 36.304 46 49Z" fill="#FF492C"/>
<path d="M33.1021 45.531H27.1371V45.255C27.1371 44.243 27.3403 43.4057 27.7466 42.7525C28.1528 42.0901 28.8546 41.5104 29.8703 40.9952L30.332 40.7652C31.1538 40.3512 31.3662 39.9924 31.3662 39.5691C31.3662 39.0631 30.923 38.6951 30.212 38.6951C29.3625 38.6951 28.7253 39.1367 28.2821 40.0292L27.1371 38.8883C27.3864 38.3547 27.7927 37.9315 28.3283 37.591C28.8731 37.2506 29.4733 37.085 30.1289 37.085C30.9507 37.085 31.6617 37.2966 32.2434 37.7382C32.8436 38.1799 33.1391 38.7871 33.1391 39.5507C33.1391 40.7744 32.4465 41.5196 31.1538 42.1821L30.4243 42.5501C29.6487 42.9365 29.2701 43.2861 29.1593 43.9026H33.1021V45.531ZM32.5758 47.4079H26.0475L22.788 53.0386H29.3163L32.585 58.6693L35.8446 53.0386L32.5758 47.4079ZM23.3513 56.8016C19.1961 56.8016 15.8165 53.4342 15.8165 49.294C15.8165 45.1538 19.1961 41.7864 23.3513 41.7864L25.9367 36.4042C25.0965 36.2386 24.2377 36.1558 23.3513 36.1558C16.0659 36.1558 10.1562 42.0441 10.1562 49.294C10.1562 56.5532 16.0566 62.4415 23.3513 62.4415C26.2507 62.4415 28.9377 61.503 31.1169 59.9206L28.2544 54.9891C26.9432 56.1116 25.2257 56.8016 23.3513 56.8016Z" fill="white"/>
</g>
<defs>
<clipPath id="clip0_334_843">
<rect width="46" height="46" fill="white" transform="translate(0 26)"/>
</clipPath>
</defs>
</svg>
