<svg width="35" height="42" viewBox="0 0 35 42" fill="none" xmlns="http://www.w3.org/2000/svg">
<path d="M12.0864 27.1495C11.8005 27.8192 11.6838 28.549 11.7464 29.2745C11.8429 30.0492 12.1135 30.792 12.5379 31.4473C12.8946 31.9598 13.3041 32.4335 13.7598 32.8604C15.4276 34.5602 17.4131 35.9158 19.6036 36.8501C20.5922 37.2842 21.6136 37.6394 22.6582 37.9126C23.3223 38.0932 24.0076 38.1942 24.6717 38.3482C25.3357 38.5023 26.0104 38.7095 26.6904 38.8795C27.1154 38.9751 27.0729 39.1451 26.6904 39.4107C26.434 39.5728 26.1617 39.7081 25.8776 39.8145C25.4987 39.9726 25.097 40.0694 24.6876 40.1014C24.4964 40.1014 24.2998 40.1014 24.1086 40.1014L23.5401 40.0376C23.1629 40.0004 22.7911 39.926 22.4139 39.8676C21.6681 39.7307 20.9304 39.5534 20.2039 39.3364C18.7599 38.8495 17.3794 38.1914 16.092 37.376C14.5673 36.3773 12.8779 35.4317 11.5604 33.9548C10.8166 33.1374 10.2231 32.195 9.80731 31.171C9.38521 30.0979 9.25685 28.9316 9.43543 27.7923L9.52574 27.261L9.67981 26.767C9.77364 26.4319 9.89445 26.105 10.0411 25.7895C10.3525 25.1432 10.7917 24.5667 11.332 24.0948C12.1223 23.4157 13.0643 22.9365 14.0786 22.6976C15.0504 22.4537 16.0589 22.3907 17.0536 22.5117C18.5666 22.6462 20.0372 23.0834 21.3779 23.7973C21.6787 23.9386 21.9666 24.1057 22.2386 24.2967C23.2426 25.0298 23.3011 25.5504 23.147 26.0764C23.1177 26.1973 23.0805 26.3162 23.0354 26.4323C22.9451 26.597 22.7645 26.6607 22.5042 26.6554C22.1639 26.6528 21.8297 26.5652 21.532 26.4004C21.2717 26.2676 20.9742 26.1879 20.7298 26.0445C20.4809 25.908 20.2236 25.7874 19.9595 25.6832C19.7075 25.5633 19.4485 25.4586 19.1839 25.3698C18.9182 25.2901 18.6526 25.1679 18.4029 25.1148C17.3918 24.8159 16.3279 24.7398 15.2845 24.8917C14.5773 24.994 13.9019 25.2536 13.3082 25.6514C13.2392 25.7045 13.1595 25.747 13.1011 25.8001L12.9204 25.9648C12.8036 26.068 12.6985 26.1838 12.607 26.3101C12.5158 26.4274 12.4341 26.5517 12.3626 26.682C12.2882 26.8254 12.2245 27.022 12.1501 27.1867L12.0864 27.1495Z" fill="#F5F5F7"/>
<path d="M11.263 22.3737C11.8611 21.9662 12.5265 21.6676 13.2286 21.4918C13.9009 21.3283 14.594 21.2674 15.2845 21.3112C16.5111 21.4021 17.7132 21.7021 18.8386 22.1984C19.8718 22.6481 20.8667 23.1811 21.8136 23.7921L22.467 24.2171L22.6158 24.3287L22.9186 24.573C22.9908 24.6348 23.0672 24.6916 23.147 24.743C23.2214 24.7855 23.3011 24.8759 23.3701 24.844C23.3701 24.6474 23.317 24.4774 23.3011 24.3127C23.2851 24.148 23.2533 24.0099 23.2267 23.8293C23.2267 23.8293 23.1205 23.3777 23.062 23.0537C23.0036 22.7296 22.9186 22.3524 22.8708 21.9912C22.823 21.6299 22.7911 21.2155 22.7911 20.8384C22.7911 20.6365 22.7911 20.4346 22.7911 20.2327C22.7891 20.0263 22.8051 19.8201 22.8389 19.6165C22.9321 18.7327 23.2544 17.8885 23.7739 17.1674C23.912 16.9921 24.0501 16.8062 24.1989 16.6362L24.6876 16.2005C24.8516 16.0573 25.0296 15.931 25.2189 15.8234C25.4048 15.7171 25.5801 15.6002 25.7501 15.4993C26.5761 15.1044 27.4976 14.9533 28.4064 15.0637C29.2485 15.1895 30.0492 15.5116 30.7439 16.004C31.3813 16.4448 31.946 16.9825 32.4173 17.5977C33.2494 18.6272 33.8916 19.7964 34.3139 21.0509C34.6929 22.2727 34.909 23.5391 34.9567 24.8174C34.899 27.9582 34.2088 31.055 32.9273 33.923C32.5608 34.7996 32.242 34.5659 32.0614 33.684C31.8448 32.3329 31.8109 30.9588 31.9605 29.5987C32.1427 28.1894 32.1765 26.765 32.0614 25.3487C32.0242 25.0087 31.9923 24.674 31.9711 24.3393C31.9498 24.0046 31.902 23.6752 31.8436 23.3512L31.7533 22.8677L31.6311 22.3949C31.5986 22.247 31.556 22.1014 31.5036 21.9593C31.464 21.8171 31.4125 21.6785 31.3495 21.5449C30.8895 20.4237 30.1768 19.4237 29.267 18.623C28.9209 18.2967 28.4992 18.0613 28.0398 17.9377C27.6211 17.851 27.1853 17.913 26.8073 18.113C26.536 18.2316 26.2919 18.4045 26.0899 18.621C25.888 18.8376 25.7326 19.0932 25.6333 19.3721C25.4289 20.0898 25.4016 20.8463 25.5536 21.5768C25.612 21.9965 25.713 22.4321 25.8192 22.873L26.3505 25.0352C26.4248 25.4018 26.5311 25.7949 26.5842 26.1455C26.6373 26.4962 26.6958 26.8415 26.7117 27.1496C26.7151 27.4262 26.7044 27.7028 26.6798 27.9784C26.6362 28.1767 26.5794 28.3719 26.5098 28.5627L26.3558 28.8284C26.3239 28.8762 26.3239 28.9187 26.2655 28.9665C26.2121 28.9987 26.1522 29.0187 26.0901 29.0249C25.8996 29.0486 25.7069 29.0486 25.5164 29.0249C24.9177 28.9471 24.347 28.7246 23.8536 28.3768C23.1417 27.8987 22.4245 27.3462 21.7286 26.884L21.1973 26.544L20.8308 26.3102L20.1933 25.9171C19.347 25.4106 18.4582 24.9786 17.537 24.6262C16.6925 24.2849 15.7916 24.1047 14.8808 24.0949C14.3792 24.0987 13.8838 24.2054 13.4251 24.4084C13.1974 24.5074 12.9817 24.6322 12.7823 24.7802L12.1236 25.3115C11.2888 26.0266 10.7182 27.0013 10.5033 28.0793C10.1951 29.6305 10.7795 31.3837 11.8686 32.7968C12.9929 34.2439 14.4151 35.4324 16.0389 36.2818C18.5676 37.6418 21.4098 38.173 24.2573 38.4812C24.8842 38.5449 25.5058 38.5609 26.1433 38.6087C28.5073 38.7734 29.267 38.9752 29.7823 39.6712C29.9113 39.822 30.0268 39.9837 30.1276 40.1546C30.3614 40.6859 29.3573 41.1587 27.5033 41.2968C24.6415 41.4682 21.7708 41.174 19.0033 40.4255C15.9861 39.6531 13.2055 38.1497 10.907 36.048C10.0023 35.1944 9.22895 34.2116 8.61202 33.1315C7.9399 31.9539 7.54561 30.6384 7.45921 29.2852C7.4 27.8465 7.76983 26.4227 8.52171 25.1946C8.86885 24.6156 9.28444 24.0805 9.75952 23.6009L10.0995 23.2502L10.4661 22.9421C10.7264 22.7402 10.923 22.549 11.2311 22.3365L11.263 22.3737Z" fill="#F5F5F7"/>
<path d="M13.9351 10.9518C14.1211 10.9518 14.052 11.1909 13.8873 11.6478C13.7982 11.8482 13.67 12.0288 13.5101 12.179C13.3695 12.2313 13.2233 12.2669 13.0745 12.2853C12.628 12.141 12.1929 11.9634 11.7729 11.754C11.5009 11.6273 11.2514 11.4568 11.0345 11.2493C10.5989 10.8615 10.1685 10.5056 9.75417 10.1868C9.66346 10.1098 9.59089 10.0136 9.54168 9.90527C9.35879 9.55133 9.06616 9.26615 8.70761 9.09246C8.67931 9.06869 8.64502 9.05314 8.60848 9.04752C8.57195 9.0419 8.53457 9.04642 8.50042 9.06059C8.11251 8.96108 7.75028 8.77997 7.43793 8.52934C7.27324 8.20527 7.01293 8.07246 6.82168 7.72184C6.7898 7.67934 6.73668 7.69527 6.74199 7.56246C6.74199 7.26496 6.64105 7.25965 6.55605 7.1959C6.42324 7.11074 6.30184 7.00898 6.1948 6.89309C6.13558 6.78184 6.08924 6.66421 6.05668 6.54246C6.04296 6.37385 6.07605 6.20472 6.1523 6.05371C6.24793 5.9634 6.23199 5.78277 6.25324 5.63402C6.25324 5.58621 6.25324 5.52246 6.28511 5.48527C6.4783 5.35581 6.68953 5.25557 6.91199 5.18777C7.14885 5.08593 7.39948 5.01969 7.65574 4.99121L7.9373 5.01777C8.03193 5.02334 8.12603 5.03577 8.21886 5.05496C8.32206 5.08139 8.42326 5.11512 8.52167 5.1559C8.94667 5.28871 9.34511 5.4959 9.44074 5.52246C9.53636 5.54902 9.58418 5.65527 9.6373 5.74558C9.69043 5.8359 9.94542 5.9209 10.2376 6.08027C10.4348 6.19103 10.6263 6.3116 10.8114 6.44152C10.9867 6.63277 11.231 6.74434 11.2629 7.08434C11.2629 7.14809 11.3107 7.17465 11.3479 7.20652C11.6503 7.49838 11.9129 7.82883 12.1289 8.18934C12.2533 8.35195 12.3882 8.50634 12.5326 8.65152C12.5326 8.67809 12.5326 8.7259 12.5698 8.76309C12.5801 8.80998 12.598 8.85486 12.6229 8.8959C12.8947 9.26239 13.1968 9.60538 13.5261 9.92121C13.6057 9.97965 13.7757 10.4896 13.8767 10.5321C13.9776 10.5746 13.8607 10.9625 13.9351 10.9518Z" fill="#EB4B28"/>
<path d="M9.81263 18.0865C10.0145 18.0865 9.98795 18.3733 9.81263 18.7824C9.71711 18.962 9.58283 19.118 9.41951 19.2393C9.28489 19.2741 9.14828 19.3007 9.01045 19.319C8.94138 19.319 8.09138 19.0055 7.79388 18.9577C7.52008 18.8971 7.25439 18.8044 7.00232 18.6815C6.5045 18.4664 5.9913 18.2888 5.46701 18.1502C5.34828 18.1224 5.23745 18.0679 5.14295 17.9908C4.80051 17.7457 4.39 17.6138 3.96888 17.6136C3.89982 17.6136 3.83076 17.6136 3.74576 17.6721C3.52012 17.7387 3.28295 17.7568 3.04982 17.7252C2.81163 17.7243 2.57567 17.6793 2.35388 17.5924C2.01626 17.384 1.66067 17.2062 1.29138 17.0611C1.23826 17.0611 1.17982 17.0611 1.13732 16.9549C1.03107 16.6893 0.908883 16.7265 0.786695 16.7052C0.612785 16.6762 0.444361 16.6207 0.28732 16.5405C0.20232 16.498 0.122633 16.3493 0.0376329 16.2324C-0.0125443 16.0589 -0.0125443 15.8747 0.0376329 15.7011C0.112008 15.579 0.0376329 15.3983 0.0376329 15.239C0.0376329 15.1858 0.0376329 15.1168 0.0376329 15.0743C0.384951 14.7549 0.786026 14.4995 1.22232 14.3199H1.48795C1.64201 14.3199 1.8492 14.288 2.0617 14.2721C2.4867 14.2296 2.93826 14.219 3.03388 14.203C3.12951 14.1871 3.21982 14.2561 3.31013 14.304L4.00607 14.3624C4.34607 14.3996 4.68607 14.4474 4.71263 14.4527C4.96232 14.559 5.24388 14.5643 5.45107 14.8565C5.48826 14.9202 5.54138 14.9255 5.59451 14.9415C6.03927 15.0925 6.45979 15.3073 6.84295 15.579C7.04482 15.7118 7.27326 15.7808 7.47513 15.903C7.51232 15.903 7.53357 15.9721 7.56545 16.004C7.60076 16.0482 7.64185 16.0875 7.68763 16.1208C8.18169 16.3758 8.59076 16.7636 9.06888 17.0186C9.18576 17.0824 9.53638 17.6136 9.65326 17.6827C9.77013 17.7518 9.72763 18.0811 9.81263 18.0865Z" fill="#EB4B28"/>
<path d="M24.6026 10.6064C24.7567 10.7286 24.6026 10.9358 24.2998 11.212C24.1564 11.3263 23.9829 11.3964 23.8004 11.4139C23.662 11.3598 23.5301 11.2903 23.4073 11.2067C23.0612 10.7571 22.7688 10.2686 22.536 9.75109C22.3579 9.38861 22.2412 8.99903 22.1907 8.59828C22.0795 7.80658 22.0422 7.00626 22.0792 6.20765C22.0786 6.02354 22.1204 5.84178 22.2014 5.6764C22.43 5.13993 22.6078 4.58323 22.7326 4.01359C22.7539 3.96594 22.7648 3.91436 22.7648 3.86219C22.7648 3.81002 22.7539 3.75843 22.7326 3.71078C22.6051 3.49828 23.1842 2.04265 23.3435 1.89922C23.7101 1.52203 24.0873 1.16609 24.4592 0.836716C24.5123 0.788904 24.5176 0.703903 24.6504 0.709216C24.7448 0.711512 24.8384 0.692109 24.924 0.652502C25.0097 0.612895 25.0851 0.554144 25.1445 0.480779C25.3099 0.339418 25.4877 0.213183 25.6757 0.103591C25.8013 0.0512738 25.9337 0.0172798 26.0689 0.00265322C26.191 -0.0239093 26.3876 0.156716 26.4036 0.199216C26.4301 0.321404 26.5842 0.332028 26.6798 0.385153C26.7176 0.402186 26.7532 0.423582 26.786 0.448903C26.8126 0.448903 26.8285 0.804841 26.887 1.17672C26.9454 1.54859 27.0729 1.94703 27.0145 1.98422C26.956 2.0214 26.5682 3.50359 26.5417 3.66297C26.5151 3.82234 26.4354 3.81172 26.361 3.87547C26.2867 3.93922 26.0901 5.08672 26.0795 5.1239C25.9626 5.34172 25.9998 5.59672 25.7023 5.75609C25.6801 5.77061 25.6618 5.79027 25.6488 5.81339C25.6359 5.83651 25.6287 5.86241 25.6279 5.8889C25.601 6.09246 25.5399 6.29002 25.4473 6.47328C25.3517 6.65922 25.272 6.85047 25.1817 7.04172C25.1146 7.2389 25.0649 7.44154 25.0329 7.64734C25.0329 7.68453 24.9851 7.72172 24.9639 7.7589C24.9379 7.79888 24.9215 7.84434 24.916 7.89172C24.8037 8.37004 24.7696 8.86342 24.8151 9.35265C24.8088 9.48706 24.7892 9.62052 24.7567 9.75109C24.736 9.88844 24.736 10.0281 24.7567 10.1655C24.7422 10.2461 24.7134 10.3234 24.6717 10.3939C24.6026 10.4895 24.5707 10.5798 24.6026 10.6064Z" fill="#EB4B28"/>
</svg>
