<svg xmlns="http://www.w3.org/2000/svg" width="140" height="30" viewBox="0 0 140 30"><path d="M140,10.144 C140,7.384 137.737,4.564 134.152,4.564 C130.568,4.564 128.305,7.384 128.305,10.144 C128.305,12.903 130.568,15.722 134.152,15.722 C137.737,15.722 140,12.902 140,10.144 Z M137.597,10.144 C137.597,12.354 136.636,14.871 134.152,14.871 C131.669,14.871 130.708,12.355 130.708,10.144 C130.708,7.912 131.669,5.417 134.152,5.417 C136.636,5.417 137.597,7.912 137.597,10.144 Z M120.415,15.52 L126.643,15.52 L126.643,14.667 C125.001,14.667 124.7,14.363 124.7,13.105 L124.7,0 L120.355,0.304 L120.355,1.156 C122.217,1.258 122.497,1.42 122.497,2.617 L122.497,13.105 C122.497,14.363 122.197,14.667 120.415,14.667 L120.415,15.52 Z M118.833,10.144 C118.833,7.384 116.57,4.564 112.985,4.564 C109.401,4.564 107.138,7.384 107.138,10.144 C107.138,12.903 109.401,15.722 112.985,15.722 C116.57,15.722 118.833,12.902 118.833,10.144 Z M116.43,10.144 C116.43,12.354 115.468,14.871 112.985,14.871 C110.502,14.871 109.541,12.355 109.541,10.144 C109.541,7.912 110.501,5.417 112.985,5.417 C115.468,5.417 116.43,7.912 116.43,10.144 Z M106.597,4.362 C106.597,1.217 103.513,0.304 99.968,0.304 L90.816,0.304 L90.816,1.156 C93.28,1.156 93.4,1.582 93.4,3.408 L93.4,12.091 C93.4,14.241 93.14,14.667 90.776,14.667 L90.776,15.52 L98.546,15.52 L98.546,14.667 C96.003,14.667 95.803,14.567 95.803,12.395 L95.803,8.541 L99.968,8.541 C103.513,8.541 106.597,7.506 106.597,4.361 L106.597,4.362 Z M103.793,4.382 C103.793,6.472 102.271,7.689 99.247,7.689 L95.803,7.689 L95.803,2.475 C95.803,1.481 96.403,1.156 97.846,1.156 L99.388,1.156 C102.412,1.156 103.793,2.292 103.793,4.382 L103.793,4.382 Z M89.053,29.922 L90.105,29.922 L90.105,24.34 L89.053,24.34 L89.053,26.567 L87.566,26.567 L87.566,24.34 L86.514,24.34 L86.514,29.924 L87.566,29.924 L87.566,27.51 L89.053,27.51 L89.053,29.923 L89.053,29.922 Z M88.473,1.826 C88.474,0.71 87.834,0 86.973,0 C86.092,0 85.571,0.629 85.571,1.258 C85.571,2.354 86.492,2.658 87.053,2.881 C86.933,3.611 86.432,4.321 85.551,5.153 L86.111,5.7 C87.153,4.747 88.475,3.57 88.475,1.826 L88.473,1.826 Z M85.415,29.923 L83.845,26.613 L85.285,24.339 L84.12,24.339 L82.596,26.759 L82.588,26.759 L82.588,24.339 L81.536,24.339 L81.536,29.923 L82.588,29.923 L82.588,28.329 L83.129,27.479 L84.242,29.923 L85.416,29.923 L85.415,29.923 Z M83.608,7.912 C83.608,4.24 80.664,0 75.237,0 C69.81,0 66.866,4.24 66.866,7.912 C66.866,11.604 69.81,15.824 75.236,15.824 C80.664,15.824 83.608,11.604 83.608,7.912 Z M80.804,7.912 C80.804,11.3 79.162,14.972 75.237,14.972 C71.312,14.972 69.67,11.3 69.67,7.912 C69.67,4.544 71.312,0.852 75.237,0.852 C79.162,0.852 80.804,4.544 80.804,7.912 Z M64.09,25.677 C64.09,25.329 64.35,25.143 64.708,25.143 C65.097,25.143 65.356,25.437 65.424,25.816 L66.416,25.538 C66.232,24.842 65.706,24.262 64.7,24.262 C63.587,24.262 63.038,24.911 63.038,25.7 C63.038,26.512 63.549,26.922 64.128,27.27 L64.555,27.525 C65.013,27.795 65.386,28.035 65.386,28.453 C65.386,28.902 65.119,29.119 64.7,29.119 C64.227,29.119 63.915,28.832 63.8,28.214 L62.825,28.445 C62.985,29.366 63.557,30 64.7,30 C65.775,30 66.438,29.35 66.438,28.4 C66.438,27.626 66.019,27.177 65.371,26.79 L64.944,26.535 C64.494,26.265 64.09,26.087 64.09,25.677 L64.09,25.677 Z M59.978,13.227 L59.378,12.679 C58.476,13.734 57.235,14.404 55.833,14.404 C52.949,14.404 51.527,12.476 51.527,9.961 C51.527,7.567 52.889,5.518 55.512,5.518 C56.834,5.518 57.755,6.005 57.996,6.39 L57.976,6.43 C57.235,6.43 56.554,6.877 56.554,7.851 C56.554,8.663 57.154,9.19 57.996,9.19 C58.856,9.19 59.378,8.46 59.378,7.648 C59.378,5.761 57.575,4.565 55.252,4.565 C51.287,4.565 49.124,7.425 49.124,10.164 C49.124,13.288 51.507,15.722 54.972,15.722 C57.175,15.722 58.817,14.769 59.978,13.227 Z M47.32,29.923 L48.4,29.923 L48.4,28.824 L47.318,28.824 L47.318,29.923 L47.32,29.923 Z M47.622,6.715 C47.622,5.396 46.722,4.565 45.239,4.565 C43.317,4.565 41.735,6.106 40.934,8.439 L40.874,8.439 L40.874,4.463 L36.528,4.767 L36.528,5.619 C38.39,5.721 38.671,5.883 38.671,7.08 L38.671,13.43 C38.671,14.546 38.471,14.708 36.708,14.708 L36.708,15.52 L43.077,15.52 L43.077,14.708 C40.834,14.708 40.874,14.586 40.874,12.963 C40.874,9.231 42.896,5.518 45.159,5.518 C45.339,5.518 45.519,5.538 45.599,5.558 L45.599,5.6 C45.259,5.783 44.779,6.229 44.779,6.919 C44.779,7.689 45.399,8.319 46.161,8.319 C47.061,8.319 47.622,7.609 47.622,6.716 L47.622,6.715 Z M35.306,14.728 L34.766,14.14 C34.586,14.303 34.286,14.526 33.825,14.526 C33.084,14.526 32.984,13.957 32.984,13.044 L32.984,8.5 C32.984,5.396 30.661,4.565 28.097,4.565 C26.455,4.565 24.993,4.991 24.112,5.782 C23.632,6.228 23.332,6.715 23.332,7.425 C23.332,8.195 23.912,8.825 24.672,8.825 C25.454,8.825 26.075,8.236 26.075,7.425 C26.075,6.755 25.635,6.309 25.113,6.127 L25.113,6.087 C25.714,5.782 26.655,5.518 27.837,5.518 C29.9,5.518 30.781,6.532 30.781,8.723 L30.781,9.007 L28.538,9.413 C25.534,9.961 22.83,10.488 22.83,12.923 C22.83,14.627 24.412,15.723 26.355,15.723 C28.658,15.723 30.02,14.708 30.741,13.43 L30.801,13.43 C30.921,14.951 31.722,15.722 33.104,15.722 C34.325,15.722 35.006,15.094 35.306,14.728 L35.306,14.728 Z M30.781,10.813 C30.781,12.74 29.459,14.403 27.196,14.403 C26.115,14.403 25.234,13.876 25.234,12.74 C25.234,11.3 26.555,10.732 28.718,10.286 L30.781,9.859 L30.781,10.813 L30.781,10.813 Z M13.277,15.52 L20.867,15.52 L20.867,14.667 C18.504,14.667 18.244,14.241 18.244,12.091 L18.244,3.408 C18.244,1.582 18.364,1.156 20.827,1.156 L20.827,0.304 L14.54,0.304 L10.474,11.22 L10.394,11.22 L6.528,0.304 L0,0.304 L0,1.156 C2.603,1.156 2.684,1.38 2.684,2.596 L2.684,11.503 C2.684,14.16 1.963,14.667 0,14.667 L0,15.52 L6.328,15.52 L6.328,14.667 C4.265,14.667 3.885,14.038 3.885,12.01 L3.885,1.156 L4.265,1.156 L9.512,15.946 L9.972,15.946 L15.48,1.156 L15.84,1.156 L15.84,12.396 C15.84,14.465 15.7,14.667 13.277,14.667 L13.277,15.52 Z M37.547,24.339 L34.666,24.339 L34.666,29.923 L37.624,29.923 L37.624,28.979 L35.718,28.979 L35.718,27.509 L37.113,27.509 L37.113,26.566 L35.718,26.566 L35.718,25.282 L37.548,25.282 L37.548,24.339 L37.547,24.339 Z M39.571,28.214 L38.595,28.445 C38.755,29.366 39.327,30 40.47,30 C41.545,30 42.208,29.35 42.208,28.4 C42.208,27.626 41.789,27.177 41.141,26.79 L40.714,26.535 C40.264,26.265 39.86,26.087 39.86,25.677 C39.86,25.329 40.12,25.143 40.478,25.143 C40.867,25.143 41.126,25.437 41.194,25.816 L42.185,25.538 C42.003,24.842 41.477,24.262 40.47,24.262 C39.357,24.262 38.808,24.911 38.808,25.7 C38.808,26.512 39.319,26.922 39.898,27.27 L40.325,27.525 C40.783,27.795 41.156,28.035 41.156,28.453 C41.156,28.902 40.89,29.119 40.47,29.119 C39.998,29.119 39.685,28.832 39.57,28.214 L39.571,28.214 Z M46.588,24.339 L43.081,24.339 L43.081,25.282 L44.309,25.282 L44.309,29.922 L45.361,29.922 L45.361,25.282 L46.588,25.282 L46.588,24.339 Z M52.426,29.923 L53.478,29.923 L53.478,24.339 L52.426,24.339 L52.426,29.923 Z M56.206,24.339 L55.056,24.339 L55.056,29.923 L56.016,29.923 L56.016,26.319 L56.031,26.319 L57.64,29.923 L58.646,29.923 L58.646,24.339 L57.686,24.339 L57.686,27.649 L57.67,27.649 L56.207,24.339 L56.206,24.339 Z M70.726,24.339 L67.219,24.339 L67.219,25.282 L68.446,25.282 L68.446,29.922 L69.498,29.922 L69.498,25.282 L70.725,25.282 L70.725,24.339 L70.726,24.339 Z M71.741,26.133 L71.741,28.128 C71.741,29.505 72.457,30 73.479,30 C74.501,30 75.217,29.505 75.217,28.128 L75.217,26.133 C75.217,24.757 74.501,24.262 73.479,24.262 C72.457,24.262 71.741,24.757 71.741,26.133 Z M72.793,25.993 C72.793,25.375 73.06,25.205 73.479,25.205 C73.899,25.205 74.165,25.375 74.165,25.994 L74.165,28.268 C74.165,28.886 73.898,29.057 73.479,29.057 C73.059,29.057 72.793,28.887 72.793,28.267 L72.793,25.994 L72.793,25.993 Z M76.631,26.133 L76.631,28.128 C76.631,29.505 77.347,30 78.369,30 C79.39,30 80.107,29.505 80.107,28.128 L80.107,27.896 L79.055,27.896 L79.055,28.268 C79.055,28.886 78.788,29.057 78.369,29.057 C77.949,29.057 77.683,28.887 77.683,28.267 L77.683,25.994 C77.683,25.375 77.949,25.204 78.369,25.204 C78.788,25.204 79.055,25.375 79.055,25.994 L79.055,26.149 L80.107,26.149 L80.107,26.133 C80.107,24.757 79.39,24.262 78.369,24.262 C77.347,24.262 76.631,24.757 76.631,26.133 L76.631,26.133 Z M91.624,26.133 L91.624,28.128 C91.624,29.505 92.34,30 93.362,30 C94.383,30 95.1,29.505 95.1,28.128 L95.1,26.133 C95.1,24.757 94.383,24.262 93.362,24.262 C92.34,24.262 91.624,24.757 91.624,26.133 Z M92.676,25.993 C92.676,25.375 92.942,25.205 93.362,25.205 C93.781,25.205 94.048,25.375 94.048,25.994 L94.048,28.268 C94.048,28.886 93.781,29.057 93.362,29.057 C92.942,29.057 92.676,28.887 92.676,28.267 L92.676,25.994 L92.676,25.993 Z M97.642,24.339 L96.589,24.339 L96.589,29.923 L99.334,29.923 L99.334,28.979 L97.642,28.979 L97.642,24.339 L97.642,24.339 Z M101.942,24.339 L100.471,24.339 L100.471,29.923 L101.371,29.923 L101.371,25.53 L101.385,25.53 L102.506,29.923 L103.299,29.923 L104.419,25.53 L104.435,25.53 L104.435,29.923 L105.335,29.923 L105.335,24.339 L103.863,24.339 L102.91,28.004 L102.895,28.004 L101.942,24.339 L101.942,24.339 Z"/></svg>