<svg width="168" height="28" viewBox="0 0 168 28" fill="none" xmlns="http://www.w3.org/2000/svg">
<path d="M3.57485 5.96443V20.0518H0V0.407232H3.47228L9.52394 8.16304L15.7267 0.433225H19.0716V20.0518H15.4968V5.88861L9.65026 13.0357H9.23566L3.57485 5.96443ZM32.5645 20.0518H28.7856V5.3265H31.9771L32.3086 8.39915C33.2285 6.29909 35.1169 4.91602 37.9262 4.91602C41.9081 4.91602 44.1042 7.45147 44.1042 11.396V20.0518H40.3253V12.3188C40.3253 9.68691 39.4054 8.06665 36.6997 8.06665C33.8655 8.06665 32.558 9.83421 32.558 12.8289L32.5634 20.0507L32.5645 20.0518ZM59.2004 17.0821C58.2827 19.1323 56.3673 20.406 53.4554 20.406C49.3202 20.406 46.3586 17.9474 46.3586 12.7747V12.57C46.3586 7.65184 49.2425 4.93768 53.5828 4.93768C56.1622 4.93768 58.0257 5.98717 59.046 7.80563V0.433225H62.6975V20.0518H59.5276L59.1993 17.081L59.2004 17.0821ZM59.1713 12.7596V12.6058C59.1713 9.76273 57.461 7.99517 54.6776 7.99517C51.6653 7.99517 49.9615 9.71074 49.9615 12.6058V12.7856C49.9615 15.8073 51.7668 17.2673 54.575 17.2673C57.5118 17.2619 59.1713 15.5972 59.1713 12.7596ZM71.0532 20.0518L64.4153 5.3265H68.4188L72.8369 15.9048L77.4072 5.3265H81.4658L74.4985 20.0518H71.0532ZM99.7352 20.0529V0.433225H103.489V20.0518H99.7352V20.0529ZM106.443 20.0529V0.433225H110.197V20.0518H106.443V20.0529ZM120.775 20.4883C115.083 20.4883 112.555 17.5175 112.555 13.0097V12.7801C112.555 8.22153 115.618 4.9171 120.954 4.9171C126.418 4.9171 129.123 8.27243 129.123 12.4985V14.0603H116.186C116.544 16.2882 118.101 17.4676 120.985 17.4676C123.104 17.4676 124.279 16.8525 124.866 15.7001H128.952C127.776 18.9265 124.994 20.4894 120.775 20.4894V20.4883ZM116.232 11.2422H125.427C125.096 9.01433 123.691 7.83704 121.036 7.83704C118.305 7.83704 116.697 9.09123 116.237 11.2422H116.232ZM130.201 25.9935V22.7421H132.064C134.26 22.7421 134.923 22.179 135.894 20.2836L136.251 19.5146L129.409 5.3265H133.443L137.963 15.1867L138.116 15.7748L138.293 15.2116L142.763 5.3265H146.744L139.315 20.9302C137.171 25.3621 136.227 26 131.962 26L130.201 25.9935ZM23.9842 5.55828C23.3234 5.57561 22.6637 5.49438 22.0267 5.31675V20.0518H25.8564V5.30484C25.2491 5.48581 24.6176 5.5713 23.9842 5.55828ZM24.0047 3.9835C25.3565 3.9835 26.0864 3.48746 26.0864 2.00258C26.0864 0.581605 25.3781 0 24.0047 0H24.0112C22.6303 0 21.9296 0.581605 21.9296 2.00258C21.9296 3.48746 22.6583 3.9835 24.0112 3.9835H24.0047ZM146.574 0.384487L148.568 0.621678L151.409 1.16429C152.296 1.38307 153.229 1.6181 154.033 2.0654C155.432 2.84412 155.717 4.47197 155.717 5.95576V8.97101C149.333 5.69691 146.574 0.384487 146.574 0.384487ZM166 0.384487L164.005 0.620595L161.165 1.16321C160.279 1.38199 159.345 1.61701 158.542 2.06432C157.14 2.84304 156.857 4.47088 156.857 5.95468V8.96992C163.241 5.69583 166 0.383404 166 0.383404V0.384487ZM93.595 17.0691C92.5239 19.1464 90.2512 20.6529 86.753 20.6529C83.23 20.6529 81.3686 19.168 81.3686 16.6077C81.3686 14.9463 82.0833 13.6877 83.4394 12.9448C84.7923 12.178 85.9864 11.9873 89.5267 11.5595L93.4233 11.1978V9.87212C93.4233 8.74573 92.5304 7.89986 89.9003 7.89986C86.9635 7.89986 85.8148 8.8692 85.6614 10.6692H81.8015C82.133 7.10814 84.8895 5.08498 89.639 5.08498C94.7708 5.08498 97.0165 6.80055 97.0165 10.5913V20.2208H93.9794L93.5961 17.0669L93.595 17.0691ZM93.4082 13.5404L90.1486 13.8675C87.9525 14.0982 86.983 14.2834 86.293 14.6874C85.655 15.0708 85.2868 15.5181 85.2868 16.182V16.208C85.2868 17.2846 86.3816 17.8694 87.9525 17.863C91.2207 17.837 93.4082 15.6925 93.4082 13.5404Z" fill="#1F1F1F"/>
</svg>
