<svg width="64" height="64" viewBox="0 0 64 64" fill="none" xmlns="http://www.w3.org/2000/svg">
<g clip-path="url(#clip0_402_572)">
<path d="M29.9138 0.0175872L28.9407 0.110914C19.8493 0.924194 11.3444 5.83053 5.94552 13.3634C2.96721 17.5031 1.03275 22.301 0.306707 27.3491C0.0598137 28.8916 -0.0383943 30.4542 0.013435 32.0155C0.013435 34.3886 0.0400961 34.9086 0.306707 36.6685C2.47368 51.2447 14.277 62.4782 28.9407 63.92C29.9138 64.0267 34.0996 64.0267 35.0727 63.92C39.0935 63.5271 43.0049 62.3829 46.6037 60.5469C47.1369 60.2802 47.2568 60.1869 47.1769 60.1336C47.1369 60.0936 44.7774 56.9338 41.978 53.1474L36.859 46.2278L30.447 36.7485C28.3162 33.5708 26.1655 30.4065 23.9951 27.2558C23.9684 27.2558 23.9417 31.4688 23.9284 36.6152C23.9018 45.6279 23.9018 46.0012 23.7951 46.2145C23.6819 46.4624 23.4831 46.6612 23.2352 46.7745C23.0353 46.8811 22.862 46.9078 21.9155 46.9078H20.8357L20.5425 46.7078C20.367 46.596 20.2243 46.4396 20.1292 46.2545L19.9959 45.9879L20.0092 33.4287L20.0359 20.8962L20.2225 20.6429C20.3292 20.5096 20.5425 20.3496 20.6891 20.2562C20.9424 20.1362 21.049 20.1229 22.1288 20.1229C23.3952 20.1229 23.6085 20.1762 23.9417 20.5362C24.0351 20.6429 27.5143 25.8692 31.6735 32.1621L44.2841 51.2808L49.3497 58.9603L49.6164 58.787C51.8825 57.3204 54.282 55.2139 56.175 53.0274C60.2068 48.4127 62.822 42.7326 63.7067 36.6685C63.9733 34.9086 64 34.402 64 32.0021C64 29.629 63.9733 29.109 63.7067 27.3491C61.5488 12.8038 49.7937 1.57963 35.1661 0.0975819C34.5662 0.0442521 30.4337 -0.0357426 29.9138 0.0175872ZM43.0044 19.3763C43.3068 19.5257 43.5371 19.7897 43.6443 20.1096C43.6843 20.2696 43.6976 23.7493 43.6843 31.5888V42.8414L41.6847 39.8016L39.6984 36.7618V28.5757C39.6984 23.296 39.7251 20.3229 39.7651 20.1762C39.8547 19.8419 40.0759 19.5581 40.3783 19.3896C40.6449 19.2563 40.7249 19.2563 41.7113 19.2563C42.6445 19.2563 42.8045 19.2563 43.0044 19.3763Z" fill="black"/>
</g>
<defs>
<clipPath id="clip0_402_572">
<rect width="64" height="64" fill="white"/>
</clipPath>
</defs>
</svg>
