<svg width="206" height="42" viewBox="0 0 206 42" fill="none" xmlns="http://www.w3.org/2000/svg">
<g clip-path="url(#clip0_1559_138331)">
<path d="M121.756 0.47168H123.993L129.159 7.26213V0.47168H131.554V11.5009H129.49L124.151 4.49062V11.5009H121.758V0.47168H121.756Z" fill="#C23535"/>
<path d="M133.468 9.07554V9.04343C133.468 7.2007 134.871 6.34849 136.871 6.34849C137.72 6.34849 138.335 6.49176 138.935 6.69431V6.55352C138.935 5.56051 138.32 5.00967 137.123 5.00967C136.209 5.00967 135.564 5.18258 134.792 5.46665L134.194 3.63874C135.122 3.22869 136.036 2.96191 137.471 2.96191C138.777 2.96191 139.723 3.30774 140.32 3.90551C140.95 4.5354 141.234 5.46665 141.234 6.60045V11.5012H138.918V10.5873C138.335 11.232 137.533 11.6593 136.367 11.6593C134.774 11.6593 133.468 10.7454 133.468 9.07554ZM138.965 8.5247V8.09983C138.555 7.9121 138.019 7.78612 137.436 7.78612C136.411 7.78612 135.782 8.19617 135.782 8.95203V8.98414C135.782 9.63132 136.318 10.0093 137.091 10.0093C138.209 10.0043 138.965 9.38925 138.965 8.5247Z" fill="#C23535"/>
<path d="M143.585 9.10773V5.10608H142.577V3.05833H143.585V0.899414H145.98V3.05833H147.966V5.10608H145.98V8.71498C145.98 9.26582 146.217 9.53507 146.753 9.53507C147.195 9.53507 147.588 9.42391 147.933 9.23618V11.158C147.43 11.4568 146.847 11.647 146.044 11.647C144.578 11.6446 143.585 11.0616 143.585 9.10773Z" fill="#C23535"/>
<path d="M149.756 0H152.277V2.1268H149.756V0ZM149.818 3.05558H152.213V11.501H149.818V3.05558Z" fill="#C23535"/>
<path d="M153.904 7.32644V7.29433C153.904 4.86864 155.858 2.89746 158.487 2.89746C161.102 2.89746 163.038 4.83653 163.038 7.26222V7.29433C163.038 9.72002 161.085 11.6887 158.455 11.6887C155.84 11.6912 153.904 9.75213 153.904 7.32644ZM160.675 7.32644V7.29433C160.675 6.04938 159.776 4.96251 158.455 4.96251C157.085 4.96251 156.265 6.01726 156.265 7.26222V7.29433C156.265 8.53929 157.164 9.62616 158.485 9.62616C159.858 9.62616 160.675 8.5714 160.675 7.32644Z" fill="#C23535"/>
<path d="M164.73 3.05555H167.125V4.25357C167.676 3.54464 168.385 2.89746 169.597 2.89746C171.407 2.89746 172.464 4.09548 172.464 6.03208V11.4985H170.069V6.79042C170.069 5.65662 169.533 5.07367 168.619 5.07367C167.705 5.07367 167.123 5.65662 167.123 6.79042V11.501H164.727V3.05555H164.73Z" fill="#C23535"/>
<path d="M174.01 9.07554V9.04343C174.01 7.2007 175.412 6.34849 177.412 6.34849C178.262 6.34849 178.877 6.49176 179.477 6.69431V6.55352C179.477 5.56051 178.862 5.00967 177.664 5.00967C176.751 5.00967 176.106 5.18258 175.333 5.46665L174.736 3.63874C175.664 3.22869 176.578 2.96191 178.012 2.96191C179.319 2.96191 180.265 3.30774 180.862 3.90551C181.492 4.5354 181.776 5.46665 181.776 6.60045V11.5012H179.46V10.5873C178.877 11.232 178.074 11.6593 176.909 11.6593C175.316 11.6593 174.01 10.7454 174.01 9.07554ZM179.506 8.5247V8.09983C179.097 7.9121 178.561 7.78612 177.978 7.78612C176.953 7.78612 176.323 8.19617 176.323 8.95203V8.98414C176.323 9.63132 176.859 10.0093 177.632 10.0093C178.751 10.0043 179.506 9.38925 179.506 8.5247Z" fill="#C23535"/>
<path d="M183.917 0H186.312V11.501H183.917V0Z" fill="#C23535"/>
<path d="M121.756 15.626H126.796C128.198 15.626 129.285 16.0187 130.008 16.745C130.623 17.36 130.954 18.227 130.954 19.267V19.2991C130.954 21.0801 129.994 22.1966 128.591 22.7178L131.285 26.6577H128.45L126.087 23.1278H124.181V26.6577H121.756V15.626ZM126.638 20.9837C127.818 20.9837 128.497 20.3538 128.497 19.4226V19.3905C128.497 18.3506 127.774 17.8145 126.591 17.8145H124.181V20.9813H126.638V20.9837Z" fill="#C23535"/>
<path d="M132.3 22.4807V22.4486C132.3 20.0378 134.016 18.0518 136.473 18.0518C139.293 18.0518 140.585 20.2428 140.585 22.6364C140.585 22.8266 140.567 23.0464 140.553 23.2662H134.678C134.915 24.3531 135.671 24.9213 136.742 24.9213C137.545 24.9213 138.128 24.6693 138.789 24.0542L140.16 25.2671C139.372 26.2453 138.239 26.843 136.71 26.843C134.172 26.8455 132.3 25.0645 132.3 22.4807ZM138.254 21.7718C138.113 20.6998 137.481 19.976 136.473 19.976C135.481 19.976 134.836 20.6849 134.646 21.7718H138.254Z" fill="#C23535"/>
<path d="M142.59 24.262V20.2604H141.582V18.2126H142.59V16.0537H144.985V18.2126H146.97V20.2604H144.985V23.8693C144.985 24.4201 145.222 24.6894 145.758 24.6894C146.2 24.6894 146.593 24.5782 146.938 24.3905V26.3123C146.435 26.6111 145.852 26.8013 145.049 26.8013C143.582 26.7989 142.59 26.2159 142.59 24.262Z" fill="#C23535"/>
<path d="M148.17 24.2298V24.1977C148.17 22.355 149.573 21.5028 151.573 21.5028C152.423 21.5028 153.038 21.6461 153.638 21.8486V21.7078C153.638 20.7148 153.023 20.164 151.825 20.164C150.911 20.164 150.267 20.3369 149.494 20.6209L148.896 18.793C149.825 18.383 150.739 18.1162 152.173 18.1162C153.48 18.1162 154.425 18.462 155.023 19.0598C155.653 19.6897 155.937 20.6209 155.937 21.7547V26.6555H153.62V25.7416C153.038 26.3863 152.235 26.8136 151.069 26.8136C149.479 26.8136 148.17 25.8997 148.17 24.2298ZM153.667 23.679V23.2541C153.257 23.0664 152.721 22.9404 152.139 22.9404C151.114 22.9404 150.484 23.3505 150.484 24.1063V24.1384C150.484 24.7856 151.02 25.1636 151.793 25.1636C152.912 25.1586 153.667 24.546 153.667 23.679Z" fill="#C23535"/>
<path d="M157.986 15.1543H160.507V17.2811H157.986V15.1543ZM158.048 18.2099H160.443V26.6553H158.048V18.2099Z" fill="#C23535"/>
<path d="M162.68 15.1543H165.076V26.6553H162.68V15.1543Z" fill="#C23535"/>
<path d="M121.756 30.7832H130.152V32.989H124.181V35.3357H129.44V37.5415H124.181V41.81H121.756V30.7832Z" fill="#C23535"/>
<path d="M131.058 37.635V37.6029C131.058 35.1921 132.774 33.2061 135.231 33.2061C138.051 33.2061 139.343 35.3971 139.343 37.7907C139.343 37.9809 139.325 38.2007 139.31 38.4205H133.436C133.673 39.5074 134.429 40.0756 135.5 40.0756C136.303 40.0756 136.886 39.8236 137.547 39.2085L138.918 40.4214C138.13 41.3996 136.997 41.9973 135.468 41.9973C132.932 41.9998 131.058 40.2213 131.058 37.635ZM137.011 36.9261C136.871 35.8541 136.239 35.1303 135.231 35.1303C134.238 35.1303 133.594 35.8392 133.404 36.9261H137.011Z" fill="#C23535"/>
<path d="M140.669 37.6054V37.5733C140.669 34.7524 142.511 33.2086 144.511 33.2086C145.788 33.2086 146.575 33.7915 147.141 34.4683V30.3086H149.536V41.8096H147.141V40.5968C146.558 41.3848 145.755 41.9677 144.511 41.9677C142.543 41.9677 140.669 40.4239 140.669 37.6054ZM147.173 37.6054V37.5733C147.173 36.1703 146.244 35.2415 145.126 35.2415C144.007 35.2415 143.061 36.1554 143.061 37.5733V37.6054C143.061 39.0085 144.007 39.9372 145.126 39.9372C146.244 39.9372 147.173 39.006 147.173 37.6054Z" fill="#C23535"/>
<path d="M151.257 37.635V37.6029C151.257 35.1921 152.973 33.2061 155.43 33.2061C158.25 33.2061 159.542 35.3971 159.542 37.7907C159.542 37.9809 159.525 38.2007 159.51 38.4205H153.635C153.872 39.5074 154.628 40.0756 155.699 40.0756C156.502 40.0756 157.085 39.8236 157.747 39.2085L159.117 40.4214C158.329 41.3996 157.196 41.9973 155.667 41.9973C153.129 41.9998 151.257 40.2213 151.257 37.635ZM157.208 36.9261C157.068 35.8541 156.435 35.1303 155.428 35.1303C154.435 35.1303 153.791 35.8392 153.601 36.9261H157.208Z" fill="#C23535"/>
<path d="M161.256 33.3667H163.651V35.0686C164.14 33.9027 164.927 33.1468 166.345 33.2086V35.7133H166.219C164.629 35.7133 163.651 36.6742 163.651 38.6899V41.8097H161.256V33.3667Z" fill="#C23535"/>
<path d="M167.007 39.3841V39.352C167.007 37.5093 168.409 36.6571 170.409 36.6571C171.259 36.6571 171.874 36.8004 172.474 37.0029V36.8621C172.474 35.8691 171.859 35.3183 170.661 35.3183C169.748 35.3183 169.103 35.4912 168.33 35.7752L167.733 33.9473C168.661 33.5373 169.575 33.2705 171.009 33.2705C172.316 33.2705 173.261 33.6163 173.859 34.2141C174.489 34.844 174.773 35.7752 174.773 36.909V41.8098H172.456V40.8959C171.874 41.5406 171.071 41.9679 169.906 41.9679C168.313 41.9679 167.007 41.0564 167.007 39.3841ZM172.503 38.8333V38.4084C172.093 38.2207 171.558 38.0947 170.975 38.0947C169.95 38.0947 169.32 38.5048 169.32 39.2606V39.2927C169.32 39.9399 169.856 40.3179 170.629 40.3179C171.748 40.3154 172.503 39.7003 172.503 38.8333Z" fill="#C23535"/>
<path d="M177.121 39.4163V35.4147H176.114V33.3669H177.121V31.208H179.516V33.3669H181.502V35.4147H179.516V39.0236C179.516 39.5744 179.753 39.8437 180.289 39.8437C180.731 39.8437 181.124 39.7325 181.47 39.5448V41.4665C180.966 41.7654 180.383 41.9556 179.581 41.9556C178.114 41.9532 177.121 41.3702 177.121 39.4163Z" fill="#C23535"/>
<path d="M183.292 30.3086H185.813V32.4354H183.292V30.3086ZM183.354 33.3666H185.749V41.8121H183.354V33.3666Z" fill="#C23535"/>
<path d="M187.44 37.635V37.6029C187.44 35.1772 189.394 33.2061 192.024 33.2061C194.639 33.2061 196.575 35.1451 196.575 37.5708V37.6029C196.575 40.0286 194.621 41.9973 191.991 41.9973C189.376 41.9998 187.44 40.0632 187.44 37.635ZM194.214 37.635V37.6029C194.214 36.358 193.315 35.2711 191.994 35.2711C190.623 35.2711 189.804 36.3259 189.804 37.5708V37.6029C189.804 38.8479 190.702 39.9348 192.024 39.9348C193.394 39.9372 194.214 38.88 194.214 37.635Z" fill="#C23535"/>
<path d="M198.268 33.3671H200.664V34.5651C201.214 33.8562 201.923 33.209 203.136 33.209C204.946 33.209 206.002 34.407 206.002 36.3436V41.8101H203.607V37.1019C203.607 35.9681 203.071 35.3852 202.158 35.3852C201.244 35.3852 200.661 35.9681 200.661 37.1019V41.8125H198.266V33.3671H198.268Z" fill="#C23535"/>
<path d="M25.0811 22.3607C18.7571 11.6304 12.0751 0.467773 12.0751 0.467773H11.401H0.674131H0V41.8601H11.401V19.1767L24.407 41.8626C24.407 41.8626 24.6687 41.8601 25.0811 41.8552V41.8626H36.4821V0.467773H25.0811V22.3607Z" fill="#C23535"/>
<path d="M113.298 10.0668V0.467773H93.0103H88.3778H81.6093V41.8626H93.0103V28.1236H108.75V18.5246H93.0103V10.0668H113.298Z" fill="#C23535"/>
<path d="M78.9869 41.8695L69.549 26.9449C69.8281 26.7695 72.0702 24.655 73.5222 22.9704C75.515 20.6583 77.5127 17.7509 77.6905 13.5492C77.9843 6.61056 73.1543 0.212861 62.3312 0.417884H41.5763V41.8102H52.9773V9.96749H61.4471C65.0721 9.96749 66.6155 11.2643 66.6155 13.4825C66.6155 14.6633 66.1512 16.2269 61.6694 20.7003C59.9705 22.3973 56.1751 26.0161 56.1751 26.0161L56.1603 26.0309L66.2525 41.867" fill="#C23535"/>
<path d="M94.3783 39.3846V39.3698C94.3783 38.0137 95.4796 36.8799 96.8748 36.8799C98.27 36.8799 99.3565 38.0013 99.3565 39.3574V39.3723C99.3565 40.7284 98.2552 41.8622 96.86 41.8622C95.4648 41.8622 94.3783 40.7407 94.3783 39.3846ZM99.0676 39.3723V39.3574C99.0676 38.1397 98.1268 37.1565 96.8748 37.1565C95.6154 37.1565 94.6672 38.1545 94.6672 39.3723V39.3871C94.6672 40.6049 95.6105 41.588 96.8625 41.588C98.1194 41.588 99.0676 40.5901 99.0676 39.3723ZM95.8426 37.9742H97.018C97.3761 37.9742 97.6502 38.0779 97.8354 38.2632C97.9811 38.4064 98.0551 38.6065 98.0551 38.8412V38.856C98.0551 39.2833 97.8206 39.5501 97.4847 39.6736L98.1317 40.6222H97.4502L96.8871 39.77H96.4254V40.6222H95.8401V37.9742H95.8426ZM97.0106 39.2685C97.3069 39.2685 97.465 39.1104 97.465 38.8906V38.8758C97.465 38.6213 97.2872 38.4904 96.9983 38.4904H96.4278V39.2685H97.0106Z" fill="#C23535"/>
</g>
<defs>
<clipPath id="clip0_1559_138331">
<rect width="206" height="42" fill="white"/>
</clipPath>
</defs>
</svg>
