<svg width="75" height="75" viewBox="0 0 75 75" fill="none" xmlns="http://www.w3.org/2000/svg">
<path d="M75 39.2576C75 34.348 68.778 29.6952 59.2387 26.8099C61.4401 17.2022 60.4617 9.55831 56.1506 7.11107C55.157 6.53702 53.9951 6.26511 52.7263 6.26511V9.63384C53.4295 9.63384 53.9951 9.7698 54.469 10.0266C56.5481 11.2049 57.4501 15.6915 56.7468 21.4622C56.5787 22.8822 56.3035 24.3777 55.9672 25.9035C52.9709 25.1784 49.6993 24.6194 46.2597 24.2569C44.1959 21.4622 42.0556 18.9243 39.9001 16.7037C44.8838 12.1264 49.5618 9.61873 52.7415 9.61873V6.25C48.5375 6.25 43.034 9.21086 37.4694 14.347C31.9048 9.24107 26.4013 6.31043 22.1973 6.31043V9.67916C25.3618 9.67916 30.055 12.1717 35.0387 16.7188C32.8985 18.9394 30.7583 21.4622 28.725 24.2569C25.2701 24.6194 21.9986 25.1784 19.0022 25.9186C18.6506 24.4079 18.3907 22.9426 18.2073 21.5377C17.4888 15.7671 18.3755 11.2804 20.4393 10.087C20.8979 9.81512 21.4941 9.69427 22.1973 9.69427V6.32553C20.9132 6.32553 19.7513 6.59745 18.7424 7.17149C14.4466 9.61873 13.4835 17.2475 15.7002 26.825C6.1914 29.7254 0 34.3631 0 39.2576C0 44.1671 6.22197 48.8199 15.7613 51.7053C13.5599 61.3129 14.5383 68.9568 18.8494 71.404C19.8431 71.9781 21.0049 72.25 22.289 72.25C26.4931 72.25 31.9965 69.2891 37.5611 64.153C43.1258 69.2589 48.6292 72.1896 52.8333 72.1896C54.1174 72.1896 55.2793 71.9177 56.2882 71.3436C60.584 68.8964 61.5471 61.2676 59.3304 51.6902C68.8086 48.8048 75 44.152 75 39.2576ZM55.0958 29.1816C54.5302 31.1303 53.827 33.1394 53.032 35.1486C52.4052 33.9401 51.7479 32.7316 51.0294 31.5231C50.3261 30.3145 49.577 29.1362 48.828 27.9882C50.9988 28.3054 53.0932 28.6982 55.0958 29.1816ZM48.0942 45.2699C46.9018 47.3093 45.6788 49.2429 44.4099 51.0406C42.1321 51.237 39.8237 51.3427 37.5 51.3427C35.1916 51.3427 32.8832 51.237 30.6207 51.0557C29.3518 49.258 28.1135 47.3395 26.9211 45.3152C25.7593 43.3363 24.7044 41.3271 23.7413 39.3029C24.6892 37.2786 25.7593 35.2544 26.9058 33.2754C28.0982 31.236 29.3212 29.3024 30.5901 27.5048C32.8679 27.3084 35.1763 27.2026 37.5 27.2026C39.8084 27.2026 42.1168 27.3084 44.3793 27.4896C45.6482 29.2873 46.8865 31.2058 48.0789 33.2301C49.2407 35.209 50.2956 37.2182 51.2587 39.2424C50.2956 41.2667 49.2407 43.291 48.0942 45.2699ZM53.032 43.3061C53.8575 45.3303 54.5607 47.3546 55.1417 49.3184C53.139 49.8018 51.0294 50.2097 48.8433 50.527C49.5923 49.3638 50.3414 48.1703 51.0446 46.9467C51.7479 45.7382 52.4052 44.5146 53.032 43.3061ZM37.5306 59.4246C36.1088 57.9744 34.6871 56.358 33.2807 54.5906C34.6565 54.651 36.063 54.6963 37.4847 54.6963C38.9217 54.6963 40.3435 54.6661 41.7346 54.5906C40.3587 56.358 38.937 57.9744 37.5306 59.4246ZM26.1567 50.527C23.9859 50.2097 21.8916 49.817 19.8889 49.3335C20.4545 47.3848 21.1578 45.3757 21.9527 43.3665C22.5795 44.575 23.2369 45.7835 23.9554 46.992C24.6739 48.2006 25.4077 49.3789 26.1567 50.527ZM37.4541 19.0905C38.8759 20.5407 40.2976 22.1571 41.704 23.9245C40.3282 23.8641 38.9217 23.8188 37.5 23.8188C36.063 23.8188 34.6413 23.849 33.2501 23.9245C34.626 22.1571 36.0477 20.5407 37.4541 19.0905ZM26.1415 27.9882C25.3924 29.1514 24.6433 30.3448 23.9401 31.5684C23.2369 32.7769 22.5795 33.9854 21.9527 35.1939C21.1272 33.1697 20.424 31.1454 19.843 29.1816C21.8457 28.7133 23.9554 28.3054 26.1415 27.9882ZM12.3064 46.9014C6.89462 44.6203 3.3938 41.6293 3.3938 39.2576C3.3938 36.8858 6.89462 33.8797 12.3064 31.6137C13.6211 31.0548 15.0581 30.5562 16.541 30.0879C17.4124 33.0488 18.5589 36.1305 19.9806 39.2878C18.5742 42.4299 17.4429 45.4965 16.5868 48.4423C15.0734 47.974 13.6364 47.4603 12.3064 46.9014ZM20.531 68.4885C18.4519 67.3102 17.5499 62.8236 18.2532 57.0529C18.4213 55.6329 18.6965 54.1374 19.0328 52.6116C22.0291 53.3367 25.3007 53.8957 28.7403 54.2582C30.8041 57.0529 32.9444 59.5908 35.0999 61.8115C30.1162 66.3887 25.4382 68.8964 22.2585 68.8964C21.5705 68.8813 20.9896 68.7453 20.531 68.4885ZM56.7927 56.9774C57.5112 62.7481 56.6245 67.2347 54.5607 68.4281C54.1021 68.7 53.5059 68.8208 52.8027 68.8208C49.6382 68.8208 44.945 66.3283 39.9613 61.7812C42.1015 59.5606 44.2417 57.0378 46.275 54.2431C49.7299 53.8806 53.0014 53.3216 55.9978 52.5814C56.3494 54.1072 56.6245 55.5725 56.7927 56.9774ZM62.6784 46.9014C61.3636 47.4603 59.9266 47.9589 58.4437 48.4272C57.5724 45.4663 56.4258 42.3846 55.0041 39.2273C56.4105 36.0852 57.5418 33.0186 58.3979 30.0728C59.9113 30.5411 61.3484 31.0548 62.6936 31.6137C68.1054 33.8948 71.6062 36.8858 71.6062 39.2576C71.5909 41.6293 68.0901 44.6354 62.6784 46.9014Z" fill="#6ED9F8"/>
<path d="M38.4147 45.8504C42.4558 45.8504 45.7318 42.8955 45.7318 39.2504C45.7318 35.6053 42.4558 32.6504 38.4147 32.6504C34.3736 32.6504 31.0977 35.6053 31.0977 39.2504C31.0977 42.8955 34.3736 45.8504 38.4147 45.8504Z" fill="#6ED9F8"/>
</svg>
