<svg width="181" height="181" viewBox="0 0 181 181" fill="none" xmlns="http://www.w3.org/2000/svg">
<g clip-path="url(#clip0_4317_3)">
<path d="M180.593 90.2965C180.593 140.162 140.162 180.593 90.2965 180.593C40.4306 180.593 0 140.162 0 90.2965C0 40.4306 40.4306 0 90.2965 0C140.162 0 180.593 40.4306 180.593 90.2965ZM129.772 33.4056C120.601 33.7142 112.591 38.7846 106.624 45.7655C100.026 53.4372 95.6314 62.5344 92.4716 71.808C86.8133 67.1639 82.4484 61.1676 73.3659 58.5516C66.3409 56.5382 58.9778 57.3612 52.2026 62.4168C48.9988 64.8124 46.7796 68.4278 45.7361 71.8521C43.0172 80.6995 48.602 88.5916 51.1298 91.4134L56.6704 97.3509C57.8168 98.5119 60.5651 101.554 59.2277 105.919C57.7727 110.666 52.0557 113.723 46.1917 111.93C43.5757 111.122 39.8133 109.182 40.651 106.433C41.0038 105.302 41.7974 104.464 42.2383 103.509C42.6351 102.671 42.8262 102.054 42.9437 101.672C44.0166 98.1739 42.5469 93.6326 38.814 92.4716C35.3161 91.3987 31.7448 92.2511 30.3634 96.7483C28.7908 101.863 31.2452 111.136 44.3399 115.163C59.6833 119.896 72.6751 111.533 74.5122 100.628C75.6733 93.809 72.5869 88.7239 66.9434 82.2133L62.3434 77.1135C59.5657 74.3359 58.5957 69.5888 61.491 65.944C63.9306 62.8577 67.3843 61.5497 73.0719 63.0929C81.3609 65.3415 85.0497 71.0879 91.2224 75.732C88.6798 84.0798 87.0191 92.4716 85.5053 99.9816L84.5794 105.581C80.1704 128.684 76.8049 141.382 68.0604 148.672C66.2968 149.921 63.7836 151.802 59.9919 151.934C57.9931 151.993 57.3612 150.626 57.3318 150.024C57.2877 148.628 58.4634 147.981 59.2424 147.364C60.4181 146.732 62.1817 145.674 62.0494 142.279C61.9319 138.281 58.6104 134.813 53.8193 134.974C50.2333 135.092 44.7661 138.472 44.9719 144.645C45.1776 151.038 51.1298 155.814 60.1095 155.52C64.9006 155.359 75.6145 153.404 86.1667 140.853C98.4678 126.494 101.907 110.005 104.493 97.9387L107.374 82.0075C108.976 82.1986 110.695 82.3309 112.562 82.3749C127.861 82.6983 135.518 74.7768 135.636 69.001C135.709 65.5178 133.343 62.0788 130.036 62.1523C127.67 62.2111 124.687 63.7983 123.981 67.0757C123.276 70.2796 128.846 73.1895 124.496 76.0113C121.409 78.01 115.869 79.4209 108.065 78.2746L109.49 70.4265C112.386 55.5535 115.957 37.2561 129.507 36.8152C130.492 36.7711 134.107 36.8593 134.195 39.2549C134.225 40.0485 134.019 40.2542 133.079 42.0913C132.123 43.5169 131.771 44.7367 131.815 46.1182C131.947 49.91 134.827 52.4084 139.016 52.2614C144.601 52.0704 146.217 46.6326 146.114 43.8402C145.865 37.2561 138.943 33.1116 129.772 33.4056Z" fill="black"/>
</g>
<defs>
<clipPath id="clip0_4317_3">
<rect width="180.593" height="180.593" fill="white"/>
</clipPath>
</defs>
</svg>
